<?xml version="1.0" encoding="utf-8"?>
<!-- Generator: Adobe Illustrator 15.0.2, SVG Export Plug-In . SVG Version: 6.00 Build 0)  -->
<!DOCTYPE svg PUBLIC "-//W3C//DTD SVG 1.1//EN" "http://www.w3.org/Graphics/SVG/1.1/DTD/svg11.dtd">
<svg version="1.1" xmlns="http://www.w3.org/2000/svg" xmlns:xlink="http://www.w3.org/1999/xlink" x="0px" y="0px" width="854px"
	 height="468px" viewBox="0 0 854 468" enable-background="new 0 0 854 468" xml:space="preserve">
<g id="Calque_3">
</g>
<g id="Calque_2">
	<path fill="#1D71B8" d="M268,212.5c0,6.627-5.373,12-12,12H26c-6.627,0-12-5.373-12-12V26c0-6.627,5.373-12,12-12h230
		c6.627,0,12,5.373,12,12V212.5z"/>
	<path fill="#1D71B8" d="M555,214.25c0,6.627-5.373,12-12,12H313c-6.627,0-12-5.373-12-12V27.75c0-6.627,5.373-12,12-12h230
		c6.627,0,12,5.373,12,12V214.25z"/>
	<path fill="#009FE3" d="M551,210.75c0,6.627-5.373,12-12,12H317c-6.627,0-12-5.373-12-12v-180c0-6.627,5.373-12,12-12h222
		c6.627,0,12,5.373,12,12V210.75z"/>
	<path fill="#FFFFFF" d="M422,132.25c0,6.627-5.373,12-12,12h-81c-6.627,0-12-5.373-12-12v-86c0-6.627,5.373-12,12-12h81
		c6.627,0,12,5.373,12,12V132.25z"/>
	<path fill="#FFFFFF" d="M537.5,48c0,4.004-3.246,7.25-7.25,7.25h-93c-4.004,0-7.25-3.246-7.25-7.25l0,0
		c0-4.004,3.246-7.25,7.25-7.25h93C534.254,40.75,537.5,43.996,537.5,48L537.5,48z"/>
	<path fill="#FFFFFF" d="M537.5,69c0,4.004-3.246,7.25-7.25,7.25h-93c-4.004,0-7.25-3.246-7.25-7.25l0,0
		c0-4.004,3.246-7.25,7.25-7.25h93C534.254,61.75,537.5,64.996,537.5,69L537.5,69z"/>
	<path fill="#FFFFFF" d="M537.5,89.5c0,4.004-3.246,7.25-7.25,7.25h-93c-4.004,0-7.25-3.246-7.25-7.25l0,0
		c0-4.004,3.246-7.25,7.25-7.25h93C534.254,82.25,537.5,85.496,537.5,89.5L537.5,89.5z"/>
	<path fill="#FFFFFF" d="M537.5,109.5c0,4.004-3.246,7.25-7.25,7.25h-93c-4.004,0-7.25-3.246-7.25-7.25l0,0
		c0-4.004,3.246-7.25,7.25-7.25h93C534.254,102.25,537.5,105.496,537.5,109.5L537.5,109.5z"/>
	<path fill="#FFFFFF" d="M537.5,130c0,4.004-3.246,7.25-7.25,7.25h-93c-4.004,0-7.25-3.246-7.25-7.25l0,0
		c0-4.004,3.246-7.25,7.25-7.25h93C534.254,122.75,537.5,125.996,537.5,130L537.5,130z"/>
	<path fill="#FFFFFF" d="M537.5,197.75c0,6.627-5.373,12-12,12H329c-6.627,0-12-5.373-12-12v-33c0-6.627,5.373-12,12-12h196.5
		c6.627,0,12,5.373,12,12V197.75z"/>
	<path fill="#1D71B8" d="M268,443.5c0,6.627-5.373,12-12,12H26c-6.627,0-12-5.373-12-12V257c0-6.627,5.373-12,12-12h230
		c6.627,0,12,5.373,12,12V443.5z"/>
	<path fill="#1D71B8" d="M555,445.25c0,6.627-5.373,12-12,12H313c-6.627,0-12-5.373-12-12v-186.5c0-6.627,5.373-12,12-12h230
		c6.627,0,12,5.373,12,12V445.25z"/>
	<path fill="#009FE3" d="M551,441.75c0,6.627-5.373,12-12,12H317c-6.627,0-12-5.373-12-12v-180c0-6.627,5.373-12,12-12h222
		c6.627,0,12,5.373,12,12V441.75z"/>
	<path fill="#FFFFFF" d="M422,363.25c0,6.627-5.373,12-12,12h-81c-6.627,0-12-5.373-12-12v-86c0-6.627,5.373-12,12-12h81
		c6.627,0,12,5.373,12,12V363.25z"/>
	<path fill="#FFFFFF" d="M537.5,279c0,4.004-3.246,7.25-7.25,7.25h-93c-4.004,0-7.25-3.246-7.25-7.25l0,0
		c0-4.004,3.246-7.25,7.25-7.25h93C534.254,271.75,537.5,274.996,537.5,279L537.5,279z"/>
	<path fill="#FFFFFF" d="M537.5,300c0,4.004-3.246,7.25-7.25,7.25h-93c-4.004,0-7.25-3.246-7.25-7.25l0,0
		c0-4.004,3.246-7.25,7.25-7.25h93C534.254,292.75,537.5,295.996,537.5,300L537.5,300z"/>
	<path fill="#FFFFFF" d="M537.5,320.5c0,4.004-3.246,7.25-7.25,7.25h-93c-4.004,0-7.25-3.246-7.25-7.25l0,0
		c0-4.004,3.246-7.25,7.25-7.25h93C534.254,313.25,537.5,316.496,537.5,320.5L537.5,320.5z"/>
	<path fill="#FFFFFF" d="M537.5,340.5c0,4.004-3.246,7.25-7.25,7.25h-93c-4.004,0-7.25-3.246-7.25-7.25l0,0
		c0-4.004,3.246-7.25,7.25-7.25h93C534.254,333.25,537.5,336.496,537.5,340.5L537.5,340.5z"/>
	<path fill="#FFFFFF" d="M537.5,361c0,4.004-3.246,7.25-7.25,7.25h-93c-4.004,0-7.25-3.246-7.25-7.25l0,0
		c0-4.004,3.246-7.25,7.25-7.25h93C534.254,353.75,537.5,356.996,537.5,361L537.5,361z"/>
	<path fill="#FFFFFF" d="M537.5,428.75c0,6.627-5.373,12-12,12H329c-6.627,0-12-5.373-12-12v-33c0-6.627,5.373-12,12-12h196.5
		c6.627,0,12,5.373,12,12V428.75z"/>
	<path fill="#009FE3" d="M264,440c0,6.627-5.373,12-12,12H30c-6.627,0-12-5.373-12-12V260c0-6.627,5.373-12,12-12h222
		c6.627,0,12,5.373,12,12V440z"/>
	<path fill="#FFFFFF" d="M135,361.5c0,6.627-5.373,12-12,12H42c-6.627,0-12-5.373-12-12v-86c0-6.627,5.373-12,12-12h81
		c6.627,0,12,5.373,12,12V361.5z"/>
	<path fill="#FFFFFF" d="M250.5,277.25c0,4.004-3.246,7.25-7.25,7.25h-93c-4.004,0-7.25-3.246-7.25-7.25l0,0
		c0-4.004,3.246-7.25,7.25-7.25h93C247.254,270,250.5,273.246,250.5,277.25L250.5,277.25z"/>
	<path fill="#FFFFFF" d="M250.5,298.25c0,4.004-3.246,7.25-7.25,7.25h-93c-4.004,0-7.25-3.246-7.25-7.25l0,0
		c0-4.004,3.246-7.25,7.25-7.25h93C247.254,291,250.5,294.246,250.5,298.25L250.5,298.25z"/>
	<path fill="#FFFFFF" d="M250.5,318.75c0,4.004-3.246,7.25-7.25,7.25h-93c-4.004,0-7.25-3.246-7.25-7.25l0,0
		c0-4.004,3.246-7.25,7.25-7.25h93C247.254,311.5,250.5,314.746,250.5,318.75L250.5,318.75z"/>
	<path fill="#FFFFFF" d="M250.5,338.75c0,4.004-3.246,7.25-7.25,7.25h-93c-4.004,0-7.25-3.246-7.25-7.25l0,0
		c0-4.004,3.246-7.25,7.25-7.25h93C247.254,331.5,250.5,334.746,250.5,338.75L250.5,338.75z"/>
	<path fill="#FFFFFF" d="M250.5,359.25c0,4.004-3.246,7.25-7.25,7.25h-93c-4.004,0-7.25-3.246-7.25-7.25l0,0
		c0-4.004,3.246-7.25,7.25-7.25h93C247.254,352,250.5,355.246,250.5,359.25L250.5,359.25z"/>
	<path fill="#FFFFFF" d="M250.5,427c0,6.627-5.373,12-12,12H42c-6.627,0-12-5.373-12-12v-33c0-6.627,5.373-12,12-12h196.5
		c6.627,0,12,5.373,12,12V427z"/>
	<path fill="#1D71B8" d="M841,214.75c0,6.627-5.373,12-12,12H599c-6.627,0-12-5.373-12-12V28.25c0-6.627,5.373-12,12-12h230
		c6.627,0,12,5.373,12,12V214.75z"/>
	<path fill="#009FE3" d="M837,211.25c0,6.627-5.373,12-12,12H603c-6.627,0-12-5.373-12-12v-180c0-6.627,5.373-12,12-12h222
		c6.627,0,12,5.373,12,12V211.25z"/>
	<path fill="#FFFFFF" d="M708,132.75c0,6.627-5.373,12-12,12h-81c-6.627,0-12-5.373-12-12v-86c0-6.627,5.373-12,12-12h81
		c6.627,0,12,5.373,12,12V132.75z"/>
	<path fill="#FFFFFF" d="M823.5,48.5c0,4.004-3.246,7.25-7.25,7.25h-93c-4.004,0-7.25-3.246-7.25-7.25l0,0
		c0-4.004,3.246-7.25,7.25-7.25h93C820.254,41.25,823.5,44.496,823.5,48.5L823.5,48.5z"/>
	<path fill="#FFFFFF" d="M823.5,69.5c0,4.004-3.246,7.25-7.25,7.25h-93c-4.004,0-7.25-3.246-7.25-7.25l0,0
		c0-4.004,3.246-7.25,7.25-7.25h93C820.254,62.25,823.5,65.496,823.5,69.5L823.5,69.5z"/>
	<path fill="#FFFFFF" d="M823.5,90c0,4.004-3.246,7.25-7.25,7.25h-93c-4.004,0-7.25-3.246-7.25-7.25l0,0
		c0-4.004,3.246-7.25,7.25-7.25h93C820.254,82.75,823.5,85.996,823.5,90L823.5,90z"/>
	<path fill="#FFFFFF" d="M823.5,110c0,4.004-3.246,7.25-7.25,7.25h-93c-4.004,0-7.25-3.246-7.25-7.25l0,0
		c0-4.004,3.246-7.25,7.25-7.25h93C820.254,102.75,823.5,105.996,823.5,110L823.5,110z"/>
	<path fill="#FFFFFF" d="M823.5,130.5c0,4.004-3.246,7.25-7.25,7.25h-93c-4.004,0-7.25-3.246-7.25-7.25l0,0
		c0-4.004,3.246-7.25,7.25-7.25h93C820.254,123.25,823.5,126.496,823.5,130.5L823.5,130.5z"/>
	<path fill="#FFFFFF" d="M823.5,198.25c0,6.627-5.373,12-12,12H615c-6.627,0-12-5.373-12-12v-33c0-6.627,5.373-12,12-12h196.5
		c6.627,0,12,5.373,12,12V198.25z"/>
	<path fill="#1D71B8" d="M841,445.75c0,6.627-5.373,12-12,12H599c-6.627,0-12-5.373-12-12v-186.5c0-6.627,5.373-12,12-12h230
		c6.627,0,12,5.373,12,12V445.75z"/>
	<path fill="#009FE3" d="M837,442.25c0,6.627-5.373,12-12,12H603c-6.627,0-12-5.373-12-12v-180c0-6.627,5.373-12,12-12h222
		c6.627,0,12,5.373,12,12V442.25z"/>
	<path fill="#FFFFFF" d="M708,363.75c0,6.627-5.373,12-12,12h-81c-6.627,0-12-5.373-12-12v-86c0-6.627,5.373-12,12-12h81
		c6.627,0,12,5.373,12,12V363.75z"/>
	<path fill="#FFFFFF" d="M823.5,279.5c0,4.004-3.246,7.25-7.25,7.25h-93c-4.004,0-7.25-3.246-7.25-7.25l0,0
		c0-4.004,3.246-7.25,7.25-7.25h93C820.254,272.25,823.5,275.496,823.5,279.5L823.5,279.5z"/>
	<path fill="#FFFFFF" d="M823.5,300.5c0,4.004-3.246,7.25-7.25,7.25h-93c-4.004,0-7.25-3.246-7.25-7.25l0,0
		c0-4.004,3.246-7.25,7.25-7.25h93C820.254,293.25,823.5,296.496,823.5,300.5L823.5,300.5z"/>
	<path fill="#FFFFFF" d="M823.5,321c0,4.004-3.246,7.25-7.25,7.25h-93c-4.004,0-7.25-3.246-7.25-7.25l0,0
		c0-4.004,3.246-7.25,7.25-7.25h93C820.254,313.75,823.5,316.996,823.5,321L823.5,321z"/>
	<path fill="#FFFFFF" d="M823.5,341c0,4.004-3.246,7.25-7.25,7.25h-93c-4.004,0-7.25-3.246-7.25-7.25l0,0
		c0-4.004,3.246-7.25,7.25-7.25h93C820.254,333.75,823.5,336.996,823.5,341L823.5,341z"/>
	<path fill="#FFFFFF" d="M823.5,361.5c0,4.004-3.246,7.25-7.25,7.25h-93c-4.004,0-7.25-3.246-7.25-7.25l0,0
		c0-4.004,3.246-7.25,7.25-7.25h93C820.254,354.25,823.5,357.496,823.5,361.5L823.5,361.5z"/>
	<path fill="#FFFFFF" d="M823.5,429.25c0,6.627-5.373,12-12,12H615c-6.627,0-12-5.373-12-12v-33c0-6.627,5.373-12,12-12h196.5
		c6.627,0,12,5.373,12,12V429.25z"/>
</g>
<g id="Calque_1">
	<path fill="#009FE3" d="M264,209c0,6.627-5.373,12-12,12H30c-6.627,0-12-5.373-12-12V29c0-6.627,5.373-12,12-12h222
		c6.627,0,12,5.373,12,12V209z"/>
	<path fill="#FFFFFF" d="M135,130.5c0,6.627-5.373,12-12,12H42c-6.627,0-12-5.373-12-12v-86c0-6.627,5.373-12,12-12h81
		c6.627,0,12,5.373,12,12V130.5z"/>
	<path fill="#FFFFFF" d="M250.5,46.25c0,4.004-3.246,7.25-7.25,7.25h-93c-4.004,0-7.25-3.246-7.25-7.25l0,0
		c0-4.004,3.246-7.25,7.25-7.25h93C247.254,39,250.5,42.246,250.5,46.25L250.5,46.25z"/>
	<path fill="#FFFFFF" d="M250.5,67.25c0,4.004-3.246,7.25-7.25,7.25h-93c-4.004,0-7.25-3.246-7.25-7.25l0,0
		c0-4.004,3.246-7.25,7.25-7.25h93C247.254,60,250.5,63.246,250.5,67.25L250.5,67.25z"/>
	<path fill="#FFFFFF" d="M250.5,87.75c0,4.004-3.246,7.25-7.25,7.25h-93c-4.004,0-7.25-3.246-7.25-7.25l0,0
		c0-4.004,3.246-7.25,7.25-7.25h93C247.254,80.5,250.5,83.746,250.5,87.75L250.5,87.75z"/>
	<path fill="#FFFFFF" d="M250.5,107.75c0,4.004-3.246,7.25-7.25,7.25h-93c-4.004,0-7.25-3.246-7.25-7.25l0,0
		c0-4.004,3.246-7.25,7.25-7.25h93C247.254,100.5,250.5,103.746,250.5,107.75L250.5,107.75z"/>
	<path fill="#FFFFFF" d="M250.5,128.25c0,4.004-3.246,7.25-7.25,7.25h-93c-4.004,0-7.25-3.246-7.25-7.25l0,0
		c0-4.004,3.246-7.25,7.25-7.25h93C247.254,121,250.5,124.246,250.5,128.25L250.5,128.25z"/>
	<path fill="#FFFFFF" d="M250.5,196c0,6.627-5.373,12-12,12H42c-6.627,0-12-5.373-12-12v-33c0-6.627,5.373-12,12-12h196.5
		c6.627,0,12,5.373,12,12V196z"/>
</g>
</svg>
