<?xml version="1.0" encoding="utf-8"?>
<!-- Generator: Adobe Illustrator 15.0.2, SVG Export Plug-In . SVG Version: 6.00 Build 0)  -->
<!DOCTYPE svg PUBLIC "-//W3C//DTD SVG 1.1//EN" "http://www.w3.org/Graphics/SVG/1.1/DTD/svg11.dtd">
<svg version="1.1" xmlns="http://www.w3.org/2000/svg" xmlns:xlink="http://www.w3.org/1999/xlink" x="0px" y="0px" width="800px"
	 height="600px" viewBox="0 0 800 600" enable-background="new 0 0 800 600" xml:space="preserve">
<g id="Calque_10">
	<rect x="-1" y="1" fill="#D92534" width="801" height="600"/>
</g>
<g id="Calque_9">
	<polygon fill="#F8343D" points="801,427.5 499.5,273 499.5,273 801,77.5 	"/>
	<polygon fill="#F8343D" points="100.986,773.392 -120.12,516.711 -120.12,516.711 232.811,449.166 	"/>
	<polygon fill="#D92534" points="673.293,312.834 673.528,255.758 673.528,255.758 725.881,286.159 	"/>
	<polygon fill="#D92534" points="452.293,347.834 452.528,290.758 452.528,290.758 504.881,321.159 	"/>
</g>
<g id="Calque_12">
</g>
<g id="Calque_11">
</g>
<g id="Calque_1">
	<rect x="175" y="210" fill="#1462A6" width="148" height="148"/>
</g>
<g id="Calque_5">
	<rect x="505" y="370" fill="#011140" width="65" height="64"/>
</g>
<g id="Calque_6">
	<rect x="579" y="370" fill="#022873" width="64" height="64"/>
</g>
<g id="Calque_7">
	<rect x="505" y="442" fill="#1462A6" width="65" height="64"/>
</g>
<g id="Calque_8">
	<rect x="579" y="442" fill="#328ABF" width="64" height="64"/>
</g>
<g id="Calque_2">
	<rect x="339" y="210" fill="#022873" width="304" height="148"/>
</g>
<g id="Calque_13">
	<polygon fill="#F8343D" points="148.901,252.858 148.666,309.935 148.666,309.935 96.313,279.533 	"/>
</g>
<g id="Calque_3">
	<rect x="175" y="370" fill="#011140" width="307" height="136"/>
</g>
<g id="Calque_4">
	<rect x="179.102" y="25.22" fill="none" width="459.322" height="117.797"/>
	<text transform="matrix(1 0 0 1 249.897 50.8521)"><tspan x="0" y="0" fill="#FFFFFF" font-family="'MinionPro-Regular'" font-size="36">Promotion 2014-2015</tspan><tspan x="-37.096" y="43.2" fill="#FFFFFF" font-family="'MinionPro-Regular'" font-size="36">Création et développement </tspan><tspan x="18.199" y="86.4" fill="#FFFFFF" font-family="'MinionPro-Regular'" font-size="36">numérique en ligne</tspan></text>
</g>
</svg>
