<?xml version="1.0" encoding="utf-8"?>
<!-- Generator: Adobe Illustrator 16.0.0, SVG Export Plug-In . SVG Version: 6.00 Build 0)  -->
<!DOCTYPE svg PUBLIC "-//W3C//DTD SVG 1.1//EN" "http://www.w3.org/Graphics/SVG/1.1/DTD/svg11.dtd">
<svg version="1.1" xmlns="http://www.w3.org/2000/svg" xmlns:xlink="http://www.w3.org/1999/xlink" x="0px" y="0px"
	 width="841.89px" height="595.28px" viewBox="0 0 841.89 595.28" enable-background="new 0 0 841.89 595.28" xml:space="preserve">
<g id="Calque_2">
	<rect x="54.797" y="220.621" fill="#F15A29" width="186.486" height="120.945"/>
	<rect x="250.174" y="220.621" fill="#ED1C24" width="120.866" height="205.405"/>
	<rect x="148.04" y="350.08" fill="#EE2A7B" width="93.243" height="176.352"/>
	<rect x="251.174" y="432.513" fill="#F7941E" width="290.785" height="93.919"/>
	<rect x="54.797" y="355.08" fill="#754C29" width="85.406" height="82.433"/>
	<rect x="148.04" y="119.945" fill="#27AAE1" width="225" height="93.919"/>
	<rect x="54.797" y="119.945" fill="#39B54A" width="85.135" height="93.919"/>
	<rect x="381.148" y="220.621" fill="#39B54A" width="160.811" height="205.405"/>
	<rect x="381.148" y="119.945" fill="#92278F" width="76.352" height="93.919"/>
	<rect x="466.283" y="119.945" fill="#C49A6C" width="75.676" height="93.919"/>
	<rect x="54.662" y="443.999" fill="#594A42" width="85.405" height="82.433"/>
	
		<rect x="41.892" y="106.973" fill="none" stroke="#000000" stroke-width="3" stroke-miterlimit="10" width="528.378" height="453.378"/>
	
		<rect x="34.459" y="100.216" fill="none" stroke="#000000" stroke-width="3" stroke-miterlimit="10" width="528.379" height="453.378"/>
	<rect fill="#F7941E" width="841.89" height="63"/>
	<g>
		<path fill="#FFFFFF" d="M62.705,43.209c0,1.301-0.255,2.452-0.765,3.454s-1.216,1.831-2.118,2.487
			c-0.891,0.656-1.869,1.137-2.936,1.441s-2.197,0.457-3.393,0.457h-2.795v7.559c0,0.41,0.067,0.771,0.202,1.081
			s0.413,0.548,0.835,0.712c0.211,0.082,0.583,0.158,1.116,0.229s1.022,0.111,1.468,0.123V62H43.615v-1.248
			c0.281-0.023,0.688-0.064,1.222-0.123s0.905-0.135,1.116-0.229c0.352-0.152,0.606-0.375,0.765-0.668s0.237-0.668,0.237-1.125v-18
			c0-0.41-0.059-0.779-0.176-1.107s-0.393-0.574-0.826-0.738c-0.445-0.152-0.888-0.261-1.327-0.325s-0.817-0.108-1.134-0.132v-1.248
			h11.391c2.32,0,4.204,0.56,5.651,1.679S62.705,41.346,62.705,43.209z M57.361,47.463c0.398-0.563,0.662-1.146,0.791-1.749
			s0.193-1.146,0.193-1.626c0-0.668-0.079-1.348-0.237-2.039s-0.431-1.295-0.817-1.811c-0.41-0.551-0.949-0.979-1.617-1.283
			s-1.5-0.457-2.496-0.457h-2.479V49.52h1.793c1.266,0,2.294-0.196,3.085-0.589S56.962,48.049,57.361,47.463z"/>
		<path fill="#FFFFFF" d="M78.384,46.9c0,0.598-0.146,1.128-0.439,1.591s-0.744,0.694-1.354,0.694c-0.656,0-1.157-0.17-1.503-0.51
			s-0.519-0.715-0.519-1.125c0-0.258,0.021-0.492,0.062-0.703s0.079-0.422,0.114-0.633c-0.551,0-1.195,0.223-1.934,0.668
			s-1.365,1.078-1.881,1.898v10.09c0,0.41,0.079,0.744,0.237,1.002s0.407,0.451,0.747,0.58c0.293,0.117,0.671,0.205,1.134,0.264
			s0.864,0.1,1.204,0.123V62h-9.141v-1.16c0.27-0.023,0.548-0.047,0.835-0.07s0.536-0.07,0.747-0.141
			c0.328-0.105,0.571-0.29,0.729-0.554s0.237-0.606,0.237-1.028V48.342c0-0.363-0.085-0.721-0.255-1.072S67,46.637,66.695,46.426
			c-0.223-0.141-0.486-0.243-0.791-0.308s-0.633-0.108-0.984-0.132v-1.143l5.766-0.387l0.246,0.246v2.443h0.088
			c0.727-0.949,1.535-1.67,2.426-2.162s1.705-0.738,2.443-0.738s1.339,0.24,1.802,0.721S78.384,46.092,78.384,46.9z"/>
		<path fill="#FFFFFF" d="M96.753,53.158c0,1.219-0.193,2.417-0.58,3.595s-0.938,2.177-1.652,2.997
			c-0.809,0.938-1.746,1.635-2.813,2.092s-2.262,0.686-3.586,0.686c-1.102,0-2.15-0.208-3.146-0.624s-1.881-1.022-2.654-1.819
			c-0.762-0.785-1.368-1.743-1.819-2.874s-0.677-2.399-0.677-3.806c0-2.707,0.788-4.922,2.364-6.645s3.642-2.584,6.196-2.584
			c2.426,0,4.427,0.817,6.003,2.452S96.753,50.439,96.753,53.158z M93.115,53.193c0-0.879-0.088-1.808-0.264-2.786
			S92.412,48.6,92.06,47.92c-0.375-0.727-0.867-1.31-1.477-1.749s-1.354-0.659-2.232-0.659c-0.902,0-1.673,0.223-2.312,0.668
			s-1.157,1.055-1.556,1.828c-0.375,0.715-0.639,1.529-0.791,2.443s-0.229,1.799-0.229,2.654c0,1.125,0.091,2.165,0.272,3.12
			s0.472,1.808,0.87,2.558s0.899,1.339,1.503,1.767s1.351,0.642,2.241,0.642c1.465,0,2.625-0.709,3.48-2.127
			S93.115,55.689,93.115,53.193z"/>
		<path fill="#FFFFFF" d="M128.957,62h-8.455v-1.16c0.27-0.023,0.542-0.047,0.817-0.07s0.519-0.07,0.729-0.141
			c0.328-0.105,0.571-0.29,0.729-0.554s0.237-0.606,0.237-1.028V50.1c0-1.219-0.278-2.159-0.835-2.821s-1.251-0.993-2.083-0.993
			c-0.574,0-1.113,0.088-1.617,0.264s-0.967,0.422-1.389,0.738c-0.34,0.258-0.624,0.536-0.853,0.835s-0.401,0.548-0.519,0.747
			v10.002c0,0.41,0.07,0.747,0.211,1.011s0.381,0.466,0.721,0.606c0.27,0.105,0.513,0.185,0.729,0.237s0.501,0.091,0.853,0.114V62
			h-8.279v-1.16c0.27-0.023,0.53-0.047,0.782-0.07s0.483-0.07,0.694-0.141c0.328-0.105,0.571-0.29,0.729-0.554
			s0.237-0.606,0.237-1.028V50.1c0-1.219-0.278-2.159-0.835-2.821s-1.251-0.993-2.083-0.993c-0.574,0-1.113,0.091-1.617,0.272
			s-0.967,0.431-1.389,0.747c-0.34,0.258-0.627,0.548-0.861,0.87s-0.41,0.565-0.527,0.729v9.932c0,0.398,0.082,0.732,0.246,1.002
			s0.41,0.475,0.738,0.615c0.246,0.117,0.498,0.205,0.756,0.264s0.545,0.1,0.861,0.123V62h-8.42v-1.16
			c0.27-0.023,0.548-0.047,0.835-0.07s0.536-0.07,0.747-0.141c0.328-0.105,0.571-0.29,0.729-0.554s0.237-0.606,0.237-1.028V48.271
			c0-0.375-0.085-0.712-0.255-1.011s-0.407-0.554-0.712-0.765c-0.223-0.141-0.498-0.255-0.826-0.343s-0.668-0.144-1.02-0.167v-1.143
			l5.801-0.387l0.246,0.246v2.479h0.123c0.293-0.293,0.65-0.639,1.072-1.037s0.814-0.721,1.178-0.967
			c0.41-0.281,0.923-0.516,1.538-0.703s1.28-0.281,1.995-0.281c1.125,0,2.092,0.302,2.9,0.905s1.389,1.333,1.74,2.188
			c0.422-0.41,0.794-0.771,1.116-1.081s0.747-0.642,1.274-0.993c0.445-0.305,0.97-0.551,1.573-0.738s1.274-0.281,2.013-0.281
			c1.465,0,2.625,0.48,3.48,1.441s1.283,2.438,1.283,4.43v8.807c0,0.41,0.07,0.747,0.211,1.011s0.381,0.466,0.721,0.606
			c0.27,0.105,0.536,0.185,0.8,0.237s0.56,0.091,0.888,0.114V62z"/>
		<path fill="#FFFFFF" d="M147.871,53.158c0,1.219-0.193,2.417-0.58,3.595s-0.938,2.177-1.652,2.997
			c-0.809,0.938-1.746,1.635-2.813,2.092s-2.262,0.686-3.586,0.686c-1.102,0-2.15-0.208-3.146-0.624s-1.881-1.022-2.654-1.819
			c-0.762-0.785-1.368-1.743-1.819-2.874s-0.677-2.399-0.677-3.806c0-2.707,0.788-4.922,2.364-6.645s3.642-2.584,6.196-2.584
			c2.426,0,4.427,0.817,6.003,2.452S147.871,50.439,147.871,53.158z M144.232,53.193c0-0.879-0.088-1.808-0.264-2.786
			s-0.439-1.808-0.791-2.487c-0.375-0.727-0.867-1.31-1.477-1.749s-1.354-0.659-2.232-0.659c-0.902,0-1.673,0.223-2.312,0.668
			s-1.157,1.055-1.556,1.828c-0.375,0.715-0.639,1.529-0.791,2.443s-0.229,1.799-0.229,2.654c0,1.125,0.091,2.165,0.272,3.12
			s0.472,1.808,0.87,2.558s0.899,1.339,1.503,1.767s1.351,0.642,2.241,0.642c1.465,0,2.625-0.709,3.48-2.127
			S144.232,55.689,144.232,53.193z"/>
		<path fill="#FFFFFF" d="M170.511,62.58c-1.488,0-2.915-0.293-4.28-0.879s-2.575-1.43-3.63-2.531
			c-1.043-1.102-1.875-2.446-2.496-4.034s-0.932-3.378-0.932-5.37s0.305-3.8,0.914-5.423s1.453-3.021,2.531-4.192
			c1.066-1.16,2.326-2.057,3.779-2.689s3.006-0.949,4.658-0.949c1.23,0,2.344,0.152,3.34,0.457s1.945,0.732,2.848,1.283l0.721-1.195
			h1.406l0.158,8.895h-1.441c-0.188-0.867-0.469-1.808-0.844-2.821s-0.814-1.872-1.318-2.575c-0.563-0.797-1.23-1.421-2.004-1.872
			s-1.658-0.677-2.654-0.677c-1.137,0-2.194,0.252-3.173,0.756s-1.825,1.248-2.54,2.232c-0.68,0.949-1.213,2.156-1.6,3.621
			s-0.58,3.1-0.58,4.904c0,1.594,0.202,3.056,0.606,4.386s0.981,2.499,1.731,3.507c0.75,0.996,1.638,1.775,2.663,2.338
			s2.171,0.844,3.437,0.844c0.949,0,1.822-0.149,2.619-0.448s1.488-0.694,2.074-1.187c0.586-0.516,1.102-1.102,1.547-1.758
			s0.809-1.371,1.09-2.145l1.318,0.633c-1.008,2.473-2.344,4.239-4.008,5.3S172.808,62.58,170.511,62.58z"/>
		<path fill="#FFFFFF" d="M206.529,49.678c0,2.121-0.398,3.961-1.195,5.52s-1.834,2.836-3.111,3.832
			c-1.289,0.996-2.736,1.74-4.342,2.232S194.617,62,192.906,62H182.57v-1.248c0.34,0,0.782-0.032,1.327-0.097
			s0.905-0.138,1.081-0.22c0.352-0.152,0.606-0.378,0.765-0.677s0.237-0.659,0.237-1.081v-18c0-0.398-0.067-0.756-0.202-1.072
			s-0.401-0.568-0.8-0.756c-0.363-0.176-0.756-0.305-1.178-0.387s-0.785-0.135-1.09-0.158v-1.248h10.898
			c1.5,0,2.977,0.231,4.43,0.694s2.719,1.087,3.797,1.872c1.465,1.043,2.613,2.408,3.445,4.096S206.529,47.393,206.529,49.678z
			 M202.222,49.66c0-1.676-0.223-3.19-0.668-4.544s-1.096-2.534-1.951-3.542c-0.809-0.961-1.802-1.717-2.979-2.268
			s-2.487-0.826-3.929-0.826c-0.48,0-1.022,0.009-1.626,0.026s-1.052,0.032-1.345,0.044v19.178c0,1.066,0.311,1.805,0.932,2.215
			s1.576,0.615,2.865,0.615c1.488,0,2.789-0.264,3.902-0.791s2.016-1.26,2.707-2.197c0.727-0.984,1.257-2.124,1.591-3.419
			S202.222,51.359,202.222,49.66z"/>
		<path fill="#FFFFFF" d="M235.199,38.305c-0.328,0.012-0.832,0.105-1.512,0.281s-1.166,0.357-1.459,0.545
			c-0.422,0.293-0.706,0.855-0.853,1.688s-0.22,1.887-0.22,3.164v18.264h-1.529l-15.117-20.408v12.867
			c0,1.441,0.091,2.549,0.272,3.322s0.46,1.324,0.835,1.652c0.27,0.258,0.826,0.498,1.67,0.721s1.4,0.34,1.67,0.352V62h-10.23
			v-1.248c0.316-0.023,0.85-0.138,1.6-0.343s1.219-0.39,1.406-0.554c0.41-0.328,0.691-0.829,0.844-1.503s0.229-1.825,0.229-3.454
			V42.611c0-0.539-0.094-1.078-0.281-1.617s-0.439-0.955-0.756-1.248c-0.422-0.387-0.993-0.718-1.714-0.993
			s-1.304-0.425-1.749-0.448v-1.248h7.119l14.027,19.02V44.211c0-1.453-0.094-2.569-0.281-3.349s-0.457-1.298-0.809-1.556
			c-0.328-0.223-0.864-0.439-1.608-0.65s-1.31-0.328-1.696-0.352v-1.248h10.143V38.305z"/>
		<path fill="#FFFFFF" d="M257.242,54.582L256.714,62H237.22v-1.248c0.281-0.023,0.688-0.064,1.222-0.123s0.905-0.135,1.116-0.229
			c0.352-0.152,0.606-0.375,0.765-0.668s0.237-0.668,0.237-1.125V40.748c0-0.398-0.067-0.75-0.202-1.055s-0.401-0.551-0.8-0.738
			c-0.27-0.141-0.647-0.278-1.134-0.413s-0.888-0.214-1.204-0.237v-1.248h10.529v1.248c-0.328,0.012-0.753,0.07-1.274,0.176
			s-0.899,0.199-1.134,0.281c-0.398,0.141-0.671,0.381-0.817,0.721s-0.22,0.703-0.22,1.09v16.752c0,0.773,0.038,1.374,0.114,1.802
			s0.255,0.759,0.536,0.993c0.27,0.211,0.671,0.349,1.204,0.413s1.28,0.097,2.241,0.097c0.434,0,0.885-0.012,1.354-0.035
			s0.914-0.07,1.336-0.141c0.41-0.07,0.788-0.167,1.134-0.29s0.601-0.278,0.765-0.466c0.48-0.539,1.04-1.356,1.679-2.452
			s1.081-1.983,1.327-2.663H257.242z"/>
	</g>
	<g>
		<path fill="#FFFFFF" d="M626.404,57h-16.471v-2.391c0.316-0.363,0.756-0.771,1.318-1.222s1.23-0.94,2.004-1.468
			c0.469-0.316,1.031-0.662,1.688-1.037s1.4-0.785,2.232-1.23c0.926-0.492,1.638-0.926,2.136-1.301s0.952-0.838,1.362-1.389
			c0.27-0.363,0.486-0.817,0.65-1.362s0.246-1.321,0.246-2.329c0-1.465-0.393-2.54-1.178-3.226s-1.793-1.028-3.023-1.028
			c-0.762,0-1.482,0.149-2.162,0.448s-1.189,0.712-1.529,1.239c0.082,0.375,0.185,0.82,0.308,1.336s0.185,1.02,0.185,1.512
			c0,0.445-0.185,0.841-0.554,1.187s-0.917,0.519-1.644,0.519c-0.586,0-1.037-0.202-1.354-0.606s-0.475-0.946-0.475-1.626
			c0-0.633,0.176-1.269,0.527-1.907s0.855-1.228,1.512-1.767c0.645-0.527,1.441-0.955,2.391-1.283s1.975-0.492,3.076-0.492
			c2.402,0,4.31,0.536,5.722,1.608s2.118,2.505,2.118,4.298c0,0.855-0.126,1.635-0.378,2.338s-0.659,1.324-1.222,1.863
			c-0.621,0.598-1.348,1.11-2.18,1.538s-2.104,1.022-3.814,1.784c-1.02,0.457-1.969,0.935-2.848,1.433s-1.6,0.981-2.162,1.45h13.518
			V57z"/>
		<path fill="#FFFFFF" d="M646.162,40.582c0.75,0.902,1.31,1.96,1.679,3.173s0.554,2.481,0.554,3.806
			c0,1.594-0.229,3.021-0.686,4.28s-1.084,2.306-1.881,3.138c-0.82,0.855-1.793,1.5-2.918,1.934s-2.379,0.65-3.762,0.65
			c-1.512,0-2.859-0.252-4.043-0.756s-2.145-1.195-2.883-2.074c-0.773-0.914-1.351-1.983-1.731-3.208s-0.571-2.546-0.571-3.964
			c0-1.395,0.185-2.678,0.554-3.85s0.946-2.232,1.731-3.182c0.75-0.914,1.717-1.635,2.9-2.162s2.537-0.791,4.061-0.791
			c1.605,0,2.982,0.27,4.131,0.809S645.4,39.656,646.162,40.582z M644.51,47.561c0-2.789-0.478-4.951-1.433-6.486
			s-2.253-2.303-3.894-2.303c-1.664,0-2.977,0.768-3.938,2.303s-1.441,3.697-1.441,6.486c0,2.648,0.46,4.778,1.38,6.39
			s2.241,2.417,3.964,2.417s3.047-0.806,3.973-2.417S644.51,50.209,644.51,47.561z"/>
		<path fill="#FFFFFF" d="M664.426,57h-11.848v-1.248c0.352-0.023,0.899-0.073,1.644-0.149s1.257-0.155,1.538-0.237
			c0.363-0.117,0.642-0.308,0.835-0.571s0.29-0.659,0.29-1.187v-12.34h-4.377v-1.477h0.967c1.266,0,2.399-0.234,3.401-0.703
			s1.72-0.973,2.153-1.512h1.459c-0.035,0.762-0.07,1.652-0.105,2.672s-0.053,1.934-0.053,2.742v10.424
			c0,0.41,0.091,0.776,0.272,1.099s0.442,0.56,0.782,0.712c0.305,0.129,0.803,0.246,1.494,0.352s1.207,0.164,1.547,0.176V57z"/>
		<path fill="#FFFFFF" d="M684.729,55.418h-3.568v7.998h-3.375v-7.998h-11.25v-2.707l12.322-15.029h2.303v15.434h3.568V55.418z
			 M677.785,53.115V41.602l-9.492,11.514H677.785z"/>
		<path fill="#FFFFFF" d="M697.982,48.826h-10.477v-2.76h10.477V48.826z"/>
		<path fill="#FFFFFF" d="M717.881,57H701.41v-2.391c0.316-0.363,0.756-0.771,1.318-1.222s1.23-0.94,2.004-1.468
			c0.469-0.316,1.031-0.662,1.688-1.037s1.4-0.785,2.232-1.23c0.926-0.492,1.638-0.926,2.136-1.301s0.952-0.838,1.362-1.389
			c0.27-0.363,0.486-0.817,0.65-1.362s0.246-1.321,0.246-2.329c0-1.465-0.393-2.54-1.178-3.226s-1.793-1.028-3.023-1.028
			c-0.762,0-1.482,0.149-2.162,0.448s-1.189,0.712-1.529,1.239c0.082,0.375,0.185,0.82,0.308,1.336s0.185,1.02,0.185,1.512
			c0,0.445-0.185,0.841-0.554,1.187s-0.917,0.519-1.644,0.519c-0.586,0-1.037-0.202-1.354-0.606s-0.475-0.946-0.475-1.626
			c0-0.633,0.176-1.269,0.527-1.907s0.855-1.228,1.512-1.767c0.645-0.527,1.441-0.955,2.391-1.283s1.975-0.492,3.076-0.492
			c2.402,0,4.31,0.536,5.722,1.608s2.118,2.505,2.118,4.298c0,0.855-0.126,1.635-0.378,2.338s-0.659,1.324-1.222,1.863
			c-0.621,0.598-1.348,1.11-2.18,1.538s-2.104,1.022-3.814,1.784c-1.02,0.457-1.969,0.935-2.848,1.433s-1.6,0.981-2.162,1.45h13.518
			V57z"/>
		<path fill="#FFFFFF" d="M737.639,40.582c0.75,0.902,1.31,1.96,1.679,3.173s0.554,2.481,0.554,3.806
			c0,1.594-0.229,3.021-0.686,4.28s-1.084,2.306-1.881,3.138c-0.82,0.855-1.793,1.5-2.918,1.934s-2.379,0.65-3.762,0.65
			c-1.512,0-2.859-0.252-4.043-0.756s-2.145-1.195-2.883-2.074c-0.773-0.914-1.351-1.983-1.731-3.208s-0.571-2.546-0.571-3.964
			c0-1.395,0.185-2.678,0.554-3.85s0.946-2.232,1.731-3.182c0.75-0.914,1.717-1.635,2.9-2.162s2.537-0.791,4.061-0.791
			c1.605,0,2.982,0.27,4.131,0.809S736.877,39.656,737.639,40.582z M735.986,47.561c0-2.789-0.478-4.951-1.433-6.486
			s-2.253-2.303-3.894-2.303c-1.664,0-2.977,0.768-3.938,2.303s-1.441,3.697-1.441,6.486c0,2.648,0.46,4.778,1.38,6.39
			s2.241,2.417,3.964,2.417s3.047-0.806,3.973-2.417S735.986,50.209,735.986,47.561z"/>
		<path fill="#FFFFFF" d="M755.902,57h-11.848v-1.248c0.352-0.023,0.899-0.073,1.644-0.149s1.257-0.155,1.538-0.237
			c0.363-0.117,0.642-0.308,0.835-0.571s0.29-0.659,0.29-1.187v-12.34h-4.377v-1.477h0.967c1.266,0,2.399-0.234,3.401-0.703
			s1.72-0.973,2.153-1.512h1.459c-0.035,0.762-0.07,1.652-0.105,2.672s-0.053,1.934-0.053,2.742v10.424
			c0,0.41,0.091,0.776,0.272,1.099s0.442,0.56,0.782,0.712c0.305,0.129,0.803,0.246,1.494,0.352s1.207,0.164,1.547,0.176V57z"/>
		<path fill="#FFFFFF" d="M771.969,48.756c0.773,0.609,1.415,1.395,1.925,2.355s0.765,2.162,0.765,3.604
			c0,2.52-0.861,4.6-2.584,6.24s-3.908,2.461-6.557,2.461c-2.051,0-3.785-0.486-5.203-1.459s-2.127-2.104-2.127-3.393
			c0-0.598,0.146-1.119,0.439-1.564s0.744-0.668,1.354-0.668c0.703,0,1.239,0.185,1.608,0.554s0.554,0.771,0.554,1.204
			c0,0.375-0.064,0.844-0.193,1.406s-0.229,0.979-0.299,1.248c0.094,0.082,0.246,0.193,0.457,0.334s0.463,0.275,0.756,0.404
			c0.305,0.129,0.677,0.243,1.116,0.343s0.952,0.149,1.538,0.149c0.75,0,1.459-0.152,2.127-0.457s1.23-0.756,1.688-1.354
			c0.504-0.656,0.882-1.403,1.134-2.241s0.378-1.901,0.378-3.19c0-1.652-0.46-3.021-1.38-4.104s-2.13-1.626-3.63-1.626
			c-0.938,0-1.813,0.176-2.628,0.527s-1.544,0.938-2.188,1.758l-1.178-0.457l1.494-12.691h12.586v3.129h-11.162l-0.914,7.453
			c0.527-0.375,1.222-0.747,2.083-1.116s1.808-0.554,2.839-0.554c0.855,0,1.743,0.132,2.663,0.396S771.195,48.146,771.969,48.756z"
			/>
	</g>
	<rect x="586" y="134.851" onclick="infos" fill="#F15A29" width="242" height="158.027"/>
	<g>
		<path d="M658.145,121.473h-7.488v-0.832c0.211-0.016,0.516-0.039,0.914-0.07s0.68-0.078,0.844-0.141
			c0.258-0.102,0.445-0.24,0.563-0.416s0.176-0.42,0.176-0.732v-12.047c0-0.273-0.043-0.502-0.129-0.686s-0.289-0.338-0.609-0.463
			c-0.234-0.094-0.529-0.182-0.885-0.264s-0.646-0.131-0.873-0.146v-0.832h7.488v0.832c-0.242,0.008-0.531,0.037-0.867,0.088
			s-0.629,0.115-0.879,0.193c-0.297,0.094-0.496,0.246-0.598,0.457s-0.152,0.445-0.152,0.703v12.035c0,0.258,0.057,0.486,0.17,0.686
			s0.307,0.357,0.58,0.475c0.164,0.063,0.432,0.131,0.803,0.205s0.686,0.115,0.943,0.123V121.473z"/>
		<path d="M672.688,121.473h-5.66v-0.773c0.18-0.016,0.377-0.031,0.592-0.047s0.393-0.047,0.533-0.094
			c0.219-0.07,0.381-0.193,0.486-0.369s0.158-0.404,0.158-0.686v-5.941c0-0.82-0.193-1.453-0.58-1.898s-0.857-0.668-1.412-0.668
			c-0.414,0-0.793,0.064-1.137,0.193s-0.648,0.287-0.914,0.475c-0.258,0.18-0.463,0.373-0.615,0.58s-0.264,0.373-0.334,0.498v6.645
			c0,0.266,0.055,0.484,0.164,0.656s0.273,0.305,0.492,0.398c0.164,0.078,0.342,0.137,0.533,0.176s0.389,0.066,0.592,0.082v0.773
			h-5.66v-0.773c0.18-0.016,0.365-0.031,0.557-0.047s0.357-0.047,0.498-0.094c0.219-0.07,0.381-0.193,0.486-0.369
			s0.158-0.404,0.158-0.686v-7.137c0-0.266-0.057-0.51-0.17-0.732s-0.271-0.404-0.475-0.545c-0.148-0.094-0.324-0.162-0.527-0.205
			s-0.422-0.072-0.656-0.088v-0.762l3.844-0.258l0.164,0.164v1.629h0.059c0.188-0.188,0.422-0.412,0.703-0.674
			s0.547-0.475,0.797-0.639c0.289-0.188,0.633-0.344,1.031-0.469s0.848-0.188,1.348-0.188c1.109,0,1.932,0.346,2.467,1.037
			s0.803,1.611,0.803,2.76v6.012c0,0.273,0.047,0.494,0.141,0.662s0.254,0.299,0.48,0.393c0.188,0.078,0.35,0.133,0.486,0.164
			s0.326,0.055,0.568,0.07V121.473z"/>
		<path d="M682.707,104.727c0,0.352-0.094,0.648-0.281,0.891s-0.473,0.363-0.855,0.363c-0.242,0-0.455-0.051-0.639-0.152
			s-0.354-0.238-0.51-0.41s-0.301-0.367-0.434-0.586s-0.246-0.395-0.34-0.527c-0.523,0.023-0.928,0.389-1.213,1.096
			s-0.428,1.834-0.428,3.381v1.184h2.977v1.125h-2.977v8.297c0,0.273,0.053,0.496,0.158,0.668s0.271,0.301,0.498,0.387
			c0.188,0.07,0.438,0.127,0.75,0.17s0.582,0.072,0.809,0.088v0.773h-6.094v-0.773c0.18-0.016,0.365-0.031,0.557-0.047
			s0.357-0.047,0.498-0.094c0.219-0.07,0.381-0.193,0.486-0.369s0.158-0.404,0.158-0.686v-8.414h-2.285v-1.125h2.285v-0.738
			c0-1.758,0.455-3.182,1.365-4.271s2.049-1.635,3.416-1.635c0.695,0,1.219,0.137,1.57,0.41S682.707,104.336,682.707,104.727z"/>
		<path d="M693.172,115.578c0,0.813-0.129,1.611-0.387,2.396s-0.625,1.451-1.102,1.998c-0.539,0.625-1.164,1.09-1.875,1.395
			s-1.508,0.457-2.391,0.457c-0.734,0-1.434-0.139-2.098-0.416s-1.254-0.682-1.77-1.213c-0.508-0.523-0.912-1.162-1.213-1.916
			s-0.451-1.6-0.451-2.537c0-1.805,0.525-3.281,1.576-4.43s2.428-1.723,4.131-1.723c1.617,0,2.951,0.545,4.002,1.635
			S693.172,113.766,693.172,115.578z M690.746,115.602c0-0.586-0.059-1.205-0.176-1.857s-0.293-1.205-0.527-1.658
			c-0.25-0.484-0.578-0.873-0.984-1.166s-0.902-0.439-1.488-0.439c-0.602,0-1.115,0.148-1.541,0.445s-0.771,0.703-1.037,1.219
			c-0.25,0.477-0.426,1.02-0.527,1.629s-0.152,1.199-0.152,1.77c0,0.75,0.061,1.443,0.182,2.08s0.314,1.205,0.58,1.705
			s0.6,0.893,1.002,1.178s0.9,0.428,1.494,0.428c0.977,0,1.75-0.473,2.32-1.418S690.746,117.266,690.746,115.602z"/>
		<path d="M703.695,111.406c0,0.398-0.098,0.752-0.293,1.061s-0.496,0.463-0.902,0.463c-0.438,0-0.771-0.113-1.002-0.34
			s-0.346-0.477-0.346-0.75c0-0.172,0.014-0.328,0.041-0.469s0.053-0.281,0.076-0.422c-0.367,0-0.797,0.148-1.289,0.445
			s-0.91,0.719-1.254,1.266v6.727c0,0.273,0.053,0.496,0.158,0.668s0.271,0.301,0.498,0.387c0.195,0.078,0.447,0.137,0.756,0.176
			s0.576,0.066,0.803,0.082v0.773h-6.094v-0.773c0.18-0.016,0.365-0.031,0.557-0.047s0.357-0.047,0.498-0.094
			c0.219-0.07,0.381-0.193,0.486-0.369s0.158-0.404,0.158-0.686v-7.137c0-0.242-0.057-0.48-0.17-0.715s-0.271-0.422-0.475-0.563
			c-0.148-0.094-0.324-0.162-0.527-0.205s-0.422-0.072-0.656-0.088v-0.762l3.844-0.258l0.164,0.164v1.629h0.059
			c0.484-0.633,1.023-1.113,1.617-1.441s1.137-0.492,1.629-0.492s0.893,0.16,1.201,0.48S703.695,110.867,703.695,111.406z"/>
		<path d="M724.473,121.473h-5.637v-0.773c0.18-0.016,0.361-0.031,0.545-0.047s0.346-0.047,0.486-0.094
			c0.219-0.07,0.381-0.193,0.486-0.369s0.158-0.404,0.158-0.686v-5.965c0-0.813-0.186-1.439-0.557-1.881s-0.834-0.662-1.389-0.662
			c-0.383,0-0.742,0.059-1.078,0.176s-0.645,0.281-0.926,0.492c-0.227,0.172-0.416,0.357-0.568,0.557s-0.268,0.365-0.346,0.498
			v6.668c0,0.273,0.047,0.498,0.141,0.674s0.254,0.311,0.48,0.404c0.18,0.07,0.342,0.123,0.486,0.158s0.334,0.061,0.568,0.076v0.773
			h-5.52v-0.773c0.18-0.016,0.354-0.031,0.521-0.047s0.322-0.047,0.463-0.094c0.219-0.07,0.381-0.193,0.486-0.369
			s0.158-0.404,0.158-0.686v-5.965c0-0.813-0.186-1.439-0.557-1.881s-0.834-0.662-1.389-0.662c-0.383,0-0.742,0.061-1.078,0.182
			s-0.645,0.287-0.926,0.498c-0.227,0.172-0.418,0.365-0.574,0.58s-0.273,0.377-0.352,0.486v6.621c0,0.266,0.055,0.488,0.164,0.668
			s0.273,0.316,0.492,0.41c0.164,0.078,0.332,0.137,0.504,0.176s0.363,0.066,0.574,0.082v0.773h-5.613v-0.773
			c0.18-0.016,0.365-0.031,0.557-0.047s0.357-0.047,0.498-0.094c0.219-0.07,0.381-0.193,0.486-0.369s0.158-0.404,0.158-0.686v-7.184
			c0-0.25-0.057-0.475-0.17-0.674s-0.271-0.369-0.475-0.51c-0.148-0.094-0.332-0.17-0.551-0.229s-0.445-0.096-0.68-0.111v-0.762
			l3.867-0.258l0.164,0.164v1.652h0.082c0.195-0.195,0.434-0.426,0.715-0.691s0.543-0.48,0.785-0.645
			c0.273-0.188,0.615-0.344,1.025-0.469s0.854-0.188,1.33-0.188c0.75,0,1.395,0.201,1.934,0.604s0.926,0.889,1.16,1.459
			c0.281-0.273,0.529-0.514,0.744-0.721s0.498-0.428,0.85-0.662c0.297-0.203,0.646-0.367,1.049-0.492s0.85-0.188,1.342-0.188
			c0.977,0,1.75,0.32,2.32,0.961s0.855,1.625,0.855,2.953v5.871c0,0.273,0.047,0.498,0.141,0.674s0.254,0.311,0.48,0.404
			c0.18,0.07,0.357,0.123,0.533,0.158s0.373,0.061,0.592,0.076V121.473z"/>
		<path d="M736.766,121.262c-0.367,0.133-0.689,0.24-0.967,0.322s-0.592,0.123-0.943,0.123c-0.609,0-1.096-0.143-1.459-0.428
			s-0.596-0.701-0.697-1.248h-0.07c-0.508,0.563-1.053,0.992-1.635,1.289s-1.283,0.445-2.104,0.445c-0.867,0-1.58-0.266-2.139-0.797
			s-0.838-1.227-0.838-2.086c0-0.445,0.063-0.844,0.188-1.195s0.313-0.668,0.563-0.949c0.195-0.234,0.453-0.443,0.773-0.627
			s0.621-0.33,0.902-0.439c0.352-0.133,1.064-0.379,2.139-0.738s1.799-0.641,2.174-0.844v-1.16c0-0.102-0.021-0.297-0.064-0.586
			s-0.135-0.563-0.275-0.82c-0.156-0.289-0.377-0.541-0.662-0.756s-0.689-0.322-1.213-0.322c-0.359,0-0.693,0.061-1.002,0.182
			s-0.525,0.248-0.65,0.381c0,0.156,0.037,0.387,0.111,0.691s0.111,0.586,0.111,0.844c0,0.273-0.123,0.523-0.369,0.75
			s-0.588,0.34-1.025,0.34c-0.391,0-0.678-0.139-0.861-0.416s-0.275-0.588-0.275-0.932c0-0.359,0.127-0.703,0.381-1.031
			s0.584-0.621,0.99-0.879c0.352-0.219,0.777-0.404,1.277-0.557s0.988-0.229,1.465-0.229c0.656,0,1.229,0.045,1.717,0.135
			s0.932,0.283,1.33,0.58c0.398,0.289,0.701,0.682,0.908,1.178s0.311,1.135,0.311,1.916c0,1.117-0.012,2.107-0.035,2.971
			s-0.035,1.807-0.035,2.83c0,0.305,0.053,0.547,0.158,0.727s0.268,0.332,0.486,0.457c0.117,0.07,0.303,0.109,0.557,0.117
			s0.514,0.012,0.779,0.012V121.262z M732.676,115.074c-0.664,0.195-1.246,0.387-1.746,0.574s-0.965,0.422-1.395,0.703
			c-0.391,0.266-0.699,0.58-0.926,0.943s-0.34,0.795-0.34,1.295c0,0.648,0.17,1.125,0.51,1.43s0.771,0.457,1.295,0.457
			c0.555,0,1.043-0.135,1.465-0.404s0.777-0.588,1.066-0.955L732.676,115.074z"/>
		<path d="M745.051,120.969c-0.508,0.211-0.988,0.389-1.441,0.533s-1.008,0.217-1.664,0.217c-0.969,0-1.65-0.244-2.045-0.732
			s-0.592-1.178-0.592-2.068v-7.828h-2.086v-1.125h2.133v-3.598h2.133v3.598h3.316v1.125h-3.293v6.457
			c0,0.484,0.018,0.889,0.053,1.213s0.119,0.607,0.252,0.85c0.125,0.227,0.313,0.398,0.563,0.516s0.586,0.176,1.008,0.176
			c0.195,0,0.482-0.018,0.861-0.053s0.646-0.08,0.803-0.135V120.969z"/>
		<path d="M751.813,121.473h-5.59v-0.773c0.18-0.016,0.365-0.031,0.557-0.047s0.357-0.047,0.498-0.094
			c0.219-0.07,0.381-0.193,0.486-0.369s0.158-0.404,0.158-0.686v-7.137c0-0.25-0.057-0.479-0.17-0.686s-0.271-0.381-0.475-0.521
			c-0.148-0.094-0.363-0.174-0.645-0.24s-0.539-0.107-0.773-0.123v-0.762l4.078-0.258l0.164,0.164v9.422
			c0,0.273,0.053,0.5,0.158,0.68s0.271,0.313,0.498,0.398c0.172,0.07,0.34,0.127,0.504,0.17s0.348,0.072,0.551,0.088V121.473z
			 M750.336,105.219c0,0.445-0.146,0.834-0.439,1.166s-0.654,0.498-1.084,0.498c-0.398,0-0.744-0.158-1.037-0.475
			s-0.439-0.678-0.439-1.084c0-0.43,0.146-0.805,0.439-1.125s0.639-0.48,1.037-0.48c0.445,0,0.811,0.15,1.096,0.451
			S750.336,104.82,750.336,105.219z"/>
		<path d="M764.492,115.578c0,0.813-0.129,1.611-0.387,2.396s-0.625,1.451-1.102,1.998c-0.539,0.625-1.164,1.09-1.875,1.395
			s-1.508,0.457-2.391,0.457c-0.734,0-1.434-0.139-2.098-0.416s-1.254-0.682-1.77-1.213c-0.508-0.523-0.912-1.162-1.213-1.916
			s-0.451-1.6-0.451-2.537c0-1.805,0.525-3.281,1.576-4.43s2.428-1.723,4.131-1.723c1.617,0,2.951,0.545,4.002,1.635
			S764.492,113.766,764.492,115.578z M762.066,115.602c0-0.586-0.059-1.205-0.176-1.857s-0.293-1.205-0.527-1.658
			c-0.25-0.484-0.578-0.873-0.984-1.166s-0.902-0.439-1.488-0.439c-0.602,0-1.115,0.148-1.541,0.445s-0.771,0.703-1.037,1.219
			c-0.25,0.477-0.426,1.02-0.527,1.629s-0.152,1.199-0.152,1.77c0,0.75,0.061,1.443,0.182,2.08s0.314,1.205,0.58,1.705
			s0.6,0.893,1.002,1.178s0.9,0.428,1.494,0.428c0.977,0,1.75-0.473,2.32-1.418S762.066,117.266,762.066,115.602z"/>
		<path d="M778.93,121.473h-5.66v-0.773c0.18-0.016,0.377-0.031,0.592-0.047s0.393-0.047,0.533-0.094
			c0.219-0.07,0.381-0.193,0.486-0.369s0.158-0.404,0.158-0.686v-5.941c0-0.82-0.193-1.453-0.58-1.898s-0.857-0.668-1.412-0.668
			c-0.414,0-0.793,0.064-1.137,0.193s-0.648,0.287-0.914,0.475c-0.258,0.18-0.463,0.373-0.615,0.58s-0.264,0.373-0.334,0.498v6.645
			c0,0.266,0.055,0.484,0.164,0.656s0.273,0.305,0.492,0.398c0.164,0.078,0.342,0.137,0.533,0.176s0.389,0.066,0.592,0.082v0.773
			h-5.66v-0.773c0.18-0.016,0.365-0.031,0.557-0.047s0.357-0.047,0.498-0.094c0.219-0.07,0.381-0.193,0.486-0.369
			s0.158-0.404,0.158-0.686v-7.137c0-0.266-0.057-0.51-0.17-0.732s-0.271-0.404-0.475-0.545c-0.148-0.094-0.324-0.162-0.527-0.205
			s-0.422-0.072-0.656-0.088v-0.762l3.844-0.258l0.164,0.164v1.629h0.059c0.188-0.188,0.422-0.412,0.703-0.674
			s0.547-0.475,0.797-0.639c0.289-0.188,0.633-0.344,1.031-0.469s0.848-0.188,1.348-0.188c1.109,0,1.932,0.346,2.467,1.037
			s0.803,1.611,0.803,2.76v6.012c0,0.273,0.047,0.494,0.141,0.662s0.254,0.299,0.48,0.393c0.188,0.078,0.35,0.133,0.486,0.164
			s0.326,0.055,0.568,0.07V121.473z"/>
	</g>
	<g>
		<path d="M688.875,310.473c0,0.867-0.17,1.635-0.51,2.303s-0.811,1.221-1.412,1.658c-0.594,0.438-1.246,0.758-1.957,0.961
			s-1.465,0.305-2.262,0.305h-1.863v5.039c0,0.273,0.045,0.514,0.135,0.721s0.275,0.365,0.557,0.475
			c0.141,0.055,0.389,0.105,0.744,0.152s0.682,0.074,0.979,0.082V323h-7.137v-0.832c0.188-0.016,0.459-0.043,0.814-0.082
			s0.604-0.09,0.744-0.152c0.234-0.102,0.404-0.25,0.51-0.445s0.158-0.445,0.158-0.75v-12c0-0.273-0.039-0.52-0.117-0.738
			s-0.262-0.383-0.551-0.492c-0.297-0.102-0.592-0.174-0.885-0.217s-0.545-0.072-0.756-0.088v-0.832h7.594
			c1.547,0,2.803,0.373,3.768,1.119S688.875,309.23,688.875,310.473z M685.313,313.309c0.266-0.375,0.441-0.764,0.527-1.166
			s0.129-0.764,0.129-1.084c0-0.445-0.053-0.898-0.158-1.359s-0.287-0.863-0.545-1.207c-0.273-0.367-0.633-0.652-1.078-0.855
			s-1-0.305-1.664-0.305h-1.652v7.348h1.195c0.844,0,1.529-0.131,2.057-0.393S685.047,313.699,685.313,313.309z"/>
		<path d="M699.328,312.934c0,0.398-0.098,0.752-0.293,1.061s-0.496,0.463-0.902,0.463c-0.438,0-0.771-0.113-1.002-0.34
			s-0.346-0.477-0.346-0.75c0-0.172,0.014-0.328,0.041-0.469s0.053-0.281,0.076-0.422c-0.367,0-0.797,0.148-1.289,0.445
			s-0.91,0.719-1.254,1.266v6.727c0,0.273,0.053,0.496,0.158,0.668s0.271,0.301,0.498,0.387c0.195,0.078,0.447,0.137,0.756,0.176
			s0.576,0.066,0.803,0.082V323h-6.094v-0.773c0.18-0.016,0.365-0.031,0.557-0.047s0.357-0.047,0.498-0.094
			c0.219-0.07,0.381-0.193,0.486-0.369s0.158-0.404,0.158-0.686v-7.137c0-0.242-0.057-0.48-0.17-0.715s-0.271-0.422-0.475-0.563
			c-0.148-0.094-0.324-0.162-0.527-0.205s-0.422-0.072-0.656-0.088v-0.762l3.844-0.258l0.164,0.164v1.629h0.059
			c0.484-0.633,1.023-1.113,1.617-1.441s1.137-0.492,1.629-0.492s0.893,0.16,1.201,0.48S699.328,312.395,699.328,312.934z"/>
		<path d="M711.574,317.105c0,0.813-0.129,1.611-0.387,2.396s-0.625,1.451-1.102,1.998c-0.539,0.625-1.164,1.09-1.875,1.395
			s-1.508,0.457-2.391,0.457c-0.734,0-1.434-0.139-2.098-0.416s-1.254-0.682-1.77-1.213c-0.508-0.523-0.912-1.162-1.213-1.916
			s-0.451-1.6-0.451-2.537c0-1.805,0.525-3.281,1.576-4.43s2.428-1.723,4.131-1.723c1.617,0,2.951,0.545,4.002,1.635
			S711.574,315.293,711.574,317.105z M709.148,317.129c0-0.586-0.059-1.205-0.176-1.857s-0.293-1.205-0.527-1.658
			c-0.25-0.484-0.578-0.873-0.984-1.166s-0.902-0.439-1.488-0.439c-0.602,0-1.115,0.148-1.541,0.445s-0.771,0.703-1.037,1.219
			c-0.25,0.477-0.426,1.02-0.527,1.629s-0.152,1.199-0.152,1.77c0,0.75,0.061,1.443,0.182,2.08s0.314,1.205,0.58,1.705
			s0.6,0.893,1.002,1.178s0.9,0.428,1.494,0.428c0.977,0,1.75-0.473,2.32-1.418S709.148,318.793,709.148,317.129z"/>
		<path d="M717.457,322.297c0,0.859-0.125,1.666-0.375,2.42s-0.582,1.377-0.996,1.869c-0.445,0.523-0.947,0.924-1.506,1.201
			s-1.174,0.416-1.846,0.416c-0.695,0-1.219-0.139-1.57-0.416s-0.527-0.604-0.527-0.979c0-0.336,0.094-0.631,0.281-0.885
			s0.461-0.381,0.82-0.381c0.242,0,0.457,0.051,0.645,0.152s0.352,0.234,0.492,0.398c0.125,0.141,0.252,0.314,0.381,0.521
			s0.252,0.408,0.369,0.604c0.594,0,1.018-0.359,1.271-1.078s0.381-1.871,0.381-3.457v-8.695c0-0.25-0.061-0.49-0.182-0.721
			s-0.279-0.416-0.475-0.557c-0.125-0.086-0.424-0.172-0.896-0.258s-0.83-0.141-1.072-0.164v-0.727l4.641-0.258l0.164,0.164V322.297
			z M717.633,306.734c0,0.445-0.146,0.834-0.439,1.166s-0.654,0.498-1.084,0.498c-0.398,0-0.744-0.158-1.037-0.475
			s-0.439-0.678-0.439-1.084c0-0.43,0.146-0.805,0.439-1.125s0.639-0.48,1.037-0.48c0.445,0,0.811,0.15,1.096,0.451
			S717.633,306.336,717.633,306.734z"/>
		<path d="M730.523,320.281c-0.484,0.922-1.133,1.656-1.945,2.203s-1.746,0.82-2.801,0.82c-0.93,0-1.744-0.164-2.443-0.492
			s-1.275-0.773-1.729-1.336s-0.791-1.219-1.014-1.969s-0.334-1.543-0.334-2.379c0-0.75,0.119-1.486,0.357-2.209
			s0.588-1.373,1.049-1.951c0.445-0.555,0.998-1.002,1.658-1.342s1.4-0.51,2.221-0.51c0.844,0,1.566,0.133,2.168,0.398
			s1.09,0.629,1.465,1.09c0.359,0.438,0.627,0.953,0.803,1.547s0.264,1.238,0.264,1.934v0.773h-7.652
			c0,0.758,0.072,1.445,0.217,2.063s0.373,1.16,0.686,1.629c0.305,0.453,0.703,0.811,1.195,1.072s1.078,0.393,1.758,0.393
			c0.695,0,1.295-0.162,1.799-0.486s0.99-0.908,1.459-1.752L730.523,320.281z M727.934,315.875c0-0.438-0.037-0.906-0.111-1.406
			s-0.193-0.918-0.357-1.254c-0.18-0.359-0.426-0.652-0.738-0.879s-0.715-0.34-1.207-0.34c-0.82,0-1.502,0.342-2.045,1.025
			s-0.838,1.635-0.885,2.854H727.934z"/>
		<path d="M738.996,322.496c-0.508,0.211-0.988,0.389-1.441,0.533s-1.008,0.217-1.664,0.217c-0.969,0-1.65-0.244-2.045-0.732
			s-0.592-1.178-0.592-2.068v-7.828h-2.086v-1.125h2.133v-3.598h2.133v3.598h3.316v1.125h-3.293v6.457
			c0,0.484,0.018,0.889,0.053,1.213s0.119,0.607,0.252,0.85c0.125,0.227,0.313,0.398,0.563,0.516s0.586,0.176,1.008,0.176
			c0.195,0,0.482-0.018,0.861-0.053s0.646-0.08,0.803-0.135V322.496z"/>
	</g>
</g>
<g id="Calque_3">
	<rect x="586" y="333.661" onclick="projet" fill="#F15A29" width="242" height="219.933"/>
</g>
</svg>
