<?xml version="1.0" encoding="utf-8"?>
<!-- Generator: Adobe Illustrator 16.0.0, SVG Export Plug-In . SVG Version: 6.00 Build 0)  -->
<!DOCTYPE svg PUBLIC "-//W3C//DTD SVG 1.1//EN" "http://www.w3.org/Graphics/SVG/1.1/DTD/svg11.dtd">
<svg version="1.1" id="Calque_1" xmlns="http://www.w3.org/2000/svg" xmlns:xlink="http://www.w3.org/1999/xlink" x="0px" y="0px"
	 width="800px" height="600px" viewBox="0 0 800 600" enable-background="new 0 0 800 600" xml:space="preserve">
<g id="Background">
	<g id="Calque_3">
		<rect x="2.957" y="1" fill="#E2E2E2" width="797.043" height="189.082"/>
		<rect x="2.957" y="190.082" fill="#141414" width="797.043" height="253.027"/>
	</g>
</g>
<g id="PhotoFull">
	<path fill="#AAC0C1" d="M150.293,422.162V215.165c0-2.131-1.452-3.583-3.583-3.583H41.971c-2.13,0-4.135,1.452-4.135,3.583v206.998
		H150.293z"/>
	<text transform="matrix(1 0 0 1 85.8203 318.6484)" fill="#4C4C4C" font-family="'MyriadPro-Regular'" font-size="42.3684">?</text>
	<rect x="40.042" y="243.555" fill="#E2E2E2" width="107.496" height="175.301"/>
	<rect x="40.042" y="392.945" fill="#383838" width="107.496" height="25.91"/>
	<text transform="matrix(1 0 0 1 62.9614 235.4204)" fill="#475656" font-family="'MyriadPro-Regular'" font-size="23.9798">CDNL</text>
</g>
<g id="Photo">
	<rect x="120.196" y="18.365" fill="#E2E2E2" stroke="#4C4C4C" stroke-miterlimit="10" width="72.767" height="72.767"/>
	<rect x="38.058" y="18.365" fill="#E2E2E2" stroke="#4C4C4C" stroke-miterlimit="10" width="72.767" height="72.767"/>
	<rect x="202.884" y="18.365" fill="#E2E2E2" stroke="#4C4C4C" stroke-miterlimit="10" width="72.215" height="72.767"/>
	<rect x="284.471" y="18.365" fill="#E2E2E2" stroke="#4C4C4C" stroke-miterlimit="10" width="72.766" height="72.767"/>
	<rect x="366.609" y="18.365" fill="#E2E2E2" stroke="#4C4C4C" stroke-miterlimit="10" width="72.764" height="72.767"/>
	<rect x="448.746" y="18.365" fill="#E2E2E2" stroke="#4C4C4C" stroke-miterlimit="10" width="72.216" height="72.767"/>
	<rect x="530.884" y="18.365" fill="#E2E2E2" stroke="#4C4C4C" stroke-miterlimit="10" width="72.767" height="72.767"/>
	<rect x="613.021" y="18.365" fill="#E2E2E2" stroke="#4C4C4C" stroke-miterlimit="10" width="72.767" height="72.767"/>
	<rect x="38.058" y="101.053" fill="#E2E2E2" stroke="#4C4C4C" stroke-miterlimit="10" width="72.767" height="72.767"/>
	<rect x="120.196" y="101.053" fill="#E2E2E2" stroke="#4C4C4C" stroke-miterlimit="10" width="72.767" height="72.767"/>
	<rect x="202.884" y="101.053" fill="#E2E2E2" stroke="#4C4C4C" stroke-miterlimit="10" width="72.215" height="72.767"/>
	<rect x="284.471" y="101.053" fill="#E2E2E2" stroke="#4C4C4C" stroke-miterlimit="10" width="72.766" height="72.767"/>
	<rect x="366.609" y="101.053" fill="#E2E2E2" stroke="#4C4C4C" stroke-miterlimit="10" width="72.764" height="72.767"/>
	<rect x="448.746" y="101.053" fill="#E2E2E2" stroke="#4C4C4C" stroke-miterlimit="10" width="72.216" height="72.767"/>
	<rect x="530.884" y="101.053" fill="#E2E2E2" stroke="#4C4C4C" stroke-miterlimit="10" width="72.767" height="72.767"/>
	<rect x="613.021" y="101.053" fill="#E2E2E2" stroke="#4C4C4C" stroke-miterlimit="10" width="72.767" height="72.767"/>
	<rect x="693.515" y="18.365" fill="#E2E2E2" stroke="#4C4C4C" stroke-miterlimit="10" width="72.768" height="72.767"/>
	<rect x="693.515" y="101.053" fill="#E2E2E2" stroke="#4C4C4C" stroke-miterlimit="10" width="72.768" height="72.767"/>
</g>
<g id="InfoTexte">
	<rect x="183.777" y="213.235" fill="#1D2121" width="182.006" height="93.161"/>
	<rect x="183.777" y="316.32" fill="#1D2121" width="182.006" height="105.291"/>
	<g>
		<text transform="matrix(1.0635 0 0 1 191.2256 225.8545)" fill="#475656" font-family="'MyriadPro-Regular'" font-size="9.2644">PARCOURS : </text>
	</g>
	<g>
		<text transform="matrix(1.0635 0 0 1 191.2256 329.209)" fill="#475656" font-family="'MyriadPro-Regular'" font-size="9.2644">PROJETS : </text>
	</g>
</g>
<g id="InfoGraph">
	<rect x="404.354" y="230.599" fill="#1D2121" width="161.521" height="11.576"/>
	<g>
		<text transform="matrix(1.0635 0 0 1 404.0781 225.8545)" fill="#475656" font-family="'MyriadPro-Regular'" font-size="9.2644">CODE</text>
	</g>
	<rect x="404.354" y="260.368" fill="#1D2121" width="161.521" height="11.576"/>
	<g>
		<text transform="matrix(1.0635 0 0 1 404.0781 255.916)" fill="#475656" font-family="'MyriadPro-Regular'" font-size="9.2644">HTML</text>
	</g>
	<rect x="404.354" y="291.238" fill="#1D2121" width="161.521" height="9.923"/>
	<g>
		<text transform="matrix(1.0635 0 0 1 404.0781 285.9795)" fill="#475656" font-family="'MyriadPro-Regular'" font-size="9.2644">CSS</text>
	</g>
	<rect x="404.354" y="321.006" fill="#1D2121" width="161.521" height="10.475"/>
	<g>
		<text transform="matrix(1.0635 0 0 1 404.0781 316.043)" fill="#475656" font-family="'MyriadPro-Regular'" font-size="9.2644">PHP</text>
	</g>
	<rect x="404.354" y="350.773" fill="#1D2121" width="161.521" height="11.027"/>
	<g>
		<text transform="matrix(1.0635 0 0 1 404.0781 346.1035)" fill="#475656" font-family="'MyriadPro-Regular'" font-size="9.2644">JAVA</text>
	</g>
	<rect x="404.354" y="381.094" fill="#1D2121" width="161.521" height="11.025"/>
	<g>
		<text transform="matrix(1.0635 0 0 1 404.0781 376.168)" fill="#475656" font-family="'MyriadPro-Regular'" font-size="9.2644">JAVASCRIPT</text>
	</g>
	<rect x="404.354" y="410.861" fill="#1D2121" width="161.521" height="11.025"/>
	<g>
		<text transform="matrix(1.0635 0 0 1 404.0781 406.2305)" fill="#475656" font-family="'MyriadPro-Regular'" font-size="9.2644">MYSQL</text>
	</g>
	<rect x="601.293" y="230.599" fill="#1D2121" width="161.52" height="11.576"/>
	<g>
		<text transform="matrix(1.0635 0 0 1 601.0166 225.8545)" fill="#475656" font-family="'MyriadPro-Regular'" font-size="9.2644">GRAPHISME</text>
	</g>
	<rect x="601.293" y="260.368" fill="#1D2121" width="161.52" height="11.576"/>
	<g>
		<text transform="matrix(1.0635 0 0 1 601.0166 255.916)" fill="#475656" font-family="'MyriadPro-Regular'" font-size="9.2644">PHOTOSHOP</text>
	</g>
	<rect x="601.293" y="291.238" fill="#1D2121" width="161.52" height="9.923"/>
	<g>
		<text transform="matrix(1.0635 0 0 1 601.0166 285.9795)" fill="#475656" font-family="'MyriadPro-Regular'" font-size="9.2644">ILLUSTRATOR</text>
	</g>
	<rect x="601.293" y="321.006" fill="#1D2121" width="161.52" height="10.475"/>
	<g>
		<text transform="matrix(1.0635 0 0 1 601.0166 316.043)" fill="#475656" font-family="'MyriadPro-Regular'" font-size="9.2644">INDESIGNE</text>
	</g>
	<rect x="601.293" y="350.773" fill="#1D2121" width="161.52" height="11.027"/>
	<g>
		<text transform="matrix(1.0635 0 0 1 601.0166 346.1035)" fill="#475656" font-family="'MyriadPro-Regular'" font-size="9.2644">PREMIER PRO</text>
	</g>
	<rect x="601.293" y="381.094" fill="#1D2121" width="161.52" height="11.025"/>
	<g>
		<text transform="matrix(1.0635 0 0 1 601.0166 376.168)" fill="#475656" font-family="'MyriadPro-Regular'" font-size="9.2644">AFTER EFFECT</text>
	</g>
	<rect x="601.293" y="410.861" fill="#1D2121" width="161.52" height="11.025"/>
	<g>
		<text transform="matrix(1.0635 0 0 1 601.0166 406.2305)" fill="#475656" font-family="'MyriadPro-Regular'" font-size="9.2644">FLASH BUILDER</text>
	</g>
</g>
</svg>
