<?xml version="1.0" encoding="utf-8"?>
<!-- Generator: Adobe Illustrator 16.0.0, SVG Export Plug-In . SVG Version: 6.00 Build 0)  -->
<!DOCTYPE svg PUBLIC "-//W3C//DTD SVG 1.1//EN" "http://www.w3.org/Graphics/SVG/1.1/DTD/svg11.dtd">
<svg version="1.1" xmlns="http://www.w3.org/2000/svg" xmlns:xlink="http://www.w3.org/1999/xlink" x="0px" y="0px" width="800px"
	 height="600px" viewBox="0 0 800 600" enable-background="new 0 0 800 600" xml:space="preserve">
<pattern  x="0.5" y="600.5" width="176.991" height="176.991" patternUnits="userSpaceOnUse" id="Nouvelle_nuance_de_motif_1" viewBox="0 -176.991 176.991 176.991" overflow="visible">
	<g>
		<polygon fill="none" points="0,0 176.991,0 176.991,-176.991 0,-176.991 		"/>
		<polygon fill="#FDFFC7" points="176.991,0 0,0 0,-176.991 176.991,-176.991 		"/>
		<polygon fill="#E1E4BC" points="2.991,0 0,0 0,-176.991 2.991,-176.991 		"/>
		<polygon fill="#EBF1C0" points="24.43,0 22.561,0 22.561,-176.991 24.43,-176.991 		"/>
		<polygon fill="#EBF1C0" points="69.097,0 67.228,0 67.228,-176.991 69.097,-176.991 		"/>
		<polygon fill="#EBF1C0" points="113.764,0 111.895,0 111.895,-176.991 113.764,-176.991 		"/>
		<polygon fill="#EBF1C0" points="158.431,0 156.562,0 156.562,-176.991 158.431,-176.991 		"/>
		<polygon fill="#EBF1C0" points="176.991,-21.431 176.991,-19.561 0,-19.561 0,-21.431 		"/>
		<polygon fill="#EBF1C0" points="176.991,-66.098 176.991,-64.228 0,-64.228 0,-66.098 		"/>
		<polygon fill="#EBF1C0" points="176.991,-110.765 176.991,-108.895 0,-108.895 0,-110.765 		"/>
		<polygon fill="#EBF1C0" points="176.991,-155.432 176.991,-153.562 0,-153.562 0,-155.432 		"/>
		<polygon fill="#E1E4BC" points="47.657,0 44.667,0 44.667,-176.991 47.657,-176.991 		"/>
		<polygon fill="#E1E4BC" points="92.324,0 89.333,0 89.333,-176.991 92.324,-176.991 		"/>
		<polygon fill="#E1E4BC" points="136.99,0 134,0 134,-176.991 136.99,-176.991 		"/>
		<polygon fill="#E1E4BC" points="0,-174 0,-176.991 176.991,-176.991 176.991,-174 		"/>
		<polygon fill="#E1E4BC" points="0,-129.334 0,-132.324 176.991,-132.324 176.991,-129.334 		"/>
		<polygon fill="#E1E4BC" points="0,-84.667 0,-87.658 176.991,-87.658 176.991,-84.667 		"/>
		<polygon fill="#E1E4BC" points="0,-40.001 0,-42.991 176.991,-42.991 176.991,-40.001 		"/>
	</g>
</pattern>
<g id="Calque_2">
	<rect y="0" opacity="0.5" fill="url(#Nouvelle_nuance_de_motif_1)" width="600.5" height="598.5"/>
	<polygon fill="#111111" points="318.095,566.077 5.11,600 512.085,600 	"/>
	<linearGradient id="SVGID_1_" gradientUnits="userSpaceOnUse" x1="535.3057" y1="548.4739" x2="371.1604" y2="589.5097">
		<stop  offset="0" style="stop-color:#4E4E4E"/>
		<stop  offset="0.0547" style="stop-color:#474747"/>
		<stop  offset="0.2045" style="stop-color:#3C3C3C"/>
		<stop  offset="0.4149" style="stop-color:#353535"/>
		<stop  offset="1" style="stop-color:#333333"/>
	</linearGradient>
	<polygon fill="url(#SVGID_1_)" points="541.584,504.58 318.095,566.077 494.5,601 	"/>
	<polygon fill="#262626" points="563.898,445.59 489.834,600 573.082,527.889 	"/>
	<polygon fill="#141414" points="563.5,522.533 490.5,600.167 574.5,600.167 	"/>
	<rect x="563.674" y="0.984" fill="#141414" width="238.326" height="599.458"/>
</g>
<g id="Calque_1">
	<rect x="135.089" y="29.248" fill="#E2E2E2" stroke="#4C4C4C" stroke-miterlimit="10" width="91.232" height="91.232"/>
	<rect x="32.109" y="29.248" fill="#E2E2E2" stroke="#4C4C4C" stroke-miterlimit="10" width="91.231" height="91.232"/>
	<rect x="238.759" y="29.248" fill="#E2E2E2" stroke="#4C4C4C" stroke-miterlimit="10" width="90.54" height="91.232"/>
	<rect x="32.627" y="236.116" fill="#E2E2E2" stroke="#4C4C4C" stroke-miterlimit="10" width="91.23" height="91.232"/>
	<rect x="135.607" y="236.116" fill="#E2E2E2" stroke="#4C4C4C" stroke-miterlimit="10" width="91.229" height="91.232"/>
	<rect x="238.587" y="236.116" fill="#E2E2E2" stroke="#4C4C4C" stroke-miterlimit="10" width="90.541" height="91.232"/>
	<rect x="32.109" y="132.919" fill="#E2E2E2" stroke="#4C4C4C" stroke-miterlimit="10" width="91.231" height="91.231"/>
	<rect x="135.089" y="132.919" fill="#E2E2E2" stroke="#4C4C4C" stroke-miterlimit="10" width="91.232" height="91.231"/>
	<rect x="238.759" y="132.919" fill="#E2E2E2" stroke="#4C4C4C" stroke-miterlimit="10" width="90.54" height="91.231"/>
	<rect x="341.05" y="30.111" fill="#E2E2E2" stroke="#4C4C4C" stroke-miterlimit="10" width="91.228" height="91.23"/>
	<rect x="33.189" y="337.803" fill="#E2E2E2" stroke="#4C4C4C" stroke-miterlimit="10" width="91.229" height="91.23"/>
	<rect x="136.17" y="337.803" fill="#E2E2E2" stroke="#4C4C4C" stroke-miterlimit="10" width="90.541" height="91.23"/>
	<rect x="341.05" y="132.055" fill="#E2E2E2" stroke="#4C4C4C" stroke-miterlimit="10" width="91.228" height="91.232"/>
	<rect x="443.794" y="132.033" fill="#E2E2E2" stroke="#4C4C4C" stroke-miterlimit="10" width="91.229" height="91.233"/>
	<rect x="443.394" y="234.447" fill="#E2E2E2" stroke="#4C4C4C" stroke-miterlimit="10" width="90.541" height="91.232"/>
	<rect x="443.458" y="31.074" fill="#E2E2E2" stroke="#4C4C4C" stroke-miterlimit="10" width="91.228" height="91.231"/>
	<rect x="341.084" y="235.967" fill="#E2E2E2" stroke="#4C4C4C" stroke-miterlimit="10" width="91.229" height="91.233"/>
	<rect x="238.275" y="337.706" fill="#E2E2E2" stroke="#4C4C4C" stroke-miterlimit="10" width="90.54" height="91.232"/>
	<rect x="601.354" y="38.599" fill="#1D2121" width="161.521" height="11.576"/>
	<g>
		<text transform="matrix(1.0635 0 0 1 601.0781 33.8538)" fill="#475656" font-family="'MyriadPro-Regular'" font-size="9.2644">CODE</text>
	</g>
	<rect x="601.354" y="74.368" fill="#1D2121" width="161.521" height="11.575"/>
	<g>
		<text transform="matrix(1.0635 0 0 1 601.0781 69.9163)" fill="#475656" font-family="'MyriadPro-Regular'" font-size="9.2644">HTML</text>
	</g>
	<rect x="601.354" y="111.238" fill="#1D2121" width="161.521" height="9.923"/>
	<g>
		<text transform="matrix(1.0635 0 0 1 601.0781 105.9788)" fill="#475656" font-family="'MyriadPro-Regular'" font-size="9.2644">CSS</text>
	</g>
	<rect x="601.354" y="147.006" fill="#1D2121" width="161.521" height="10.475"/>
	<g>
		<text transform="matrix(1.0635 0 0 1 601.0781 142.0432)" fill="#475656" font-family="'MyriadPro-Regular'" font-size="9.2644">PHP</text>
	</g>
	<rect x="601.354" y="182.773" fill="#1D2121" width="161.521" height="11.027"/>
	<g>
		<text transform="matrix(1.0635 0 0 1 601.0781 178.1028)" fill="#475656" font-family="'MyriadPro-Regular'" font-size="9.2644">JAVA</text>
	</g>
	<rect x="601.354" y="219.094" fill="#1D2121" width="161.521" height="11.024"/>
	<g>
		<text transform="matrix(1.0635 0 0 1 601.0781 214.1682)" fill="#475656" font-family="'MyriadPro-Regular'" font-size="9.2644">JAVASCRIPT</text>
	</g>
	<rect x="601.354" y="254.861" fill="#1D2121" width="161.521" height="11.025"/>
	<g>
		<text transform="matrix(1.0635 0 0 1 601.0781 247.2307)" fill="#475656" font-family="'MyriadPro-Regular'" font-size="9.2644">MYSQL</text>
	</g>
	<rect x="601.293" y="291.599" fill="#1D2121" width="161.521" height="11.576"/>
	<g>
		<text transform="matrix(1.0635 0 0 1 601.0166 286.8538)" fill="#475656" font-family="'MyriadPro-Regular'" font-size="9.2644">GRAPHISME</text>
	</g>
	<rect x="601.293" y="327.368" fill="#1D2121" width="161.521" height="11.575"/>
	<g>
		<text transform="matrix(1.0635 0 0 1 601.0166 322.9163)" fill="#475656" font-family="'MyriadPro-Regular'" font-size="9.2644">PHOTOSHOP</text>
	</g>
	<rect x="601.293" y="364.238" fill="#1D2121" width="161.521" height="9.923"/>
	<g>
		<text transform="matrix(1.0635 0 0 1 601.0166 358.9788)" fill="#475656" font-family="'MyriadPro-Regular'" font-size="9.2644">ILLUSTRATOR</text>
	</g>
	<rect x="601.293" y="400.006" fill="#1D2121" width="161.521" height="10.475"/>
	<g>
		<text transform="matrix(1.0635 0 0 1 601.0166 395.0432)" fill="#475656" font-family="'MyriadPro-Regular'" font-size="9.2644">INDESIGNE</text>
	</g>
	<rect x="601.293" y="435.773" fill="#1D2121" width="161.521" height="11.027"/>
	<g>
		<text transform="matrix(1.0635 0 0 1 601.0166 431.1028)" fill="#475656" font-family="'MyriadPro-Regular'" font-size="9.2644">PREMIER PRO</text>
	</g>
	<rect x="601.293" y="472.094" fill="#1D2121" width="161.521" height="11.024"/>
	<g>
		<text transform="matrix(1.0635 0 0 1 601.0166 467.1682)" fill="#475656" font-family="'MyriadPro-Regular'" font-size="9.2644">AFTER EFFECT</text>
	</g>
	<rect x="601.293" y="507.861" fill="#1D2121" width="161.521" height="11.025"/>
	<g>
		<text transform="matrix(1.0635 0 0 1 601.0166 503.2307)" fill="#475656" font-family="'MyriadPro-Regular'" font-size="9.2644">FLASH BUILDER</text>
	</g>
	<g>
		<path fill="#333333" d="M366.25,364.694h36.1v1.689h-16.698c0.226,0.136,0.338,0.316,0.338,0.541c0,0.405-0.202,0.608-0.608,0.608
			c-0.405,0-0.608-0.203-0.608-0.608c0-0.225,0.112-0.405,0.338-0.541h-18.86V364.694z M383.218,405.863
			c0.406,0,0.608,0.181,0.608,0.541c0,0.451-0.158,0.676-0.473,0.676h1.419c-0.045-0.044-0.067-0.179-0.067-0.405
			c0.045-0.314,0.271-0.518,0.676-0.608c0.45,0.091,0.631,0.315,0.541,0.676c-0.045,0.091-0.067,0.159-0.067,0.203
			c0,0.045-0.023,0.091-0.067,0.135h1.217c-0.091-0.09-0.136-0.247-0.136-0.473c0-0.36,0.203-0.541,0.608-0.541
			c0.36,0,0.541,0.227,0.541,0.676c0,0.136-0.045,0.248-0.135,0.338h14.467v1.69h-36.1v-1.69h16.9c-0.135,0-0.26-0.044-0.372-0.135
			c-0.113-0.09-0.146-0.225-0.102-0.405C382.677,406.089,382.856,405.863,383.218,405.863z M366.317,383.352h5.205v0.811h-5.205
			V383.352z M372.401,386.934c0,0.406-0.226,0.609-0.676,0.609c-0.361,0-0.541-0.203-0.541-0.609c0-0.405,0.203-0.608,0.608-0.608
			C372.199,386.325,372.401,386.529,372.401,386.934z M371.252,389.368c0-0.406,0.203-0.608,0.608-0.608
			c0.406,0,0.608,0.202,0.608,0.608c0,0.405-0.202,0.608-0.608,0.608C371.455,389.977,371.252,389.774,371.252,389.368z
			 M371.388,384.703c0-0.405,0.203-0.608,0.608-0.608s0.608,0.203,0.608,0.608s-0.203,0.608-0.608,0.608
			S371.388,385.109,371.388,384.703z M372.131,390.99c0.45,0.091,0.631,0.315,0.541,0.676c-0.091,0.451-0.315,0.632-0.676,0.541
			c-0.361,0-0.541-0.225-0.541-0.676C371.545,391.171,371.77,390.99,372.131,390.99z M371.658,382.337
			c0-0.405,0.202-0.608,0.608-0.608c0.405,0,0.608,0.203,0.608,0.608c0,0.406-0.203,0.608-0.608,0.608
			C371.86,382.946,371.658,382.743,371.658,382.337z M372.131,394.032c0-0.405,0.203-0.608,0.608-0.608
			c0.406,0,0.608,0.203,0.608,0.608s-0.202,0.608-0.608,0.608C372.334,394.641,372.131,394.438,372.131,394.032z M372.267,380.174
			c0-0.405,0.202-0.608,0.608-0.608c0.405,0,0.608,0.203,0.608,0.608s-0.203,0.608-0.608,0.608
			C372.469,380.782,372.267,380.579,372.267,380.174z M373.889,396.263c0,0.361-0.202,0.541-0.608,0.541
			c-0.405,0-0.608-0.202-0.608-0.608c0-0.405,0.203-0.608,0.608-0.608C373.687,395.587,373.889,395.814,373.889,396.263z
			 M372.808,378.078c0-0.405,0.202-0.608,0.608-0.608c0.405,0,0.608,0.203,0.608,0.608s-0.203,0.608-0.608,0.608
			C373.01,378.687,372.808,378.484,372.808,378.078z M373.146,383.352h5.205v0.811h-5.205V383.352z M373.889,397.615
			c0.45,0,0.676,0.226,0.676,0.676c0,0.361-0.181,0.541-0.54,0.541c-0.451,0.091-0.677-0.09-0.677-0.541
			C373.348,397.931,373.527,397.706,373.889,397.615z M374.835,376.321c0,0.361-0.226,0.541-0.676,0.541
			c-0.361,0-0.541-0.203-0.541-0.608s0.203-0.608,0.608-0.608C374.633,375.645,374.835,375.87,374.835,376.321z M374.971,399.575
			c0.405,0.092,0.631,0.294,0.676,0.609c0,0.18-0.057,0.338-0.169,0.473c-0.113,0.136-0.26,0.181-0.439,0.136
			c-0.405,0.091-0.608-0.09-0.608-0.541C374.339,399.892,374.52,399.667,374.971,399.575z M375.781,374.09
			c0,0.405-0.202,0.608-0.608,0.608c-0.405-0.09-0.608-0.315-0.608-0.676c0.09-0.45,0.315-0.631,0.677-0.541
			C375.69,373.482,375.871,373.684,375.781,374.09z M376.322,401.469c0.406-0.09,0.653,0.067,0.744,0.473
			c0,0.406-0.181,0.654-0.541,0.744c-0.451,0-0.676-0.226-0.676-0.676C375.759,401.65,375.917,401.469,376.322,401.469z
			 M377.201,372.062c0,0.405-0.202,0.608-0.608,0.608c-0.405,0-0.608-0.203-0.608-0.608s0.203-0.608,0.608-0.608
			C376.999,371.453,377.201,371.656,377.201,372.062z M377.607,403.024c0.449-0.09,0.63,0.091,0.54,0.541
			c0.09,0.361-0.067,0.586-0.473,0.676c-0.406,0-0.654-0.203-0.744-0.608C376.976,403.318,377.201,403.115,377.607,403.024z
			 M378.554,370.237c0,0.405-0.227,0.608-0.677,0.608c-0.36,0-0.54-0.203-0.54-0.608s0.202-0.608,0.608-0.608
			C378.351,369.628,378.554,369.831,378.554,370.237z M379.026,404.375c0.406-0.089,0.608,0.068,0.608,0.474
			c0.09,0.405-0.067,0.654-0.473,0.743c-0.451-0.089-0.699-0.292-0.744-0.608c0-0.179,0.057-0.338,0.169-0.473
			C378.699,404.375,378.846,404.331,379.026,404.375z M379.973,368.952c0,0.405-0.202,0.608-0.608,0.608
			c-0.405,0-0.608-0.226-0.608-0.677c0-0.359,0.203-0.54,0.608-0.54C379.771,368.344,379.973,368.546,379.973,368.952z
			 M379.771,383.352h5.205v0.811h-5.205V383.352z M381.122,405.323c0.406-0.09,0.653,0.091,0.744,0.54
			c0,0.361-0.227,0.587-0.677,0.677c-0.45,0-0.631-0.18-0.54-0.541C380.559,405.548,380.717,405.323,381.122,405.323z
			 M381.934,367.736c-0.091,0.405-0.315,0.608-0.676,0.608c-0.451,0-0.632-0.203-0.541-0.608c0-0.406,0.203-0.608,0.608-0.608
			S381.934,367.329,381.934,367.736z M383.962,367.195c0,0.405-0.227,0.608-0.677,0.608c-0.361,0-0.54-0.203-0.54-0.608
			s0.202-0.608,0.608-0.608C383.759,366.586,383.962,366.789,383.962,367.195z M386.598,383.352h5.206v0.811h-5.206V383.352z
			 M386.801,367.059c0-0.405,0.203-0.608,0.608-0.608s0.608,0.203,0.608,0.608c0,0.406-0.181,0.608-0.541,0.608
			C387.025,367.667,386.801,367.465,386.801,367.059z M388.762,367.803c0-0.405,0.202-0.608,0.608-0.608
			c0.405,0,0.608,0.203,0.608,0.608c0.09,0.405-0.091,0.608-0.541,0.608C389.076,368.411,388.852,368.208,388.762,367.803z
			 M389.572,405.39c0.406,0,0.563,0.226,0.474,0.676c0.09,0.361-0.091,0.541-0.541,0.541c-0.451-0.09-0.676-0.314-0.676-0.676
			C388.919,405.481,389.167,405.3,389.572,405.39z M390.722,369.02c0-0.405,0.203-0.608,0.608-0.608s0.608,0.181,0.608,0.541
			c0,0.451-0.203,0.676-0.608,0.676S390.722,369.425,390.722,369.02z M391.668,404.444c0.18-0.045,0.326,0,0.439,0.135
			c0.112,0.136,0.169,0.294,0.169,0.474c-0.045,0.315-0.293,0.519-0.743,0.608c-0.406-0.09-0.564-0.338-0.474-0.744
			C391.06,404.511,391.263,404.354,391.668,404.444z M392.142,370.304c0-0.405,0.203-0.608,0.608-0.608s0.608,0.203,0.608,0.608
			c0,0.406-0.181,0.608-0.541,0.608C392.366,370.912,392.142,370.71,392.142,370.304z M393.088,403.091
			c0.405,0.091,0.631,0.294,0.676,0.608c-0.091,0.406-0.338,0.608-0.743,0.608c-0.406-0.09-0.564-0.314-0.474-0.676
			C392.456,403.182,392.637,403.001,393.088,403.091z M393.155,383.352h5.205v0.811h-5.205V383.352z M393.493,372.129
			c0-0.405,0.203-0.608,0.608-0.608c0.406,0,0.608,0.203,0.608,0.608c0,0.406-0.202,0.608-0.608,0.608
			C393.696,372.738,393.493,372.535,393.493,372.129z M394.372,401.536c0.406,0,0.563,0.181,0.474,0.541
			c0,0.451-0.227,0.676-0.676,0.676c-0.361-0.09-0.541-0.338-0.541-0.743C393.719,401.604,393.967,401.447,394.372,401.536z
			 M394.913,374.157c-0.091-0.405,0.09-0.608,0.541-0.608c0.36-0.09,0.585,0.091,0.676,0.541c0,0.361-0.203,0.586-0.608,0.676
			C395.116,374.766,394.913,374.563,394.913,374.157z M395.725,399.644c0.449,0.091,0.63,0.315,0.541,0.676
			c0,0.451-0.203,0.632-0.609,0.541c-0.18,0.045-0.327,0-0.438-0.136c-0.113-0.135-0.169-0.292-0.169-0.473
			C395.093,399.937,395.318,399.735,395.725,399.644z M395.859,376.388c0-0.449,0.203-0.676,0.608-0.676s0.608,0.203,0.608,0.608
			c0,0.406-0.181,0.608-0.541,0.608C396.084,376.929,395.859,376.749,395.859,376.388z M396.806,397.683
			c0.36,0.091,0.541,0.316,0.541,0.676c0,0.451-0.227,0.632-0.676,0.541c-0.362,0-0.541-0.18-0.541-0.541
			C396.13,397.909,396.354,397.683,396.806,397.683z M396.806,396.331c0-0.45,0.203-0.677,0.608-0.677s0.608,0.203,0.608,0.608
			c0,0.406-0.203,0.609-0.608,0.609S396.806,396.693,396.806,396.331z M399.983,383.352h2.366v0.811h-2.366V383.352z"/>
		<path fill="#333333" d="M410.799,366.857c0,0.405-0.202,0.608-0.608,0.608c-0.405,0-0.608-0.226-0.608-0.676
			c0-0.136,0.068-0.271,0.203-0.406h-1.149c0.226,0.136,0.338,0.316,0.338,0.541c0,0.405-0.202,0.608-0.608,0.608
			c-0.405,0-0.608-0.203-0.608-0.608c0-0.225,0.112-0.405,0.338-0.541h-6.286v-1.689h35.896v1.689h-20.011
			c0.226,0.136,0.338,0.316,0.338,0.541c0,0.405-0.202,0.608-0.608,0.608c-0.405,0-0.608-0.203-0.608-0.608
			c0-0.225,0.112-0.405,0.339-0.541h-1.69c0.09,0.181,0.135,0.316,0.135,0.406c0,0.405-0.226,0.608-0.676,0.608
			c-0.361,0-0.541-0.203-0.541-0.608c0-0.18,0.045-0.315,0.136-0.406h-1.487c0.09,0.181,0.135,0.316,0.135,0.406
			c-0.091,0.405-0.315,0.608-0.676,0.608c-0.451,0-0.632-0.203-0.541-0.608c0-0.18,0.045-0.315,0.136-0.406h-1.555
			C410.708,366.564,410.799,366.721,410.799,366.857z M401.809,407.079h5.881v-0.202c0-0.406,0.203-0.608,0.608-0.608
			s0.608,0.202,0.608,0.608c0,0.091-0.023,0.158-0.067,0.202h0.473c-0.045-0.044-0.067-0.111-0.067-0.202
			c0.045-0.315,0.271-0.518,0.677-0.608c0.449-0.09,0.63,0.091,0.54,0.541v0.27h0.677v-0.067c0-0.18,0.056-0.338,0.169-0.473
			c0.111-0.136,0.259-0.18,0.439-0.136c0.405-0.09,0.608,0.067,0.608,0.474v0.202h0.946v-0.067c-0.091-0.45,0.067-0.676,0.473-0.676
			c0.406-0.09,0.653,0.091,0.744,0.541c0,0.091-0.023,0.158-0.067,0.202h0.878v-0.135c0-0.45,0.18-0.676,0.541-0.676
			c0.406,0,0.608,0.181,0.608,0.541c0,0.135-0.022,0.226-0.067,0.27h1.082c-0.046-0.044-0.068-0.111-0.068-0.202
			c-0.091-0.36,0.09-0.585,0.541-0.676c0.406,0.091,0.631,0.293,0.676,0.608c0,0.135-0.022,0.226-0.067,0.27h19.132v1.69h-35.896
			V407.079z M401.876,383.352h5.205v0.811h-5.205V383.352z M407.757,369.087c0-0.405,0.203-0.608,0.608-0.608
			c0.406,0,0.608,0.203,0.608,0.608c0,0.406-0.202,0.608-0.608,0.608C407.96,369.696,407.757,369.493,407.757,369.087z
			 M407.757,371.115c0-0.405,0.203-0.608,0.608-0.608c0.406,0,0.608,0.203,0.608,0.608s-0.202,0.608-0.608,0.608
			C407.96,371.724,407.757,371.521,407.757,371.115z M407.757,373.211c0-0.405,0.203-0.608,0.608-0.608
			c0.406,0,0.608,0.203,0.608,0.608s-0.202,0.608-0.608,0.608C407.96,373.82,407.757,373.616,407.757,373.211z M407.757,375.577
			c0-0.406,0.203-0.608,0.608-0.608c0.406,0,0.608,0.202,0.608,0.608c0,0.405-0.202,0.608-0.608,0.608
			C407.96,376.186,407.757,375.983,407.757,375.577z M407.757,378.078c0-0.405,0.203-0.608,0.608-0.608
			c0.406,0,0.608,0.203,0.608,0.608s-0.202,0.608-0.608,0.608C407.96,378.687,407.757,378.484,407.757,378.078z M407.757,380.445
			c0-0.405,0.203-0.608,0.608-0.608c0.406,0,0.608,0.203,0.608,0.608s-0.202,0.608-0.608,0.608
			C407.96,381.053,407.757,380.85,407.757,380.445z M407.757,382.608c0-0.405,0.203-0.608,0.608-0.608
			c0.406,0,0.608,0.203,0.608,0.608s-0.202,0.608-0.608,0.608C407.96,383.216,407.757,383.013,407.757,382.608z M407.757,384.771
			c0-0.405,0.203-0.608,0.608-0.608c0.406,0,0.608,0.203,0.608,0.608c0,0.406-0.202,0.608-0.608,0.608
			C407.96,385.379,407.757,385.177,407.757,384.771z M407.757,386.799c0-0.405,0.203-0.608,0.608-0.608
			c0.406,0,0.608,0.203,0.608,0.608s-0.202,0.608-0.608,0.608C407.96,387.407,407.757,387.204,407.757,386.799z M407.757,388.895
			c0-0.405,0.203-0.608,0.608-0.608c0.406,0,0.608,0.203,0.608,0.608s-0.202,0.608-0.608,0.608
			C407.96,389.503,407.757,389.3,407.757,388.895z M407.757,391.261c0-0.405,0.203-0.608,0.608-0.608
			c0.406,0,0.608,0.203,0.608,0.608s-0.202,0.608-0.608,0.608C407.96,391.869,407.757,391.666,407.757,391.261z M407.757,393.627
			c0-0.406,0.203-0.608,0.608-0.608c0.406,0,0.608,0.202,0.608,0.608c0,0.405-0.202,0.608-0.608,0.608
			C407.96,394.236,407.757,394.032,407.757,393.627z M407.757,395.993c0-0.406,0.203-0.608,0.608-0.608
			c0.406,0,0.608,0.202,0.608,0.608c0,0.405-0.202,0.608-0.608,0.608C407.96,396.602,407.757,396.399,407.757,395.993z
			 M407.757,398.629c0-0.405,0.203-0.608,0.608-0.608c0.406,0,0.608,0.203,0.608,0.608c0,0.406-0.202,0.608-0.608,0.608
			C407.96,399.238,407.757,399.035,407.757,398.629z M407.757,400.793c0-0.406,0.203-0.608,0.608-0.608
			c0.406,0,0.608,0.202,0.608,0.608c0,0.405-0.202,0.608-0.608,0.608C407.96,401.402,407.757,401.198,407.757,400.793z
			 M407.757,402.821c0-0.405,0.203-0.608,0.608-0.608c0.406,0,0.608,0.203,0.608,0.608c0,0.406-0.202,0.608-0.608,0.608
			C407.96,403.429,407.757,403.227,407.757,402.821z M407.757,404.916c0-0.405,0.203-0.608,0.608-0.608
			c0.406,0,0.608,0.203,0.608,0.608c0,0.406-0.202,0.608-0.608,0.608C407.96,405.525,407.757,405.323,407.757,404.916z
			 M408.703,383.352h5.206v0.811h-5.206V383.352z M415.328,383.352h5.206v0.811h-5.206V383.352z M419.385,367.262
			c0-0.405,0.203-0.608,0.608-0.608s0.608,0.203,0.608,0.608s-0.181,0.608-0.541,0.608
			C419.609,367.87,419.385,367.667,419.385,367.262z M420.128,405.795c0.36,0,0.541,0.227,0.541,0.676
			c0.045,0.181,0,0.316-0.135,0.406c-0.136,0.091-0.294,0.135-0.474,0.135c-0.361,0-0.541-0.225-0.541-0.676
			C419.52,405.976,419.723,405.795,420.128,405.795z M421.413,367.803c0-0.405,0.202-0.608,0.608-0.608
			c0.405,0,0.608,0.203,0.608,0.608c0.09,0.405-0.091,0.608-0.541,0.608C421.728,368.411,421.503,368.208,421.413,367.803z
			 M422.224,405.254c0.406,0,0.563,0.227,0.474,0.677c0.09,0.361-0.091,0.54-0.541,0.54c-0.451-0.09-0.676-0.314-0.676-0.676
			C421.57,405.345,421.818,405.164,422.224,405.254z M422.156,383.352h5.205v0.811h-5.205V383.352z M423.373,368.884
			c0-0.405,0.203-0.608,0.608-0.608c0.406,0,0.608,0.181,0.608,0.541c0,0.451-0.202,0.677-0.608,0.677
			C423.576,369.493,423.373,369.29,423.373,368.884z M424.319,404.308c0.18-0.044,0.327,0,0.439,0.136
			c0.112,0.135,0.169,0.293,0.169,0.473c-0.045,0.316-0.293,0.519-0.743,0.608c-0.405-0.09-0.564-0.338-0.474-0.743
			C423.711,404.375,423.914,404.218,424.319,404.308z M424.793,370.169c0-0.406,0.203-0.608,0.608-0.608s0.608,0.202,0.608,0.608
			c0,0.405-0.181,0.608-0.541,0.608C425.018,370.778,424.793,370.574,424.793,370.169z M425.739,402.956
			c0.405,0.091,0.631,0.293,0.676,0.608c-0.091,0.405-0.338,0.608-0.743,0.608c-0.405-0.09-0.564-0.315-0.474-0.676
			C425.107,403.047,425.288,402.866,425.739,402.956z M426.145,371.994c0-0.406,0.203-0.608,0.608-0.608
			c0.406,0,0.608,0.202,0.608,0.608c0,0.405-0.202,0.608-0.608,0.608C426.348,372.603,426.145,372.4,426.145,371.994z
			 M427.023,401.402c0.406,0,0.563,0.181,0.474,0.54c0,0.451-0.227,0.677-0.676,0.677c-0.361-0.09-0.541-0.339-0.541-0.744
			C426.37,401.469,426.618,401.312,427.023,401.402z M427.564,374.023c-0.091-0.406,0.09-0.608,0.541-0.608
			c0.36-0.09,0.585,0.091,0.676,0.54c0,0.361-0.202,0.587-0.608,0.677C427.768,374.631,427.564,374.428,427.564,374.023z
			 M428.376,399.508c0.45,0.091,0.631,0.316,0.541,0.677c0,0.45-0.203,0.631-0.608,0.54c-0.181,0.046-0.328,0-0.439-0.135
			c-0.113-0.136-0.169-0.293-0.169-0.474C427.744,399.802,427.97,399.599,428.376,399.508z M428.511,376.253
			c0-0.45,0.203-0.676,0.608-0.676c0.406,0,0.608,0.202,0.608,0.608c0,0.405-0.181,0.608-0.54,0.608
			C428.736,376.794,428.511,376.615,428.511,376.253z M428.714,383.352h5.205v0.811h-2.23c0.18,0.181,0.271,0.338,0.271,0.474
			c0,0.405-0.203,0.608-0.608,0.608c-0.406,0-0.608-0.203-0.608-0.608c0-0.18,0.067-0.338,0.202-0.474h-2.23V383.352z
			 M429.457,397.548c0.36,0.091,0.541,0.315,0.541,0.676c0,0.451-0.226,0.632-0.676,0.541c-0.361,0-0.541-0.18-0.541-0.541
			C428.781,397.774,429.007,397.548,429.457,397.548z M430.539,378.011c0,0.405-0.203,0.608-0.608,0.608s-0.608-0.203-0.608-0.608
			c0-0.406,0.203-0.608,0.608-0.608S430.539,377.605,430.539,378.011z M429.457,396.196c0-0.45,0.203-0.676,0.608-0.676
			c0.406,0,0.608,0.203,0.608,0.608s-0.202,0.608-0.608,0.608C429.66,396.737,429.457,396.557,429.457,396.196z M431.08,380.107
			c0,0.405-0.203,0.608-0.608,0.608c-0.406,0-0.608-0.203-0.608-0.608c0-0.406,0.202-0.608,0.608-0.608
			C430.877,379.498,431.08,379.7,431.08,380.107z M431.215,393.965c0,0.405-0.202,0.608-0.608,0.608
			c-0.405,0-0.608-0.203-0.608-0.608c0-0.406,0.203-0.608,0.608-0.608C431.013,393.357,431.215,393.559,431.215,393.965z
			 M431.688,382.27c0,0.405-0.203,0.608-0.608,0.608c-0.406,0-0.608-0.203-0.608-0.608s0.202-0.608,0.608-0.608
			C431.485,381.661,431.688,381.865,431.688,382.27z M431.215,390.923c0.36,0,0.586,0.181,0.677,0.541
			c0,0.45-0.181,0.676-0.541,0.676c-0.361,0.091-0.587-0.09-0.677-0.541C430.583,391.239,430.764,391.014,431.215,390.923z
			 M432.094,389.3c0,0.406-0.202,0.608-0.608,0.608c-0.405,0-0.608-0.202-0.608-0.608c0-0.405,0.203-0.608,0.608-0.608
			C431.892,388.692,432.094,388.895,432.094,389.3z M430.944,386.866c0-0.405,0.203-0.608,0.608-0.608
			c0.406,0,0.608,0.203,0.608,0.608c0,0.406-0.181,0.608-0.54,0.608C431.17,387.475,430.944,387.273,430.944,386.866z
			 M435.542,383.352h2.163v0.811h-2.163V383.352z"/>
		<path fill="#333333" d="M466.098,366.924c0-0.225,0.112-0.405,0.339-0.541H442.64c0.226,0.136,0.339,0.316,0.339,0.541
			c0,0.405-0.203,0.608-0.608,0.608c-0.406,0-0.608-0.203-0.608-0.608c0-0.225,0.111-0.405,0.338-0.541h-5.138v-1.689h35.761v1.689
			h-5.746c0.226,0.136,0.338,0.316,0.338,0.541c0,0.405-0.202,0.608-0.608,0.608C466.301,367.532,466.098,367.329,466.098,366.924z
			 M436.962,407.079h4.731v-0.202c0-0.406,0.203-0.608,0.608-0.608c0.406,0,0.608,0.202,0.608,0.608
			c0,0.091-0.022,0.158-0.067,0.202h23.188v-0.202c0-0.406,0.203-0.608,0.608-0.608c0.406,0,0.608,0.202,0.608,0.608
			c0,0.091-0.023,0.158-0.067,0.202h5.543v1.69h-35.761V407.079z M437.029,383.352h5.205v0.811h0.136
			c0.405,0,0.608,0.203,0.608,0.608c0,0.406-0.203,0.608-0.608,0.608c-0.406,0-0.608-0.202-0.608-0.608
			c0-0.314,0.157-0.518,0.473-0.608h-5.205V383.352z M441.762,369.087c0-0.405,0.202-0.608,0.608-0.608
			c0.405,0,0.608,0.203,0.608,0.608c0,0.406-0.203,0.608-0.608,0.608C441.964,369.696,441.762,369.493,441.762,369.087z
			 M441.762,371.115c0-0.405,0.202-0.608,0.608-0.608c0.405,0,0.608,0.203,0.608,0.608s-0.203,0.608-0.608,0.608
			C441.964,371.724,441.762,371.521,441.762,371.115z M441.762,373.211c0-0.405,0.202-0.608,0.608-0.608
			c0.405,0,0.608,0.203,0.608,0.608s-0.203,0.608-0.608,0.608C441.964,373.82,441.762,373.616,441.762,373.211z M441.762,375.577
			c0-0.406,0.202-0.608,0.608-0.608c0.405,0,0.608,0.202,0.608,0.608c0,0.405-0.203,0.608-0.608,0.608
			C441.964,376.186,441.762,375.983,441.762,375.577z M441.762,378.078c0-0.405,0.202-0.608,0.608-0.608
			c0.405,0,0.608,0.203,0.608,0.608s-0.203,0.608-0.608,0.608C441.964,378.687,441.762,378.484,441.762,378.078z M441.762,380.445
			c0-0.405,0.202-0.608,0.608-0.608c0.405,0,0.608,0.203,0.608,0.608s-0.203,0.608-0.608,0.608
			C441.964,381.053,441.762,380.85,441.762,380.445z M441.762,382.608c0-0.405,0.202-0.608,0.608-0.608
			c0.405,0,0.608,0.203,0.608,0.608s-0.203,0.608-0.608,0.608C441.964,383.216,441.762,383.013,441.762,382.608z M441.762,386.799
			c0-0.405,0.202-0.608,0.608-0.608c0.405,0,0.608,0.203,0.608,0.608s-0.203,0.608-0.608,0.608
			C441.964,387.407,441.762,387.204,441.762,386.799z M441.762,388.895c0-0.405,0.202-0.608,0.608-0.608
			c0.405,0,0.608,0.203,0.608,0.608s-0.203,0.608-0.608,0.608C441.964,389.503,441.762,389.3,441.762,388.895z M441.762,391.261
			c0-0.405,0.202-0.608,0.608-0.608c0.405,0,0.608,0.203,0.608,0.608s-0.203,0.608-0.608,0.608
			C441.964,391.869,441.762,391.666,441.762,391.261z M441.762,393.627c0-0.406,0.202-0.608,0.608-0.608
			c0.405,0,0.608,0.202,0.608,0.608c0,0.405-0.203,0.608-0.608,0.608C441.964,394.236,441.762,394.032,441.762,393.627z
			 M441.762,395.993c0-0.406,0.202-0.608,0.608-0.608c0.405,0,0.608,0.202,0.608,0.608c0,0.405-0.203,0.608-0.608,0.608
			C441.964,396.602,441.762,396.399,441.762,395.993z M441.762,398.629c0-0.405,0.202-0.608,0.608-0.608
			c0.405,0,0.608,0.203,0.608,0.608c0,0.406-0.203,0.608-0.608,0.608C441.964,399.238,441.762,399.035,441.762,398.629z
			 M441.762,400.793c0-0.406,0.202-0.608,0.608-0.608c0.405,0,0.608,0.202,0.608,0.608c0,0.405-0.203,0.608-0.608,0.608
			C441.964,401.402,441.762,401.198,441.762,400.793z M441.762,402.821c0-0.405,0.202-0.608,0.608-0.608
			c0.405,0,0.608,0.203,0.608,0.608c0,0.406-0.203,0.608-0.608,0.608C441.964,403.429,441.762,403.227,441.762,402.821z
			 M441.762,404.916c0-0.405,0.202-0.608,0.608-0.608c0.405,0,0.608,0.203,0.608,0.608c0,0.406-0.203,0.608-0.608,0.608
			C441.964,405.525,441.762,405.323,441.762,404.916z M443.384,368.682c-0.181-0.36-0.091-0.653,0.271-0.879
			c0.09-0.09,0.225-0.112,0.405-0.067c0.18,0.045,0.314,0.158,0.405,0.338c0.09,0.135,0.112,0.282,0.068,0.439
			c-0.046,0.158-0.136,0.282-0.271,0.371c-0.181,0.092-0.35,0.125-0.507,0.102C443.597,368.964,443.474,368.863,443.384,368.682z
			 M443.856,383.352h5.206v0.811h-5.206V383.352z M444.465,370.507c-0.27-0.36-0.202-0.631,0.203-0.812
			c0.36-0.18,0.653-0.09,0.879,0.271c0.18,0.361,0.09,0.654-0.271,0.879C444.915,371.026,444.645,370.912,444.465,370.507z
			 M445.412,372.332c-0.091-0.135-0.091-0.281,0-0.439c0.09-0.157,0.18-0.281,0.271-0.372c0.314-0.135,0.608-0.067,0.878,0.203
			c0.09,0.361-0.022,0.653-0.338,0.879C445.861,372.783,445.592,372.694,445.412,372.332z M446.426,374.225
			c-0.135-0.405-0.046-0.698,0.271-0.879c0.135-0.09,0.281-0.111,0.439-0.067c0.157,0.046,0.281,0.158,0.372,0.338
			c0.27,0.271,0.202,0.519-0.203,0.744c-0.136,0.091-0.294,0.112-0.474,0.067C446.65,374.383,446.516,374.316,446.426,374.225z
			 M447.643,376.186c-0.181-0.315-0.091-0.585,0.271-0.812c0.135-0.09,0.281-0.102,0.439-0.034c0.157,0.068,0.259,0.17,0.304,0.305
			c0.18,0.271,0.136,0.541-0.135,0.812C448.206,376.637,447.913,376.547,447.643,376.186z M448.927,378.416
			c-0.181-0.36-0.112-0.631,0.203-0.812c0.36-0.225,0.631-0.179,0.812,0.136c0.18,0.315,0.135,0.608-0.136,0.879
			C449.4,378.754,449.106,378.687,448.927,378.416z M450.009,380.377c-0.091-0.09-0.113-0.214-0.067-0.372
			c0.044-0.157,0.157-0.281,0.338-0.372c0.09-0.09,0.225-0.111,0.405-0.067c0.18,0.046,0.314,0.113,0.406,0.203
			c0.179,0.361,0.111,0.653-0.203,0.879C450.526,380.828,450.233,380.739,450.009,380.377z M450.481,383.352h5.206v0.811h-2.434
			c-0.046,0.091-0.113,0.181-0.203,0.271c-0.271,0.181-0.541,0.136-0.812-0.135c-0.045,0-0.067-0.045-0.067-0.136h-1.69V383.352z
			 M451.091,382.337c-0.227-0.36-0.136-0.631,0.27-0.811c0.36-0.18,0.653-0.112,0.879,0.202c0.09,0.406-0.022,0.676-0.338,0.812
			C451.54,382.721,451.27,382.654,451.091,382.337z M453.118,385.988c-0.181-0.36-0.067-0.652,0.338-0.879
			c0.406-0.179,0.653-0.09,0.744,0.271c0.135,0.406,0.067,0.677-0.203,0.812C453.636,386.416,453.344,386.349,453.118,385.988z
			 M454.268,387.745c-0.135-0.135-0.181-0.271-0.135-0.405c0.044-0.136,0.135-0.226,0.271-0.271c0.359-0.225,0.652-0.18,0.878,0.135
			c0.136,0.406,0.045,0.699-0.27,0.879c-0.091,0.091-0.215,0.113-0.372,0.068C454.481,388.107,454.357,387.972,454.268,387.745z
			 M455.417,389.841c-0.181-0.271-0.136-0.541,0.135-0.812c0.36-0.225,0.653-0.157,0.879,0.203c0.136,0.361,0.067,0.654-0.202,0.879
			C455.822,390.292,455.552,390.202,455.417,389.841z M456.566,391.869c-0.091-0.136-0.113-0.281-0.068-0.439
			c0.045-0.157,0.158-0.281,0.339-0.372c0.359-0.271,0.652-0.18,0.879,0.271c0.089,0.136,0.101,0.282,0.033,0.439
			c-0.067,0.158-0.214,0.282-0.439,0.372c-0.135,0.091-0.282,0.113-0.439,0.067C456.712,392.163,456.61,392.05,456.566,391.869z
			 M457.31,383.352h5.205v0.811h-5.205V383.352z M457.716,393.965c-0.181-0.36-0.113-0.631,0.202-0.812
			c0.36-0.225,0.631-0.135,0.812,0.271c0.271,0.361,0.225,0.632-0.136,0.812C458.188,394.37,457.895,394.281,457.716,393.965z
			 M459.067,396.331c-0.226-0.36-0.181-0.653,0.135-0.879c0.36-0.136,0.653-0.067,0.879,0.202c0.18,0.361,0.112,0.632-0.202,0.812
			C459.518,396.693,459.247,396.647,459.067,396.331z M460.149,398.156c-0.136-0.36-0.068-0.653,0.202-0.879
			c0.36-0.18,0.631-0.067,0.812,0.338c0.225,0.315,0.157,0.564-0.203,0.743C460.555,398.585,460.284,398.518,460.149,398.156z
			 M461.028,399.914c-0.091-0.136-0.113-0.281-0.068-0.439s0.157-0.281,0.338-0.372c0.315-0.18,0.563-0.112,0.744,0.203
			c0.314,0.315,0.271,0.608-0.136,0.879C461.501,400.32,461.207,400.23,461.028,399.914z M462.109,401.74
			c-0.091-0.136-0.102-0.281-0.033-0.439c0.067-0.157,0.146-0.281,0.236-0.372c0.314-0.18,0.608-0.135,0.879,0.135
			c0.135,0.361,0.044,0.654-0.271,0.879C462.56,402.122,462.289,402.055,462.109,401.74z M463.462,403.767
			c-0.181-0.314-0.113-0.585,0.202-0.811c0.136-0.09,0.281-0.102,0.439-0.034c0.157,0.067,0.281,0.169,0.372,0.305
			c0.225,0.361,0.18,0.631-0.135,0.811C463.979,404.173,463.687,404.083,463.462,403.767z M463.867,383.352h5.205v0.811h-2.23
			c0.314,0.091,0.473,0.294,0.473,0.608c0,0.406-0.202,0.608-0.608,0.608c-0.405,0-0.608-0.202-0.608-0.608
			c0-0.314,0.158-0.518,0.474-0.608h-2.704V383.352z M464.61,405.187c0-0.405,0.203-0.608,0.608-0.608
			c0.406,0,0.608,0.203,0.608,0.608s-0.202,0.608-0.608,0.608C464.813,405.795,464.61,405.592,464.61,405.187z M466.098,369.087
			c0-0.405,0.203-0.608,0.608-0.608c0.406,0,0.608,0.203,0.608,0.608c0,0.406-0.202,0.608-0.608,0.608
			C466.301,369.696,466.098,369.493,466.098,369.087z M466.098,371.115c0-0.405,0.203-0.608,0.608-0.608
			c0.406,0,0.608,0.203,0.608,0.608s-0.202,0.608-0.608,0.608C466.301,371.724,466.098,371.521,466.098,371.115z M466.098,373.211
			c0-0.405,0.203-0.608,0.608-0.608c0.406,0,0.608,0.203,0.608,0.608s-0.202,0.608-0.608,0.608
			C466.301,373.82,466.098,373.616,466.098,373.211z M466.098,375.577c0-0.406,0.203-0.608,0.608-0.608
			c0.406,0,0.608,0.202,0.608,0.608c0,0.405-0.202,0.608-0.608,0.608C466.301,376.186,466.098,375.983,466.098,375.577z
			 M466.098,378.078c0-0.405,0.203-0.608,0.608-0.608c0.406,0,0.608,0.203,0.608,0.608s-0.202,0.608-0.608,0.608
			C466.301,378.687,466.098,378.484,466.098,378.078z M466.098,380.445c0-0.405,0.203-0.608,0.608-0.608
			c0.406,0,0.608,0.203,0.608,0.608s-0.202,0.608-0.608,0.608C466.301,381.053,466.098,380.85,466.098,380.445z M466.098,382.608
			c0-0.405,0.203-0.608,0.608-0.608c0.406,0,0.608,0.203,0.608,0.608s-0.202,0.608-0.608,0.608
			C466.301,383.216,466.098,383.013,466.098,382.608z M466.098,386.799c0-0.405,0.203-0.608,0.608-0.608
			c0.406,0,0.608,0.203,0.608,0.608s-0.202,0.608-0.608,0.608C466.301,387.407,466.098,387.204,466.098,386.799z M466.098,388.895
			c0-0.405,0.203-0.608,0.608-0.608c0.406,0,0.608,0.203,0.608,0.608s-0.202,0.608-0.608,0.608
			C466.301,389.503,466.098,389.3,466.098,388.895z M466.098,391.261c0-0.405,0.203-0.608,0.608-0.608
			c0.406,0,0.608,0.203,0.608,0.608s-0.202,0.608-0.608,0.608C466.301,391.869,466.098,391.666,466.098,391.261z M466.098,393.627
			c0-0.406,0.203-0.608,0.608-0.608c0.406,0,0.608,0.202,0.608,0.608c0,0.405-0.202,0.608-0.608,0.608
			C466.301,394.236,466.098,394.032,466.098,393.627z M466.098,395.993c0-0.406,0.203-0.608,0.608-0.608
			c0.406,0,0.608,0.202,0.608,0.608c0,0.405-0.202,0.608-0.608,0.608C466.301,396.602,466.098,396.399,466.098,395.993z
			 M466.098,398.629c0-0.405,0.203-0.608,0.608-0.608c0.406,0,0.608,0.203,0.608,0.608c0,0.406-0.202,0.608-0.608,0.608
			C466.301,399.238,466.098,399.035,466.098,398.629z M466.098,400.793c0-0.406,0.203-0.608,0.608-0.608
			c0.406,0,0.608,0.202,0.608,0.608c0,0.405-0.202,0.608-0.608,0.608C466.301,401.402,466.098,401.198,466.098,400.793z
			 M466.098,402.821c0-0.405,0.203-0.608,0.608-0.608c0.406,0,0.608,0.203,0.608,0.608c0,0.406-0.202,0.608-0.608,0.608
			C466.301,403.429,466.098,403.227,466.098,402.821z M466.098,404.916c0-0.405,0.203-0.608,0.608-0.608
			c0.406,0,0.608,0.203,0.608,0.608c0,0.406-0.202,0.608-0.608,0.608C466.301,405.525,466.098,405.323,466.098,404.916z
			 M470.695,383.352h2.027v0.811h-2.027V383.352z"/>
		<path fill="#333333" d="M471.709,364.694h32.989v1.689h-26.771c0.226,0.136,0.338,0.316,0.338,0.541
			c0,0.405-0.202,0.608-0.608,0.608c-0.405,0-0.608-0.203-0.608-0.608c0-0.225,0.112-0.405,0.338-0.541h-5.678V364.694z
			 M471.709,407.079h5.272v-0.202c0-0.406,0.203-0.608,0.608-0.608s0.608,0.202,0.608,0.608c0,0.091-0.023,0.158-0.067,0.202h0.879
			c-0.046-0.044-0.067-0.157-0.067-0.338c0-0.405,0.202-0.608,0.608-0.608c0.405,0,0.608,0.203,0.608,0.608
			c0,0.136-0.046,0.248-0.136,0.338h1.149c-0.046-0.044-0.067-0.157-0.067-0.338c0-0.405,0.202-0.608,0.608-0.608
			c0.405,0,0.608,0.203,0.608,0.608c0,0.136-0.046,0.248-0.136,0.338h1.015c-0.046-0.044-0.067-0.157-0.067-0.338
			c0-0.405,0.202-0.608,0.608-0.608c0.405,0,0.608,0.203,0.608,0.608c0,0.136-0.046,0.248-0.136,0.338h1.082
			c-0.046-0.044-0.068-0.157-0.068-0.338c0-0.405,0.203-0.608,0.609-0.608c0.405,0,0.608,0.203,0.608,0.608
			c0,0.136-0.046,0.248-0.136,0.338h1.353c-0.046-0.044-0.068-0.157-0.068-0.338c0-0.405,0.203-0.608,0.608-0.608
			c0.406,0,0.608,0.203,0.608,0.608c0,0.136-0.045,0.248-0.135,0.338h1.487c-0.046-0.044-0.067-0.157-0.067-0.338
			c0-0.405,0.202-0.608,0.608-0.608c0.405,0,0.608,0.203,0.608,0.608c0,0.136-0.046,0.248-0.136,0.338h1.353
			c-0.046-0.044-0.067-0.157-0.067-0.338c0-0.405,0.202-0.608,0.608-0.608c0.405,0,0.608,0.203,0.608,0.608
			c0,0.136-0.046,0.248-0.136,0.338h1.149c-0.046-0.044-0.067-0.157-0.067-0.338c0-0.405,0.202-0.608,0.608-0.608
			c0.405,0,0.608,0.203,0.608,0.608c0,0.136-0.046,0.248-0.136,0.338h1.149c-0.045-0.044-0.067-0.157-0.067-0.338
			c0-0.405,0.203-0.608,0.608-0.608s0.608,0.203,0.608,0.608c0,0.136-0.046,0.248-0.136,0.338h1.015
			c-0.046-0.044-0.067-0.157-0.067-0.338c0-0.405,0.202-0.608,0.608-0.608c0.405,0,0.608,0.203,0.608,0.608
			c0,0.136-0.046,0.248-0.136,0.338h4.8v1.69h-32.989V407.079z M471.776,383.352h5.205v0.811h-5.205V383.352z M477.049,369.087
			c0-0.405,0.203-0.608,0.608-0.608c0.406,0,0.608,0.203,0.608,0.608c0,0.406-0.202,0.608-0.608,0.608
			C477.252,369.696,477.049,369.493,477.049,369.087z M477.049,371.115c0-0.405,0.203-0.608,0.608-0.608
			c0.406,0,0.608,0.203,0.608,0.608s-0.202,0.608-0.608,0.608C477.252,371.724,477.049,371.521,477.049,371.115z M477.049,373.211
			c0-0.405,0.203-0.608,0.608-0.608c0.406,0,0.608,0.203,0.608,0.608s-0.202,0.608-0.608,0.608
			C477.252,373.82,477.049,373.616,477.049,373.211z M477.049,375.577c0-0.406,0.203-0.608,0.608-0.608
			c0.406,0,0.608,0.202,0.608,0.608c0,0.405-0.202,0.608-0.608,0.608C477.252,376.186,477.049,375.983,477.049,375.577z
			 M477.049,378.078c0-0.405,0.203-0.608,0.608-0.608c0.406,0,0.608,0.203,0.608,0.608s-0.202,0.608-0.608,0.608
			C477.252,378.687,477.049,378.484,477.049,378.078z M477.049,380.445c0-0.405,0.203-0.608,0.608-0.608
			c0.406,0,0.608,0.203,0.608,0.608s-0.202,0.608-0.608,0.608C477.252,381.053,477.049,380.85,477.049,380.445z M477.049,382.608
			c0-0.405,0.203-0.608,0.608-0.608c0.406,0,0.608,0.203,0.608,0.608s-0.202,0.608-0.608,0.608
			C477.252,383.216,477.049,383.013,477.049,382.608z M477.049,384.771c0-0.405,0.203-0.608,0.608-0.608
			c0.406,0,0.608,0.203,0.608,0.608c0,0.406-0.202,0.608-0.608,0.608C477.252,385.379,477.049,385.177,477.049,384.771z
			 M477.049,386.799c0-0.405,0.203-0.608,0.608-0.608c0.406,0,0.608,0.203,0.608,0.608s-0.202,0.608-0.608,0.608
			C477.252,387.407,477.049,387.204,477.049,386.799z M477.049,388.895c0-0.405,0.203-0.608,0.608-0.608
			c0.406,0,0.608,0.203,0.608,0.608s-0.202,0.608-0.608,0.608C477.252,389.503,477.049,389.3,477.049,388.895z M477.049,391.261
			c0-0.405,0.203-0.608,0.608-0.608c0.406,0,0.608,0.203,0.608,0.608s-0.202,0.608-0.608,0.608
			C477.252,391.869,477.049,391.666,477.049,391.261z M477.049,393.627c0-0.406,0.203-0.608,0.608-0.608
			c0.406,0,0.608,0.202,0.608,0.608c0,0.405-0.202,0.608-0.608,0.608C477.252,394.236,477.049,394.032,477.049,393.627z
			 M477.049,395.993c0-0.406,0.203-0.608,0.608-0.608c0.406,0,0.608,0.202,0.608,0.608c0,0.405-0.202,0.608-0.608,0.608
			C477.252,396.602,477.049,396.399,477.049,395.993z M477.049,398.629c0-0.405,0.203-0.608,0.608-0.608
			c0.406,0,0.608,0.203,0.608,0.608c0,0.406-0.202,0.608-0.608,0.608C477.252,399.238,477.049,399.035,477.049,398.629z
			 M477.049,400.793c0-0.406,0.203-0.608,0.608-0.608c0.406,0,0.608,0.202,0.608,0.608c0,0.405-0.202,0.608-0.608,0.608
			C477.252,401.402,477.049,401.198,477.049,400.793z M477.049,402.821c0-0.405,0.203-0.608,0.608-0.608
			c0.406,0,0.608,0.203,0.608,0.608c0,0.406-0.202,0.608-0.608,0.608C477.252,403.429,477.049,403.227,477.049,402.821z
			 M477.049,404.916c0-0.405,0.203-0.608,0.608-0.608c0.406,0,0.608,0.203,0.608,0.608c0,0.406-0.202,0.608-0.608,0.608
			C477.252,405.525,477.049,405.323,477.049,404.916z M478.604,383.352h5.206v0.811h-5.206V383.352z M485.229,383.352h5.206v0.811
			h-5.206V383.352z M492.057,383.352h5.205v0.811h-5.205V383.352z M498.614,383.352h5.205v0.811h-5.205V383.352z"/>
	</g>
</g>
</svg>
