<?xml version="1.0" encoding="utf-8"?>
<!-- Generator: Adobe Illustrator 16.0.0, SVG Export Plug-In . SVG Version: 6.00 Build 0)  -->
<!DOCTYPE svg PUBLIC "-//W3C//DTD SVG 1.1//EN" "http://www.w3.org/Graphics/SVG/1.1/DTD/svg11.dtd">
<svg version="1.1" id="Calque_1" xmlns="http://www.w3.org/2000/svg" xmlns:xlink="http://www.w3.org/1999/xlink" x="0px" y="0px"
	 width="800px" height="600px" viewBox="0 0 800 600" enable-background="new 0 0 800 600" xml:space="preserve">
<pattern  x="0.5" y="600.5" width="176.991" height="176.991" patternUnits="userSpaceOnUse" id="Nouvelle_nuance_de_motif_1" viewBox="0 -176.991 176.991 176.991" overflow="visible">
	<g>
		<polygon fill="none" points="0,0 176.991,0 176.991,-176.99 0,-176.99 		"/>
		<g>
			<polygon fill="none" points="0,-176.99 176.991,-176.99 176.991,0 0,0 			"/>
			<polygon fill="#FDFFC7" points="176.991,-176.99 0,-176.99 0,0 176.991,0 			"/>
			<polygon fill="#E1E4BC" points="2.991,-176.99 0,-176.99 0,0 2.991,0 			"/>
			<polygon fill="#EBF1C0" points="24.43,-176.99 22.561,-176.99 22.561,0 24.43,0 			"/>
			<polygon fill="#EBF1C0" points="69.097,-176.99 67.228,-176.99 67.228,0 69.097,0 			"/>
			<polygon fill="#EBF1C0" points="113.764,-176.99 111.895,-176.99 111.895,0 113.764,0 			"/>
			<polygon fill="#EBF1C0" points="158.431,-176.99 156.562,-176.99 156.562,0 158.431,0 			"/>
			<polygon fill="#EBF1C0" points="176.991,-155.56 176.991,-157.43 0,-157.43 0,-155.56 			"/>
			<polygon fill="#EBF1C0" points="176.991,-110.893 176.991,-112.763 0,-112.763 0,-110.893 			"/>
			<polygon fill="#EBF1C0" points="176.991,-66.226 176.991,-68.096 0,-68.096 0,-66.226 			"/>
			<polygon fill="#EBF1C0" points="176.991,-21.559 176.991,-23.429 0,-23.429 0,-21.559 			"/>
			<polygon fill="#E1E4BC" points="47.657,-176.99 44.667,-176.99 44.667,0 47.657,0 			"/>
			<polygon fill="#E1E4BC" points="92.324,-176.99 89.333,-176.99 89.333,0 92.324,0 			"/>
			<polygon fill="#E1E4BC" points="136.99,-176.99 134,-176.99 134,0 136.99,0 			"/>
			<polygon fill="#E1E4BC" points="0,-2.99 0,0 176.991,0 176.991,-2.99 			"/>
			<polygon fill="#E1E4BC" points="0,-47.656 0,-44.667 176.991,-44.667 176.991,-47.656 			"/>
			<polygon fill="#E1E4BC" points="0,-92.324 0,-89.332 176.991,-89.332 176.991,-92.324 			"/>
			<polygon fill="#E1E4BC" points="0,-136.99 0,-134 176.991,-134 176.991,-136.99 			"/>
		</g>
	</g>
</pattern>
<g id="Calque_2">
	<pattern  id="SVGID_1_" xlink:href="#Nouvelle_nuance_de_motif_1" patternTransform="matrix(1 0 0 -1 0 -17521.7715)">
	</pattern>
	<rect y="0" opacity="0.5" fill="url(#SVGID_1_)" enable-background="new    " width="600.5" height="598.5"/>
	<polygon fill="#111111" points="318.095,566.076 5.11,600 512.085,600 	"/>
	
		<linearGradient id="SVGID_2_" gradientUnits="userSpaceOnUse" x1="556.2969" y1="54.927" x2="392.1516" y2="13.8912" gradientTransform="matrix(1 0 0 -1 -20.9902 603.4009)">
		<stop  offset="0" style="stop-color:#4E4E4E"/>
		<stop  offset="0.0547" style="stop-color:#474747"/>
		<stop  offset="0.2045" style="stop-color:#3C3C3C"/>
		<stop  offset="0.4149" style="stop-color:#353535"/>
		<stop  offset="1" style="stop-color:#333333"/>
	</linearGradient>
	<polygon fill="url(#SVGID_2_)" points="541.584,504.579 318.095,566.076 494.5,601 	"/>
	<polygon fill="#262626" points="563.898,445.59 489.834,600 573.082,527.889 	"/>
	<polygon fill="#141414" points="563.5,522.532 490.5,600.166 574.5,600.166 	"/>
	<rect x="563.674" y="0.984" fill="#141414" width="238.326" height="599.458"/>
</g>
<rect x="135.089" y="29.248" fill="#E2E2E2" stroke="#4C4C4C" stroke-miterlimit="10" width="91.232" height="91.231"/>
<rect x="32.109" y="29.248" fill="#E2E2E2" stroke="#4C4C4C" stroke-miterlimit="10" width="91.231" height="91.231"/>
<rect x="238.759" y="29.248" fill="#E2E2E2" stroke="#4C4C4C" stroke-miterlimit="10" width="90.54" height="91.231"/>
<rect x="32.627" y="236.116" fill="#E2E2E2" stroke="#4C4C4C" stroke-miterlimit="10" width="91.23" height="91.231"/>
<rect x="135.607" y="236.116" fill="#E2E2E2" stroke="#4C4C4C" stroke-miterlimit="10" width="91.229" height="91.231"/>
<rect x="238.587" y="236.116" fill="#E2E2E2" stroke="#4C4C4C" stroke-miterlimit="10" width="90.541" height="91.231"/>
<rect x="32.109" y="132.919" fill="#E2E2E2" stroke="#4C4C4C" stroke-miterlimit="10" width="91.231" height="91.23"/>
<rect x="135.089" y="132.919" fill="#E2E2E2" stroke="#4C4C4C" stroke-miterlimit="10" width="91.232" height="91.23"/>
<rect x="238.759" y="132.919" fill="#E2E2E2" stroke="#4C4C4C" stroke-miterlimit="10" width="90.54" height="91.23"/>
<rect x="341.05" y="30.111" fill="#E2E2E2" stroke="#4C4C4C" stroke-miterlimit="10" width="91.229" height="91.23"/>
<rect x="33.189" y="337.803" fill="#E2E2E2" stroke="#4C4C4C" stroke-miterlimit="10" width="91.229" height="91.229"/>
<rect x="136.17" y="337.803" fill="#E2E2E2" stroke="#4C4C4C" stroke-miterlimit="10" width="90.541" height="91.229"/>
<rect x="341.05" y="132.055" fill="#E2E2E2" stroke="#4C4C4C" stroke-miterlimit="10" width="91.229" height="91.232"/>
<rect x="443.794" y="132.033" fill="#E2E2E2" stroke="#4C4C4C" stroke-miterlimit="10" width="91.229" height="91.232"/>
<rect x="444.394" y="234.447" fill="#E2E2E2" stroke="#4C4C4C" stroke-miterlimit="10" width="90.541" height="91.232"/>
<rect x="443.458" y="31.073" fill="#E2E2E2" stroke="#4C4C4C" stroke-miterlimit="10" width="91.228" height="91.231"/>
<rect x="341.084" y="235.967" fill="#E2E2E2" stroke="#4C4C4C" stroke-miterlimit="10" width="91.229" height="91.232"/>
<rect x="238.275" y="337.705" fill="#E2E2E2" stroke="#4C4C4C" stroke-miterlimit="10" width="90.54" height="91.232"/>
<rect x="601.354" y="38.599" fill="#1D2121" width="161.521" height="11.576"/>
<g>
	<g enable-background="new    ">
		<path fill="#475656" d="M606.47,33.65c-0.315,0.148-0.946,0.296-1.754,0.296c-1.873,0-3.283-1.112-3.283-3.159
			c0-1.954,1.41-3.279,3.47-3.279c0.828,0,1.351,0.167,1.577,0.278l-0.207,0.658c-0.325-0.148-0.788-0.259-1.34-0.259
			c-1.558,0-2.593,0.936-2.593,2.575c0,1.528,0.937,2.51,2.553,2.51c0.522,0,1.055-0.102,1.4-0.259L606.47,33.65z"/>
		<path fill="#475656" d="M613.013,30.668c0,2.149-1.39,3.288-3.085,3.288c-1.755,0-2.987-1.278-2.987-3.168
			c0-1.982,1.312-3.279,3.086-3.279C611.84,27.509,613.013,28.815,613.013,30.668z M607.857,30.769c0,1.334,0.769,2.529,2.119,2.529
			c1.36,0,2.129-1.176,2.129-2.593c0-1.241-0.689-2.538-2.119-2.538C608.567,28.167,607.857,29.399,607.857,30.769z"/>
		<path fill="#475656" d="M614.123,27.695c0.522-0.074,1.144-0.13,1.823-0.13c1.232,0,2.11,0.269,2.691,0.778
			c0.592,0.509,0.937,1.231,0.937,2.241c0,1.019-0.335,1.853-0.956,2.427c-0.621,0.583-1.646,0.898-2.938,0.898
			c-0.611,0-1.124-0.028-1.558-0.074V27.695z M614.98,33.215c0.217,0.037,0.532,0.046,0.868,0.046c1.833,0,2.828-0.963,2.828-2.649
			c0.011-1.473-0.877-2.408-2.69-2.408c-0.443,0-0.779,0.037-1.006,0.083V33.215z"/>
		<path fill="#475656" d="M624.125,30.927h-2.583v2.25h2.879v0.676h-3.736v-6.243h3.588v0.676h-2.73v1.973h2.583V30.927z"/>
	</g>
</g>
<rect x="601.354" y="74.368" fill="#1D2121" width="161.521" height="11.574"/>
<g>
	<g enable-background="new    ">
		<path fill="#475656" d="M602.685,63.674v2.612h3.214v-2.612h0.867v6.243h-0.867V66.99h-3.214v2.927h-0.857v-6.243H602.685z"/>
		<path fill="#475656" d="M609.513,64.359h-2.021v-0.686h4.919v0.686h-2.031v5.557h-0.867V64.359z"/>
		<path fill="#475656" d="M618.746,67.175c-0.049-0.871-0.108-1.917-0.099-2.695h-0.029c-0.227,0.732-0.503,1.51-0.838,2.371
			l-1.173,3.029h-0.65l-1.074-2.973c-0.315-0.88-0.582-1.686-0.77-2.427h-0.02c-0.02,0.778-0.069,1.825-0.128,2.76l-0.178,2.677
			h-0.818l0.464-6.243h1.094l1.134,3.02c0.276,0.769,0.503,1.454,0.67,2.103h0.03c0.167-0.63,0.404-1.315,0.699-2.103l1.184-3.02
			h1.094l0.414,6.243h-0.838L618.746,67.175z"/>
		<path fill="#475656" d="M621.069,63.674h0.857v5.566h2.839v0.676h-3.696V63.674z"/>
	</g>
</g>
<rect x="601.354" y="111.238" fill="#1D2121" width="161.521" height="9.924"/>
<g>
	<g enable-background="new    ">
		<path fill="#475656" d="M606.47,105.775c-0.315,0.148-0.946,0.296-1.754,0.296c-1.873,0-3.283-1.112-3.283-3.159
			c0-1.954,1.41-3.279,3.47-3.279c0.828,0,1.351,0.167,1.577,0.278l-0.207,0.658c-0.325-0.148-0.788-0.259-1.34-0.259
			c-1.558,0-2.593,0.936-2.593,2.575c0,1.528,0.937,2.51,2.553,2.51c0.522,0,1.055-0.102,1.4-0.259L606.47,105.775z"/>
		<path fill="#475656" d="M607.424,104.997c0.385,0.223,0.946,0.408,1.538,0.408c0.877,0,1.39-0.436,1.39-1.065
			c0-0.583-0.355-0.917-1.252-1.241c-1.084-0.361-1.755-0.889-1.755-1.769c0-0.973,0.857-1.695,2.149-1.695
			c0.68,0,1.173,0.148,1.469,0.306l-0.237,0.658c-0.217-0.111-0.66-0.296-1.262-0.296c-0.906,0-1.251,0.509-1.251,0.936
			c0,0.583,0.403,0.871,1.32,1.204c1.124,0.408,1.695,0.917,1.695,1.834c0,0.963-0.759,1.797-2.326,1.797
			c-0.641,0-1.341-0.176-1.695-0.398L607.424,104.997z"/>
		<path fill="#475656" d="M612.28,104.997c0.385,0.223,0.946,0.408,1.538,0.408c0.877,0,1.39-0.436,1.39-1.065
			c0-0.583-0.355-0.917-1.252-1.241c-1.084-0.361-1.755-0.889-1.755-1.769c0-0.973,0.857-1.695,2.149-1.695
			c0.68,0,1.173,0.148,1.469,0.306l-0.237,0.658c-0.217-0.111-0.66-0.296-1.262-0.296c-0.906,0-1.252,0.509-1.252,0.936
			c0,0.583,0.404,0.871,1.321,1.204c1.124,0.408,1.695,0.917,1.695,1.834c0,0.963-0.759,1.797-2.326,1.797
			c-0.641,0-1.341-0.176-1.695-0.398L612.28,104.997z"/>
	</g>
</g>
<rect x="601.354" y="147.006" fill="#1D2121" width="161.521" height="10.475"/>
<g>
	<g enable-background="new    ">
		<path fill="#475656" d="M601.827,135.875c0.414-0.065,0.956-0.121,1.646-0.121c0.848,0,1.469,0.186,1.862,0.519
			c0.365,0.296,0.582,0.75,0.582,1.306c0,0.565-0.178,1.01-0.513,1.334c-0.453,0.454-1.192,0.685-2.03,0.685
			c-0.257,0-0.493-0.009-0.69-0.056v2.501h-0.857V135.875z M602.685,138.885c0.188,0.046,0.424,0.064,0.71,0.064
			c1.035,0,1.666-0.472,1.666-1.333c0-0.824-0.621-1.223-1.567-1.223c-0.375,0-0.66,0.028-0.809,0.065V138.885z"/>
		<path fill="#475656" d="M607.926,135.801v2.612h3.214v-2.612h0.867v6.243h-0.867v-2.927h-3.214v2.927h-0.857v-6.243H607.926z"/>
		<path fill="#475656" d="M613.492,135.875c0.414-0.065,0.956-0.121,1.646-0.121c0.848,0,1.469,0.186,1.863,0.519
			c0.364,0.296,0.581,0.75,0.581,1.306c0,0.565-0.178,1.01-0.513,1.334c-0.453,0.454-1.192,0.685-2.03,0.685
			c-0.257,0-0.493-0.009-0.69-0.056v2.501h-0.857V135.875z M614.35,138.885c0.188,0.046,0.424,0.064,0.71,0.064
			c1.035,0,1.666-0.472,1.666-1.333c0-0.824-0.621-1.223-1.567-1.223c-0.375,0-0.66,0.028-0.809,0.065V138.885z"/>
	</g>
</g>
<rect x="601.354" y="182.773" fill="#1D2121" width="161.521" height="11.027"/>
<g>
	<g enable-background="new    ">
		<path fill="#475656" d="M603.188,171.86h0.857v4.177c0,1.658-0.867,2.167-2.011,2.167c-0.315,0-0.7-0.065-0.917-0.148l0.129-0.658
			c0.177,0.065,0.434,0.121,0.719,0.121c0.77,0,1.223-0.324,1.223-1.547V171.86z"/>
		<path fill="#475656" d="M606.547,176.139l-0.689,1.963h-0.888l2.258-6.243h1.035l2.267,6.243h-0.916l-0.71-1.963H606.547z
			 M608.726,175.51l-0.65-1.797c-0.148-0.408-0.246-0.778-0.345-1.139h-0.021c-0.099,0.37-0.207,0.75-0.335,1.13l-0.65,1.806
			H608.726z"/>
		<path fill="#475656" d="M612.439,178.103l-2.169-6.243h0.927l1.035,3.075c0.286,0.843,0.532,1.602,0.71,2.334h0.02
			c0.188-0.723,0.463-1.51,0.759-2.325l1.124-3.084h0.917l-2.376,6.243H612.439z"/>
		<path fill="#475656" d="M616.991,176.139l-0.689,1.963h-0.888l2.258-6.243h1.035l2.267,6.243h-0.917l-0.709-1.963H616.991z
			 M619.17,175.51l-0.65-1.797c-0.148-0.408-0.246-0.778-0.345-1.139h-0.021c-0.099,0.37-0.207,0.75-0.335,1.13l-0.65,1.806H619.17z
			"/>
	</g>
</g>
<rect x="601.354" y="219.094" fill="#1D2121" width="161.521" height="11.024"/>
<g>
	<g enable-background="new    ">
		<path fill="#475656" d="M603.188,207.926h0.857v4.177c0,1.658-0.867,2.167-2.011,2.167c-0.315,0-0.7-0.065-0.917-0.148
			l0.129-0.658c0.177,0.065,0.434,0.121,0.719,0.121c0.77,0,1.223-0.324,1.223-1.547V207.926z"/>
		<path fill="#475656" d="M606.547,212.205l-0.689,1.963h-0.888l2.258-6.243h1.035l2.267,6.243h-0.916l-0.71-1.963H606.547z
			 M608.726,211.575l-0.65-1.797c-0.148-0.408-0.246-0.778-0.345-1.139h-0.021c-0.099,0.37-0.207,0.75-0.335,1.13l-0.65,1.806
			H608.726z"/>
		<path fill="#475656" d="M612.439,214.168l-2.169-6.243h0.927l1.035,3.075c0.286,0.843,0.532,1.602,0.71,2.334h0.02
			c0.188-0.723,0.463-1.51,0.759-2.325l1.124-3.084h0.917l-2.376,6.243H612.439z"/>
		<path fill="#475656" d="M616.991,212.205l-0.689,1.963h-0.888l2.258-6.243h1.035l2.267,6.243h-0.917l-0.709-1.963H616.991z
			 M619.17,211.575l-0.65-1.797c-0.148-0.408-0.246-0.778-0.345-1.139h-0.021c-0.099,0.37-0.207,0.75-0.335,1.13l-0.65,1.806H619.17
			z"/>
		<path fill="#475656" d="M621.828,213.186c0.385,0.223,0.946,0.408,1.538,0.408c0.877,0,1.39-0.436,1.39-1.065
			c0-0.583-0.355-0.917-1.252-1.241c-1.084-0.361-1.755-0.889-1.755-1.769c0-0.973,0.857-1.695,2.149-1.695
			c0.68,0,1.173,0.148,1.469,0.306l-0.237,0.658c-0.217-0.111-0.66-0.296-1.262-0.296c-0.906,0-1.251,0.509-1.251,0.936
			c0,0.583,0.403,0.871,1.32,1.204c1.124,0.408,1.695,0.917,1.695,1.834c0,0.963-0.759,1.797-2.326,1.797
			c-0.641,0-1.341-0.176-1.695-0.398L621.828,213.186z"/>
		<path fill="#475656" d="M631.446,213.965c-0.315,0.148-0.946,0.296-1.754,0.296c-1.873,0-3.283-1.112-3.283-3.159
			c0-1.954,1.41-3.279,3.47-3.279c0.828,0,1.351,0.167,1.577,0.278l-0.207,0.658c-0.325-0.148-0.788-0.259-1.34-0.259
			c-1.558,0-2.593,0.936-2.593,2.575c0,1.528,0.937,2.51,2.553,2.51c0.522,0,1.055-0.102,1.4-0.259L631.446,213.965z"/>
		<path fill="#475656" d="M632.519,208.009c0.434-0.083,1.055-0.13,1.646-0.13c0.917,0,1.508,0.158,1.922,0.51
			c0.335,0.278,0.522,0.704,0.522,1.186c0,0.824-0.552,1.371-1.252,1.593v0.028c0.513,0.167,0.818,0.611,0.976,1.26
			c0.217,0.871,0.375,1.473,0.513,1.713h-0.887c-0.108-0.176-0.257-0.713-0.443-1.491c-0.197-0.861-0.553-1.186-1.331-1.213h-0.809
			v2.705h-0.857V208.009z M633.376,210.852h0.878c0.916,0,1.498-0.472,1.498-1.186c0-0.806-0.621-1.158-1.528-1.167
			c-0.414,0-0.709,0.037-0.848,0.074V210.852z"/>
		<path fill="#475656" d="M638.677,207.926v6.243h-0.857v-6.243H638.677z"/>
		<path fill="#475656" d="M640.174,208c0.414-0.065,0.956-0.121,1.646-0.121c0.848,0,1.469,0.186,1.863,0.519
			c0.364,0.296,0.581,0.75,0.581,1.306c0,0.565-0.178,1.01-0.513,1.334c-0.453,0.454-1.192,0.685-2.03,0.685
			c-0.257,0-0.493-0.009-0.69-0.056v2.501h-0.857V208z M641.031,211.01c0.188,0.046,0.424,0.064,0.71,0.064
			c1.035,0,1.666-0.472,1.666-1.333c0-0.824-0.621-1.223-1.567-1.223c-0.375,0-0.66,0.028-0.809,0.065V211.01z"/>
		<path fill="#475656" d="M646.677,208.611h-2.021v-0.686h4.919v0.686h-2.031v5.557h-0.867V208.611z"/>
	</g>
</g>
<rect x="601.354" y="254.861" fill="#1D2121" width="161.521" height="11.025"/>
<g>
	<g enable-background="new    ">
		<path fill="#475656" d="M607.426,244.489c-0.049-0.871-0.108-1.917-0.099-2.695h-0.029c-0.227,0.732-0.503,1.51-0.838,2.371
			l-1.173,3.029h-0.65l-1.074-2.973c-0.315-0.88-0.582-1.686-0.77-2.427h-0.02c-0.02,0.778-0.069,1.825-0.128,2.76l-0.178,2.677
			h-0.818l0.464-6.243h1.094l1.134,3.02c0.276,0.769,0.503,1.454,0.67,2.103h0.03c0.167-0.63,0.404-1.315,0.699-2.103l1.184-3.02
			h1.094l0.414,6.243h-0.838L607.426,244.489z"/>
		<path fill="#475656" d="M611.228,247.231v-2.649l-2.1-3.594h0.976l0.937,1.723c0.257,0.473,0.454,0.852,0.661,1.288h0.02
			c0.188-0.408,0.414-0.815,0.67-1.288l0.956-1.723h0.977l-2.229,3.584v2.658H611.228z"/>
		<path fill="#475656" d="M614.833,246.249c0.385,0.223,0.946,0.408,1.538,0.408c0.877,0,1.39-0.436,1.39-1.065
			c0-0.583-0.355-0.917-1.252-1.241c-1.084-0.361-1.755-0.889-1.755-1.769c0-0.973,0.857-1.695,2.149-1.695
			c0.68,0,1.173,0.148,1.469,0.306l-0.237,0.658c-0.217-0.111-0.66-0.296-1.262-0.296c-0.906,0-1.252,0.509-1.252,0.936
			c0,0.583,0.404,0.871,1.321,1.204c1.124,0.408,1.695,0.917,1.695,1.834c0,0.963-0.759,1.797-2.326,1.797
			c-0.641,0-1.341-0.176-1.695-0.398L614.833,246.249z"/>
		<path fill="#475656" d="M625.289,248.148c-0.896-0.222-1.774-0.473-2.543-0.723c-0.138-0.046-0.276-0.092-0.404-0.092
			c-1.577-0.056-2.928-1.148-2.928-3.159c0-2,1.302-3.288,3.096-3.288c1.804,0,2.977,1.315,2.977,3.159
			c0,1.602-0.788,2.63-1.893,2.992v0.037c0.66,0.157,1.38,0.306,1.942,0.398L625.289,248.148z M624.58,244.082
			c0-1.25-0.69-2.538-2.1-2.538c-1.449,0-2.159,1.26-2.149,2.612c-0.01,1.325,0.769,2.52,2.109,2.52
			C623.811,246.675,624.58,245.508,624.58,244.082z"/>
		<path fill="#475656" d="M626.597,240.988h0.857v5.566h2.839v0.676h-3.696V240.988z"/>
	</g>
</g>
<rect x="601.293" y="291.599" fill="#1D2121" width="161.521" height="11.576"/>
<g>
	<g enable-background="new    ">
		<path fill="#475656" d="M606.822,286.576c-0.384,0.129-1.144,0.343-2.04,0.343c-1.006,0-1.834-0.241-2.484-0.824
			c-0.571-0.519-0.927-1.353-0.927-2.325c0.01-1.861,1.37-3.223,3.599-3.223c0.769,0,1.37,0.158,1.655,0.287l-0.207,0.658
			c-0.354-0.148-0.798-0.269-1.469-0.269c-1.616,0-2.671,0.945-2.671,2.51c0,1.583,1.016,2.519,2.563,2.519
			c0.563,0,0.946-0.074,1.144-0.167v-1.862h-1.351v-0.648h2.188V286.576z"/>
		<path fill="#475656" d="M608.131,280.695c0.434-0.083,1.055-0.13,1.646-0.13c0.916,0,1.508,0.158,1.922,0.51
			c0.335,0.278,0.522,0.704,0.522,1.186c0,0.824-0.552,1.371-1.252,1.593v0.028c0.513,0.167,0.818,0.611,0.976,1.26
			c0.217,0.871,0.375,1.473,0.513,1.713h-0.887c-0.108-0.176-0.257-0.713-0.443-1.491c-0.197-0.861-0.553-1.186-1.331-1.213h-0.809
			v2.705h-0.857V280.695z M608.988,283.538h0.878c0.916,0,1.498-0.472,1.498-1.186c0-0.806-0.621-1.158-1.528-1.167
			c-0.414,0-0.709,0.037-0.848,0.074V283.538z"/>
		<path fill="#475656" d="M614.555,284.89l-0.689,1.963h-0.888l2.258-6.243h1.035l2.267,6.243h-0.916l-0.71-1.963H614.555z
			 M616.733,284.26l-0.65-1.797c-0.148-0.408-0.246-0.778-0.345-1.139h-0.021c-0.099,0.37-0.207,0.75-0.335,1.13l-0.65,1.806
			H616.733z"/>
		<path fill="#475656" d="M619.51,280.685c0.414-0.065,0.956-0.121,1.646-0.121c0.848,0,1.469,0.186,1.863,0.519
			c0.364,0.296,0.581,0.75,0.581,1.306c0,0.565-0.178,1.01-0.513,1.334c-0.453,0.454-1.192,0.685-2.03,0.685
			c-0.257,0-0.493-0.009-0.69-0.056v2.501h-0.857V280.685z M620.367,283.696c0.188,0.046,0.424,0.064,0.71,0.064
			c1.035,0,1.666-0.472,1.666-1.333c0-0.824-0.621-1.223-1.567-1.223c-0.375,0-0.66,0.028-0.809,0.065V283.696z"/>
		<path fill="#475656" d="M625.609,280.611v2.612h3.214v-2.612h0.867v6.243h-0.867v-2.927h-3.214v2.927h-0.857v-6.243H625.609z"/>
		<path fill="#475656" d="M632.033,280.611v6.243h-0.857v-6.243H632.033z"/>
		<path fill="#475656" d="M633.412,285.872c0.385,0.223,0.946,0.408,1.538,0.408c0.877,0,1.39-0.436,1.39-1.065
			c0-0.583-0.355-0.917-1.252-1.241c-1.084-0.361-1.755-0.889-1.755-1.769c0-0.973,0.857-1.695,2.149-1.695
			c0.68,0,1.173,0.148,1.469,0.306l-0.237,0.658c-0.217-0.111-0.66-0.296-1.262-0.296c-0.906,0-1.251,0.509-1.251,0.936
			c0,0.583,0.403,0.871,1.32,1.204c1.124,0.408,1.695,0.917,1.695,1.834c0,0.963-0.759,1.797-2.326,1.797
			c-0.641,0-1.341-0.176-1.695-0.398L633.412,285.872z"/>
		<path fill="#475656" d="M643.986,284.112c-0.049-0.871-0.108-1.917-0.099-2.695h-0.029c-0.227,0.732-0.503,1.51-0.838,2.371
			l-1.173,3.029h-0.65l-1.074-2.973c-0.315-0.88-0.582-1.686-0.77-2.427h-0.02c-0.02,0.778-0.069,1.825-0.128,2.76l-0.178,2.677
			h-0.818l0.464-6.243h1.094l1.134,3.02c0.276,0.769,0.503,1.454,0.67,2.103h0.03c0.167-0.63,0.404-1.315,0.699-2.103l1.184-3.02
			h1.094l0.414,6.243h-0.838L643.986,284.112z"/>
		<path fill="#475656" d="M649.75,283.927h-2.583v2.25h2.879v0.676h-3.736v-6.243h3.588v0.676h-2.73v1.973h2.583V283.927z"/>
	</g>
</g>
<rect x="601.293" y="327.367" fill="#1D2121" width="161.521" height="11.575"/>
<g>
	<g enable-background="new    ">
		<path fill="#475656" d="M601.766,316.747c0.414-0.064,0.956-0.12,1.646-0.12c0.848,0,1.469,0.186,1.863,0.519
			c0.364,0.297,0.581,0.75,0.581,1.307c0,0.564-0.178,1.009-0.513,1.333c-0.453,0.454-1.192,0.686-2.03,0.686
			c-0.257,0-0.493-0.009-0.69-0.056v2.501h-0.857V316.747z M602.623,319.758c0.188,0.046,0.424,0.064,0.71,0.064
			c1.035,0,1.666-0.472,1.666-1.334c0-0.824-0.621-1.222-1.567-1.222c-0.375,0-0.66,0.027-0.809,0.064V319.758z"/>
		<path fill="#475656" d="M607.864,316.674v2.611h3.214v-2.611h0.867v6.242h-0.867v-2.927h-3.214v2.927h-0.857v-6.242H607.864z"/>
		<path fill="#475656" d="M619.108,319.73c0,2.149-1.39,3.288-3.085,3.288c-1.755,0-2.987-1.278-2.987-3.167
			c0-1.982,1.312-3.279,3.086-3.279C617.936,316.572,619.108,317.877,619.108,319.73z M613.953,319.832
			c0,1.333,0.769,2.528,2.119,2.528c1.36,0,2.129-1.177,2.129-2.594c0-1.241-0.689-2.537-2.119-2.537
			C614.663,317.23,613.953,318.461,613.953,319.832z"/>
		<path fill="#475656" d="M621.235,317.359h-2.021v-0.685h4.919v0.685h-2.031v5.558h-0.867V317.359z"/>
		<path fill="#475656" d="M630.282,319.73c0,2.149-1.39,3.288-3.085,3.288c-1.755,0-2.987-1.278-2.987-3.167
			c0-1.982,1.312-3.279,3.086-3.279C629.109,316.572,630.282,317.877,630.282,319.73z M625.127,319.832
			c0,1.333,0.769,2.528,2.119,2.528c1.36,0,2.129-1.177,2.129-2.594c0-1.241-0.689-2.537-2.119-2.537
			C625.837,317.23,625.127,318.461,625.127,319.832z"/>
		<path fill="#475656" d="M631.274,321.935c0.385,0.222,0.946,0.407,1.538,0.407c0.877,0,1.39-0.436,1.39-1.065
			c0-0.583-0.355-0.917-1.252-1.241c-1.084-0.361-1.755-0.889-1.755-1.769c0-0.973,0.857-1.695,2.149-1.695
			c0.68,0,1.173,0.148,1.469,0.306l-0.237,0.658c-0.217-0.111-0.66-0.297-1.262-0.297c-0.906,0-1.252,0.51-1.252,0.936
			c0,0.584,0.404,0.871,1.321,1.204c1.124,0.407,1.695,0.917,1.695,1.834c0,0.963-0.759,1.797-2.326,1.797
			c-0.641,0-1.341-0.176-1.695-0.398L631.274,321.935z"/>
		<path fill="#475656" d="M637.107,316.674v2.611h3.214v-2.611h0.867v6.242h-0.867v-2.927h-3.214v2.927h-0.857v-6.242H637.107z"/>
		<path fill="#475656" d="M648.352,319.73c0,2.149-1.39,3.288-3.085,3.288c-1.755,0-2.987-1.278-2.987-3.167
			c0-1.982,1.312-3.279,3.086-3.279C647.179,316.572,648.352,317.877,648.352,319.73z M643.196,319.832
			c0,1.333,0.769,2.528,2.119,2.528c1.36,0,2.13-1.177,2.13-2.594c0-1.241-0.69-2.537-2.12-2.537
			C643.906,317.23,643.196,318.461,643.196,319.832z"/>
		<path fill="#475656" d="M649.462,316.747c0.414-0.064,0.956-0.12,1.646-0.12c0.848,0,1.469,0.186,1.862,0.519
			c0.365,0.297,0.582,0.75,0.582,1.307c0,0.564-0.178,1.009-0.513,1.333c-0.453,0.454-1.192,0.686-2.03,0.686
			c-0.257,0-0.493-0.009-0.69-0.056v2.501h-0.857V316.747z M650.319,319.758c0.188,0.046,0.424,0.064,0.71,0.064
			c1.035,0,1.666-0.472,1.666-1.334c0-0.824-0.621-1.222-1.567-1.222c-0.375,0-0.66,0.027-0.809,0.064V319.758z"/>
	</g>
</g>
<rect x="601.293" y="364.238" fill="#1D2121" width="161.521" height="9.923"/>
<g>
	<g enable-background="new    ">
		<path fill="#475656" d="M602.623,352.737v6.242h-0.857v-6.242H602.623z"/>
		<path fill="#475656" d="M604.12,352.737h0.857v5.566h2.839v0.676h-3.696V352.737z"/>
		<path fill="#475656" d="M608.771,352.737h0.857v5.566h2.839v0.676h-3.696V352.737z"/>
		<path fill="#475656" d="M613.924,352.737v3.695c0,1.398,0.661,1.991,1.548,1.991c0.985,0,1.616-0.611,1.616-1.991v-3.695h0.868
			v3.64c0,1.917-1.075,2.704-2.514,2.704c-1.36,0-2.386-0.731-2.386-2.667v-3.677H613.924z"/>
		<path fill="#475656" d="M619.323,357.997c0.385,0.222,0.946,0.407,1.538,0.407c0.877,0,1.39-0.436,1.39-1.065
			c0-0.583-0.355-0.917-1.252-1.241c-1.084-0.361-1.755-0.889-1.755-1.769c0-0.973,0.857-1.695,2.149-1.695
			c0.68,0,1.173,0.148,1.469,0.306l-0.237,0.658c-0.217-0.111-0.66-0.297-1.262-0.297c-0.906,0-1.252,0.51-1.252,0.936
			c0,0.584,0.404,0.871,1.321,1.204c1.124,0.407,1.695,0.917,1.695,1.834c0,0.963-0.759,1.797-2.326,1.797
			c-0.641,0-1.341-0.176-1.695-0.398L619.323,357.997z"/>
		<path fill="#475656" d="M625.56,353.421h-2.021v-0.685h4.919v0.685h-2.031v5.558h-0.867V353.421z"/>
		<path fill="#475656" d="M629.195,352.82c0.434-0.083,1.055-0.13,1.646-0.13c0.916,0,1.508,0.157,1.922,0.51
			c0.335,0.277,0.522,0.704,0.522,1.186c0,0.824-0.552,1.37-1.252,1.593v0.028c0.513,0.166,0.818,0.61,0.976,1.259
			c0.217,0.871,0.375,1.473,0.513,1.714h-0.887c-0.108-0.176-0.257-0.713-0.443-1.491c-0.197-0.861-0.553-1.186-1.331-1.213h-0.809
			v2.704h-0.857V352.82z M630.053,355.663h0.878c0.916,0,1.498-0.473,1.498-1.186c0-0.807-0.621-1.158-1.528-1.167
			c-0.414,0-0.709,0.037-0.848,0.073V355.663z"/>
		<path fill="#475656" d="M635.619,357.015l-0.689,1.964h-0.888l2.258-6.242h1.035l2.267,6.242h-0.916l-0.71-1.964H635.619z
			 M637.798,356.385l-0.65-1.797c-0.148-0.407-0.246-0.777-0.345-1.139h-0.021c-0.099,0.37-0.207,0.75-0.335,1.13l-0.65,1.806
			H637.798z"/>
		<path fill="#475656" d="M641.078,353.421h-2.021v-0.685h4.919v0.685h-2.031v5.558h-0.867V353.421z"/>
		<path fill="#475656" d="M650.125,355.792c0,2.149-1.39,3.288-3.085,3.288c-1.755,0-2.987-1.278-2.987-3.167
			c0-1.982,1.312-3.279,3.086-3.279C648.952,352.634,650.125,353.94,650.125,355.792z M644.97,355.895
			c0,1.333,0.769,2.528,2.119,2.528c1.36,0,2.13-1.177,2.13-2.594c0-1.241-0.69-2.537-2.12-2.537
			C645.68,353.292,644.97,354.524,644.97,355.895z"/>
		<path fill="#475656" d="M651.235,352.82c0.434-0.083,1.055-0.13,1.646-0.13c0.917,0,1.508,0.157,1.922,0.51
			c0.335,0.277,0.522,0.704,0.522,1.186c0,0.824-0.552,1.37-1.252,1.593v0.028c0.513,0.166,0.818,0.61,0.976,1.259
			c0.217,0.871,0.375,1.473,0.513,1.714h-0.887c-0.108-0.176-0.257-0.713-0.443-1.491c-0.197-0.861-0.553-1.186-1.331-1.213h-0.809
			v2.704h-0.857V352.82z M652.093,355.663h0.878c0.916,0,1.498-0.473,1.498-1.186c0-0.807-0.621-1.158-1.528-1.167
			c-0.414,0-0.709,0.037-0.848,0.073V355.663z"/>
	</g>
</g>
<rect x="601.293" y="400.006" fill="#1D2121" width="161.521" height="10.475"/>
<g>
	<g enable-background="new    ">
		<path fill="#475656" d="M602.623,388.801v6.242h-0.857v-6.242H602.623z"/>
		<path fill="#475656" d="M604.12,395.043v-6.242h0.937l2.129,3.158c0.493,0.731,0.878,1.389,1.193,2.028l0.02-0.01
			c-0.079-0.833-0.099-1.593-0.099-2.565v-2.611h0.809v6.242h-0.868l-2.109-3.168c-0.463-0.694-0.906-1.407-1.242-2.084l-0.029,0.01
			c0.05,0.787,0.069,1.537,0.069,2.574v2.668H604.12z"/>
		<path fill="#475656" d="M610.604,388.884c0.522-0.074,1.144-0.13,1.823-0.13c1.232,0,2.11,0.269,2.691,0.778
			c0.592,0.509,0.937,1.231,0.937,2.241c0,1.019-0.335,1.853-0.956,2.427c-0.621,0.583-1.646,0.898-2.938,0.898
			c-0.611,0-1.124-0.028-1.558-0.074V388.884z M611.461,394.405c0.217,0.037,0.532,0.046,0.868,0.046
			c1.833,0,2.828-0.963,2.828-2.649c0.011-1.473-0.877-2.407-2.69-2.407c-0.443,0-0.779,0.036-1.006,0.083V394.405z"/>
		<path fill="#475656" d="M620.605,392.116h-2.583v2.251h2.879v0.676h-3.736v-6.242h3.588v0.676h-2.73v1.973h2.583V392.116z"/>
		<path fill="#475656" d="M621.895,394.062c0.385,0.222,0.946,0.407,1.538,0.407c0.877,0,1.39-0.436,1.39-1.065
			c0-0.583-0.355-0.917-1.252-1.241c-1.084-0.361-1.755-0.889-1.755-1.769c0-0.973,0.857-1.695,2.149-1.695
			c0.68,0,1.173,0.148,1.469,0.306l-0.237,0.658c-0.217-0.111-0.66-0.297-1.262-0.297c-0.906,0-1.251,0.51-1.251,0.936
			c0,0.584,0.403,0.871,1.32,1.204c1.124,0.407,1.695,0.917,1.695,1.834c0,0.963-0.759,1.797-2.326,1.797
			c-0.641,0-1.341-0.176-1.695-0.398L621.895,394.062z"/>
		<path fill="#475656" d="M627.728,388.801v6.242h-0.857v-6.242H627.728z"/>
		<path fill="#475656" d="M634.281,394.765c-0.384,0.13-1.144,0.343-2.04,0.343c-1.006,0-1.834-0.24-2.484-0.824
			c-0.571-0.519-0.927-1.352-0.927-2.324c0.01-1.862,1.37-3.224,3.599-3.224c0.769,0,1.37,0.157,1.655,0.287l-0.207,0.658
			c-0.354-0.148-0.798-0.269-1.469-0.269c-1.616,0-2.671,0.944-2.671,2.51c0,1.584,1.016,2.52,2.563,2.52
			c0.563,0,0.946-0.074,1.144-0.167v-1.862h-1.351v-0.647h2.188V394.765z"/>
		<path fill="#475656" d="M635.59,395.043v-6.242h0.937l2.129,3.158c0.493,0.731,0.878,1.389,1.193,2.028l0.02-0.01
			c-0.079-0.833-0.099-1.593-0.099-2.565v-2.611h0.809v6.242h-0.868l-2.109-3.168c-0.463-0.694-0.906-1.407-1.242-2.084l-0.029,0.01
			c0.05,0.787,0.069,1.537,0.069,2.574v2.668H635.59z"/>
		<path fill="#475656" d="M645.513,392.116h-2.583v2.251h2.879v0.676h-3.736v-6.242h3.588v0.676h-2.73v1.973h2.583V392.116z"/>
	</g>
</g>
<rect x="601.293" y="435.773" fill="#1D2121" width="161.521" height="11.027"/>
<g>
	<g enable-background="new    ">
		<path fill="#475656" d="M601.766,424.934c0.414-0.064,0.956-0.12,1.646-0.12c0.848,0,1.469,0.186,1.863,0.519
			c0.364,0.297,0.581,0.75,0.581,1.307c0,0.564-0.178,1.009-0.513,1.333c-0.453,0.454-1.192,0.686-2.03,0.686
			c-0.257,0-0.493-0.009-0.69-0.056v2.501h-0.857V424.934z M602.623,427.945c0.188,0.046,0.424,0.064,0.71,0.064
			c1.035,0,1.666-0.472,1.666-1.334c0-0.824-0.621-1.222-1.567-1.222c-0.375,0-0.66,0.027-0.809,0.064V427.945z"/>
		<path fill="#475656" d="M607.007,424.944c0.434-0.083,1.055-0.13,1.646-0.13c0.917,0,1.508,0.157,1.922,0.51
			c0.335,0.277,0.522,0.704,0.522,1.186c0,0.824-0.552,1.37-1.252,1.593v0.028c0.513,0.166,0.818,0.61,0.976,1.259
			c0.217,0.871,0.375,1.473,0.513,1.714h-0.887c-0.108-0.176-0.257-0.713-0.443-1.491c-0.197-0.861-0.553-1.186-1.331-1.213h-0.809
			v2.704h-0.857V424.944z M607.864,427.787h0.878c0.916,0,1.498-0.473,1.498-1.186c0-0.807-0.621-1.158-1.528-1.167
			c-0.414,0-0.709,0.036-0.848,0.073V427.787z"/>
		<path fill="#475656" d="M615.748,428.176h-2.583v2.251h2.879v0.676h-3.736v-6.242h3.588v0.676h-2.73v1.973h2.583V428.176z"/>
		<path fill="#475656" d="M622.754,428.362c-0.049-0.871-0.108-1.918-0.099-2.695h-0.029c-0.227,0.731-0.503,1.51-0.838,2.371
			l-1.173,3.028h-0.65l-1.074-2.973c-0.315-0.88-0.582-1.687-0.77-2.427h-0.02c-0.02,0.777-0.069,1.824-0.128,2.76l-0.178,2.677
			h-0.818l0.464-6.242h1.094l1.134,3.019c0.276,0.77,0.503,1.454,0.67,2.103h0.03c0.167-0.63,0.404-1.314,0.699-2.103l1.184-3.019
			h1.094l0.414,6.242h-0.838L622.754,428.362z"/>
		<path fill="#475656" d="M625.935,424.861v6.242h-0.857v-6.242H625.935z"/>
		<path fill="#475656" d="M630.872,428.176h-2.583v2.251h2.879v0.676h-3.736v-6.242h3.588v0.676h-2.73v1.973h2.583V428.176z"/>
		<path fill="#475656" d="M632.279,424.944c0.434-0.083,1.055-0.13,1.646-0.13c0.916,0,1.508,0.157,1.922,0.51
			c0.335,0.277,0.522,0.704,0.522,1.186c0,0.824-0.552,1.37-1.252,1.593v0.028c0.513,0.166,0.818,0.61,0.976,1.259
			c0.217,0.871,0.375,1.473,0.513,1.714h-0.887c-0.108-0.176-0.257-0.713-0.443-1.491c-0.197-0.861-0.553-1.186-1.331-1.213h-0.809
			v2.704h-0.857V424.944z M633.137,427.787h0.878c0.916,0,1.498-0.473,1.498-1.186c0-0.807-0.621-1.158-1.528-1.167
			c-0.414,0-0.709,0.036-0.848,0.073V427.787z"/>
		<path fill="#475656" d="M639.668,424.934c0.414-0.064,0.956-0.12,1.646-0.12c0.848,0,1.469,0.186,1.863,0.519
			c0.364,0.297,0.581,0.75,0.581,1.307c0,0.564-0.178,1.009-0.513,1.333c-0.453,0.454-1.192,0.686-2.03,0.686
			c-0.257,0-0.493-0.009-0.69-0.056v2.501h-0.857V424.934z M640.525,427.945c0.188,0.046,0.424,0.064,0.71,0.064
			c1.035,0,1.666-0.472,1.666-1.334c0-0.824-0.621-1.222-1.567-1.222c-0.375,0-0.66,0.027-0.809,0.064V427.945z"/>
		<path fill="#475656" d="M644.91,424.944c0.434-0.083,1.055-0.13,1.646-0.13c0.916,0,1.508,0.157,1.922,0.51
			c0.335,0.277,0.522,0.704,0.522,1.186c0,0.824-0.552,1.37-1.252,1.593v0.028c0.513,0.166,0.818,0.61,0.976,1.259
			c0.217,0.871,0.375,1.473,0.513,1.714h-0.887c-0.108-0.176-0.257-0.713-0.443-1.491c-0.197-0.861-0.553-1.186-1.331-1.213h-0.809
			v2.704h-0.857V424.944z M645.768,427.787h0.878c0.916,0,1.498-0.473,1.498-1.186c0-0.807-0.621-1.158-1.528-1.167
			c-0.414,0-0.709,0.036-0.848,0.073V427.787z"/>
		<path fill="#475656" d="M655.918,427.916c0,2.149-1.39,3.288-3.085,3.288c-1.755,0-2.987-1.278-2.987-3.167
			c0-1.982,1.312-3.279,3.086-3.279C654.745,424.758,655.918,426.065,655.918,427.916z M650.763,428.019
			c0,1.333,0.769,2.528,2.119,2.528c1.36,0,2.13-1.177,2.13-2.594c0-1.241-0.69-2.537-2.12-2.537
			C651.473,425.416,650.763,426.648,650.763,428.019z"/>
	</g>
</g>
<rect x="601.293" y="472.094" fill="#1D2121" width="161.521" height="11.023"/>
<g>
	<g enable-background="new    ">
		<path fill="#475656" d="M602.84,465.204l-0.689,1.964h-0.888l2.258-6.242h1.035l2.267,6.242h-0.916l-0.71-1.964H602.84z
			 M605.019,464.574l-0.65-1.797c-0.148-0.407-0.246-0.777-0.345-1.139h-0.021c-0.099,0.37-0.207,0.75-0.335,1.13l-0.65,1.806
			H605.019z"/>
		<path fill="#475656" d="M607.796,460.926h3.578v0.676h-2.721v2.074h2.514v0.667h-2.514v2.825h-0.857V460.926z"/>
		<path fill="#475656" d="M613.855,461.611h-2.021v-0.685h4.919v0.685h-2.031v5.558h-0.867V461.611z"/>
		<path fill="#475656" d="M620.931,464.241h-2.583v2.251h2.879v0.676h-3.736v-6.242h3.588v0.676h-2.73v1.973h2.583V464.241z"/>
		<path fill="#475656" d="M622.338,461.009c0.434-0.083,1.055-0.13,1.646-0.13c0.916,0,1.508,0.157,1.922,0.51
			c0.335,0.277,0.522,0.704,0.522,1.186c0,0.824-0.552,1.37-1.252,1.593v0.028c0.513,0.166,0.818,0.61,0.976,1.259
			c0.217,0.871,0.375,1.473,0.513,1.714h-0.887c-0.108-0.176-0.257-0.713-0.443-1.491c-0.197-0.861-0.553-1.186-1.331-1.213h-0.809
			v2.704h-0.857V461.009z M623.195,463.853h0.878c0.916,0,1.498-0.473,1.498-1.186c0-0.807-0.621-1.158-1.528-1.167
			c-0.414,0-0.709,0.037-0.848,0.073V463.853z"/>
		<path fill="#475656" d="M633.168,464.241h-2.583v2.251h2.879v0.676h-3.736v-6.242h3.588v0.676h-2.73v1.973h2.583V464.241z"/>
		<path fill="#475656" d="M634.574,460.926h3.578v0.676h-2.721v2.074h2.514v0.667h-2.514v2.825h-0.857V460.926z"/>
		<path fill="#475656" d="M639.373,460.926h3.578v0.676h-2.721v2.074h2.514v0.667h-2.514v2.825h-0.857V460.926z"/>
		<path fill="#475656" d="M647.611,464.241h-2.583v2.251h2.879v0.676h-3.736v-6.242h3.588v0.676h-2.73v1.973h2.583V464.241z"/>
		<path fill="#475656" d="M653.661,466.964c-0.315,0.148-0.946,0.297-1.754,0.297c-1.873,0-3.283-1.111-3.283-3.158
			c0-1.955,1.41-3.279,3.47-3.279c0.828,0,1.351,0.167,1.577,0.278l-0.207,0.657c-0.325-0.148-0.788-0.259-1.34-0.259
			c-1.558,0-2.593,0.935-2.593,2.574c0,1.528,0.937,2.51,2.553,2.51c0.522,0,1.055-0.102,1.4-0.259L653.661,466.964z"/>
		<path fill="#475656" d="M656.271,461.611h-2.021v-0.685h4.919v0.685h-2.031v5.558h-0.867V461.611z"/>
	</g>
</g>
<rect x="601.293" y="507.861" fill="#1D2121" width="161.521" height="11.025"/>
<g>
	<g enable-background="new    ">
		<path fill="#475656" d="M601.766,496.989h3.578v0.676h-2.721v2.074h2.514v0.667h-2.514v2.825h-0.857V496.989z"/>
		<path fill="#475656" d="M606.563,496.989h0.857v5.566h2.839v0.676h-3.696V496.989z"/>
		<path fill="#475656" d="M612.288,501.267l-0.689,1.964h-0.888l2.258-6.242h1.035l2.267,6.242h-0.917l-0.709-1.964H612.288z
			 M614.467,500.637l-0.65-1.797c-0.148-0.407-0.246-0.777-0.345-1.139h-0.021c-0.099,0.37-0.207,0.75-0.335,1.13l-0.65,1.806
			H614.467z"/>
		<path fill="#475656" d="M617.126,502.249c0.385,0.222,0.946,0.407,1.538,0.407c0.877,0,1.39-0.436,1.39-1.065
			c0-0.583-0.355-0.917-1.252-1.241c-1.084-0.361-1.755-0.889-1.755-1.769c0-0.973,0.857-1.695,2.149-1.695
			c0.68,0,1.173,0.148,1.469,0.306l-0.237,0.658c-0.217-0.111-0.66-0.297-1.262-0.297c-0.906,0-1.252,0.51-1.252,0.936
			c0,0.584,0.404,0.871,1.321,1.204c1.124,0.407,1.695,0.917,1.695,1.834c0,0.963-0.759,1.797-2.326,1.797
			c-0.641,0-1.341-0.176-1.695-0.398L617.126,502.249z"/>
		<path fill="#475656" d="M622.959,496.989v2.611h3.214v-2.611h0.867v6.242h-0.867v-2.927h-3.214v2.927h-0.857v-6.242H622.959z"/>
		<path fill="#475656" d="M630.614,497.072c0.375-0.074,0.966-0.13,1.567-0.13c0.857,0,1.409,0.139,1.823,0.454
			c0.346,0.24,0.553,0.611,0.553,1.102c0,0.603-0.424,1.131-1.124,1.371v0.019c0.631,0.148,1.37,0.64,1.37,1.565
			c0,0.537-0.227,0.944-0.562,1.25c-0.464,0.398-1.213,0.584-2.297,0.584c-0.592,0-1.045-0.037-1.331-0.074V497.072z
			 M631.472,499.628h0.779c0.906,0,1.438-0.445,1.438-1.047c0-0.731-0.591-1.019-1.459-1.019c-0.394,0-0.62,0.027-0.759,0.055
			V499.628z M631.472,502.619c0.168,0.027,0.414,0.037,0.72,0.037c0.888,0,1.705-0.306,1.705-1.213c0-0.853-0.778-1.204-1.715-1.204
			h-0.71V502.619z"/>
		<path fill="#475656" d="M636.812,496.989v3.695c0,1.398,0.661,1.991,1.548,1.991c0.985,0,1.616-0.611,1.616-1.991v-3.695h0.868
			v3.64c0,1.917-1.075,2.704-2.514,2.704c-1.36,0-2.386-0.731-2.386-2.667v-3.677H636.812z"/>
		<path fill="#475656" d="M643.186,496.989v6.242h-0.857v-6.242H643.186z"/>
		<path fill="#475656" d="M644.684,496.989h0.857v5.566h2.839v0.676h-3.696V496.989z"/>
		<path fill="#475656" d="M649.334,497.072c0.522-0.074,1.144-0.13,1.823-0.13c1.232,0,2.11,0.269,2.691,0.778
			c0.592,0.509,0.937,1.231,0.937,2.241c0,1.019-0.335,1.853-0.956,2.427c-0.621,0.583-1.646,0.898-2.938,0.898
			c-0.611,0-1.124-0.028-1.558-0.074V497.072z M650.191,502.592c0.217,0.037,0.532,0.046,0.868,0.046
			c1.833,0,2.828-0.963,2.828-2.649c0.011-1.473-0.877-2.407-2.69-2.407c-0.443,0-0.779,0.036-1.006,0.083V502.592z"/>
		<path fill="#475656" d="M659.336,500.304h-2.583v2.251h2.879v0.676h-3.736v-6.242h3.588v0.676h-2.73v1.973h2.583V500.304z"/>
		<path fill="#475656" d="M660.743,497.072c0.434-0.083,1.055-0.13,1.646-0.13c0.917,0,1.508,0.157,1.922,0.51
			c0.335,0.277,0.522,0.704,0.522,1.186c0,0.824-0.552,1.37-1.252,1.593v0.028c0.513,0.166,0.818,0.61,0.976,1.259
			c0.217,0.871,0.375,1.473,0.513,1.714h-0.887c-0.108-0.176-0.257-0.713-0.443-1.491c-0.197-0.861-0.553-1.186-1.331-1.213h-0.809
			v2.704h-0.857V497.072z M661.601,499.915h0.878c0.916,0,1.498-0.473,1.498-1.186c0-0.807-0.621-1.158-1.528-1.167
			c-0.414,0-0.709,0.037-0.848,0.073V499.915z"/>
	</g>
</g>
<g>
	<path fill="#333333" d="M366.25,364.694h36.1v1.689h-16.698c0.226,0.136,0.338,0.315,0.338,0.541c0,0.404-0.202,0.607-0.608,0.607
		c-0.405,0-0.608-0.203-0.608-0.607c0-0.226,0.112-0.405,0.338-0.541h-18.86v-1.689H366.25z M383.218,405.863
		c0.406,0,0.608,0.182,0.608,0.541c0,0.451-0.158,0.676-0.473,0.676h1.419c-0.045-0.044-0.067-0.179-0.067-0.404
		c0.045-0.314,0.271-0.519,0.676-0.608c0.45,0.091,0.631,0.315,0.541,0.676c-0.045,0.092-0.067,0.159-0.067,0.203
		c0,0.045-0.023,0.091-0.067,0.135h1.217c-0.091-0.09-0.136-0.246-0.136-0.473c0-0.36,0.203-0.541,0.608-0.541
		c0.36,0,0.541,0.228,0.541,0.676c0,0.137-0.045,0.248-0.135,0.338h14.467v1.69h-36.1v-1.69h16.9c-0.135,0-0.26-0.044-0.372-0.135
		c-0.113-0.09-0.146-0.225-0.102-0.404C382.677,406.089,382.856,405.863,383.218,405.863z M366.317,383.352h5.205v0.811h-5.205
		V383.352z M372.401,386.934c0,0.406-0.226,0.609-0.676,0.609c-0.361,0-0.541-0.203-0.541-0.609c0-0.405,0.203-0.608,0.608-0.608
		C372.199,386.324,372.401,386.529,372.401,386.934z M371.252,389.367c0-0.405,0.203-0.607,0.608-0.607
		c0.406,0,0.608,0.202,0.608,0.607s-0.202,0.608-0.608,0.608C371.455,389.977,371.252,389.774,371.252,389.367z M371.388,384.702
		c0-0.404,0.203-0.607,0.608-0.607c0.405,0,0.608,0.203,0.608,0.607c0,0.405-0.203,0.608-0.608,0.608
		C371.591,385.311,371.388,385.109,371.388,384.702z M372.131,390.99c0.45,0.091,0.631,0.315,0.541,0.676
		c-0.091,0.451-0.315,0.633-0.676,0.541c-0.361,0-0.541-0.225-0.541-0.676C371.545,391.171,371.77,390.99,372.131,390.99z
		 M371.658,382.337c0-0.405,0.202-0.608,0.608-0.608c0.405,0,0.608,0.203,0.608,0.608s-0.203,0.607-0.608,0.607
		C371.86,382.946,371.658,382.742,371.658,382.337z M372.131,394.031c0-0.404,0.203-0.607,0.608-0.607
		c0.406,0,0.608,0.203,0.608,0.607c0,0.405-0.202,0.608-0.608,0.608C372.334,394.641,372.131,394.438,372.131,394.031z
		 M372.267,380.174c0-0.405,0.202-0.608,0.608-0.608c0.405,0,0.608,0.203,0.608,0.608c0,0.404-0.203,0.607-0.608,0.607
		C372.469,380.781,372.267,380.578,372.267,380.174z M373.889,396.263c0,0.36-0.202,0.541-0.608,0.541
		c-0.405,0-0.608-0.202-0.608-0.608c0-0.405,0.203-0.607,0.608-0.607C373.687,395.587,373.889,395.814,373.889,396.263z
		 M372.808,378.077c0-0.404,0.202-0.607,0.608-0.607c0.405,0,0.608,0.203,0.608,0.607c0,0.405-0.203,0.608-0.608,0.608
		C373.01,378.687,372.808,378.484,372.808,378.077z M373.146,383.352h5.205v0.811h-5.205V383.352z M373.889,397.615
		c0.45,0,0.676,0.227,0.676,0.676c0,0.361-0.181,0.541-0.54,0.541c-0.451,0.092-0.677-0.09-0.677-0.541
		C373.348,397.931,373.527,397.705,373.889,397.615z M374.835,376.321c0,0.361-0.226,0.541-0.676,0.541
		c-0.361,0-0.541-0.203-0.541-0.607c0-0.405,0.203-0.608,0.608-0.608C374.633,375.645,374.835,375.869,374.835,376.321z
		 M374.971,399.574c0.405,0.093,0.631,0.294,0.676,0.609c0,0.18-0.057,0.338-0.169,0.473c-0.113,0.137-0.26,0.182-0.439,0.137
		c-0.405,0.091-0.608-0.091-0.608-0.541C374.339,399.892,374.52,399.666,374.971,399.574z M375.781,374.09
		c0,0.404-0.202,0.607-0.608,0.607c-0.405-0.09-0.608-0.314-0.608-0.676c0.09-0.45,0.315-0.631,0.677-0.541
		C375.69,373.482,375.871,373.684,375.781,374.09z M376.322,401.469c0.406-0.09,0.653,0.066,0.744,0.473
		c0,0.406-0.181,0.654-0.541,0.744c-0.451,0-0.676-0.227-0.676-0.676C375.759,401.65,375.917,401.469,376.322,401.469z
		 M377.201,372.062c0,0.405-0.202,0.608-0.608,0.608c-0.405,0-0.608-0.203-0.608-0.608s0.203-0.608,0.608-0.608
		C376.999,371.452,377.201,371.656,377.201,372.062z M377.607,403.024c0.449-0.09,0.63,0.091,0.54,0.541
		c0.09,0.361-0.067,0.586-0.473,0.676c-0.406,0-0.654-0.203-0.744-0.607C376.976,403.318,377.201,403.115,377.607,403.024z
		 M378.554,370.237c0,0.405-0.227,0.608-0.677,0.608c-0.36,0-0.54-0.203-0.54-0.608s0.202-0.607,0.608-0.607
		C378.351,369.628,378.554,369.83,378.554,370.237z M379.026,404.375c0.406-0.09,0.608,0.067,0.608,0.474
		c0.09,0.405-0.067,0.654-0.473,0.743c-0.451-0.089-0.699-0.292-0.744-0.608c0-0.179,0.057-0.338,0.169-0.473
		C378.699,404.375,378.846,404.33,379.026,404.375z M379.973,368.951c0,0.405-0.202,0.608-0.608,0.608
		c-0.405,0-0.608-0.226-0.608-0.677c0-0.359,0.203-0.54,0.608-0.54C379.771,368.344,379.973,368.546,379.973,368.951z
		 M379.771,383.352h5.205v0.811h-5.205V383.352z M381.122,405.323c0.406-0.09,0.653,0.091,0.744,0.54
		c0,0.361-0.227,0.587-0.677,0.677c-0.45,0-0.631-0.18-0.54-0.541C380.559,405.548,380.717,405.323,381.122,405.323z
		 M381.934,367.736c-0.091,0.405-0.315,0.608-0.676,0.608c-0.451,0-0.632-0.203-0.541-0.608c0-0.406,0.203-0.607,0.608-0.607
		C381.73,367.128,381.934,367.328,381.934,367.736z M383.962,367.195c0,0.405-0.227,0.608-0.677,0.608
		c-0.361,0-0.54-0.203-0.54-0.608s0.202-0.607,0.608-0.607C383.759,366.586,383.962,366.788,383.962,367.195z M386.598,383.352
		h5.206v0.811h-5.206V383.352z M386.801,367.059c0-0.405,0.203-0.608,0.608-0.608c0.405,0,0.608,0.203,0.608,0.608
		c0,0.406-0.181,0.607-0.541,0.607C387.025,367.666,386.801,367.465,386.801,367.059z M388.762,367.803
		c0-0.405,0.202-0.608,0.608-0.608c0.405,0,0.608,0.203,0.608,0.608c0.09,0.404-0.091,0.607-0.541,0.607
		C389.076,368.41,388.852,368.207,388.762,367.803z M389.572,405.39c0.406,0,0.563,0.226,0.474,0.676
		c0.09,0.361-0.091,0.541-0.541,0.541c-0.451-0.09-0.676-0.313-0.676-0.676C388.919,405.481,389.167,405.3,389.572,405.39z
		 M390.722,369.02c0-0.405,0.203-0.608,0.608-0.608c0.405,0,0.608,0.182,0.608,0.541c0,0.451-0.203,0.677-0.608,0.677
		C390.925,369.629,390.722,369.425,390.722,369.02z M391.668,404.444c0.18-0.045,0.326,0,0.439,0.135
		c0.112,0.137,0.169,0.294,0.169,0.475c-0.045,0.314-0.293,0.519-0.743,0.607c-0.406-0.09-0.564-0.338-0.474-0.743
		C391.06,404.511,391.263,404.354,391.668,404.444z M392.142,370.304c0-0.405,0.203-0.608,0.608-0.608s0.608,0.203,0.608,0.608
		c0,0.406-0.181,0.607-0.541,0.607C392.366,370.911,392.142,370.71,392.142,370.304z M393.088,403.091
		c0.405,0.091,0.631,0.294,0.676,0.607c-0.091,0.406-0.338,0.608-0.743,0.608c-0.406-0.09-0.564-0.314-0.474-0.676
		C392.456,403.182,392.637,403.001,393.088,403.091z M393.155,383.352h5.205v0.811h-5.205V383.352z M393.493,372.129
		c0-0.405,0.203-0.608,0.608-0.608c0.406,0,0.608,0.203,0.608,0.608s-0.202,0.607-0.608,0.607
		C393.696,372.738,393.493,372.534,393.493,372.129z M394.372,401.535c0.406,0,0.563,0.182,0.474,0.541
		c0,0.451-0.227,0.677-0.676,0.677c-0.361-0.091-0.541-0.339-0.541-0.743C393.719,401.604,393.967,401.447,394.372,401.535z
		 M394.913,374.156c-0.091-0.404,0.09-0.607,0.541-0.607c0.36-0.09,0.585,0.091,0.676,0.541c0,0.36-0.203,0.586-0.608,0.676
		C395.116,374.766,394.913,374.563,394.913,374.156z M395.725,399.644c0.449,0.091,0.63,0.315,0.541,0.676
		c0,0.451-0.203,0.632-0.609,0.541c-0.18,0.045-0.327,0-0.438-0.136c-0.113-0.135-0.169-0.292-0.169-0.473
		C395.093,399.937,395.318,399.735,395.725,399.644z M395.859,376.388c0-0.449,0.203-0.676,0.608-0.676
		c0.405,0,0.608,0.202,0.608,0.607c0,0.406-0.181,0.608-0.541,0.608C396.084,376.929,395.859,376.748,395.859,376.388z
		 M396.806,397.683c0.36,0.091,0.541,0.315,0.541,0.676c0,0.451-0.227,0.632-0.676,0.541c-0.362,0-0.541-0.18-0.541-0.541
		C396.13,397.908,396.354,397.683,396.806,397.683z M396.806,396.33c0-0.449,0.203-0.677,0.608-0.677
		c0.405,0,0.608,0.203,0.608,0.608c0,0.406-0.203,0.608-0.608,0.608C397.009,396.87,396.806,396.693,396.806,396.33z
		 M399.983,383.352h2.367v0.811h-2.367V383.352z"/>
	<path fill="#333333" d="M410.799,366.857c0,0.405-0.201,0.608-0.607,0.608c-0.405,0-0.608-0.227-0.608-0.677
		c0-0.136,0.067-0.271,0.203-0.405h-1.149c0.227,0.136,0.338,0.315,0.338,0.541c0,0.404-0.201,0.607-0.607,0.607
		c-0.405,0-0.608-0.203-0.608-0.607c0-0.226,0.112-0.405,0.339-0.541h-6.287v-1.689h35.896v1.689h-20.011
		c0.226,0.136,0.338,0.315,0.338,0.541c0,0.404-0.202,0.607-0.608,0.607c-0.404,0-0.607-0.203-0.607-0.607
		c0-0.226,0.111-0.405,0.339-0.541h-1.69c0.09,0.181,0.135,0.315,0.135,0.405c0,0.405-0.226,0.608-0.676,0.608
		c-0.361,0-0.541-0.203-0.541-0.608c0-0.18,0.045-0.314,0.137-0.405h-1.487c0.09,0.181,0.135,0.315,0.135,0.405
		c-0.091,0.405-0.315,0.608-0.676,0.608c-0.451,0-0.632-0.203-0.541-0.608c0-0.18,0.045-0.314,0.136-0.405h-1.555
		C410.708,366.564,410.799,366.721,410.799,366.857z M401.809,407.078h5.881v-0.201c0-0.406,0.203-0.608,0.608-0.608
		s0.608,0.202,0.608,0.608c0,0.091-0.023,0.157-0.067,0.201h0.474c-0.045-0.044-0.067-0.11-0.067-0.201
		c0.045-0.315,0.271-0.519,0.677-0.608c0.449-0.09,0.631,0.091,0.54,0.541v0.27h0.677v-0.066c0-0.181,0.057-0.338,0.17-0.474
		c0.11-0.136,0.258-0.18,0.438-0.136c0.405-0.09,0.608,0.067,0.608,0.475v0.201h0.945v-0.066c-0.091-0.45,0.067-0.676,0.473-0.676
		c0.406-0.091,0.654,0.091,0.744,0.541c0,0.091-0.022,0.157-0.066,0.201h0.878v-0.135c0-0.45,0.18-0.676,0.541-0.676
		c0.405,0,0.608,0.181,0.608,0.541c0,0.135-0.022,0.226-0.067,0.27h1.082c-0.046-0.044-0.068-0.11-0.068-0.201
		c-0.091-0.36,0.091-0.585,0.541-0.677c0.406,0.092,0.632,0.293,0.677,0.608c0,0.135-0.022,0.226-0.067,0.27h19.132v1.69h-35.896
		v-1.691H401.809z M401.876,383.352h5.205v0.811h-5.205V383.352z M407.757,369.087c0-0.405,0.203-0.608,0.608-0.608
		c0.406,0,0.607,0.203,0.607,0.608s-0.201,0.607-0.607,0.607C407.96,369.696,407.757,369.492,407.757,369.087z M407.757,371.115
		c0-0.404,0.203-0.607,0.608-0.607c0.406,0,0.607,0.203,0.607,0.607c0,0.405-0.201,0.608-0.607,0.608
		C407.96,371.724,407.757,371.521,407.757,371.115z M407.757,373.211c0-0.405,0.203-0.608,0.608-0.608
		c0.406,0,0.607,0.203,0.607,0.608c0,0.404-0.201,0.607-0.607,0.607C407.96,373.82,407.757,373.615,407.757,373.211z
		 M407.757,375.576c0-0.405,0.203-0.607,0.608-0.607c0.406,0,0.607,0.202,0.607,0.607s-0.201,0.608-0.607,0.608
		C407.96,376.186,407.757,375.983,407.757,375.576z M407.757,378.077c0-0.404,0.203-0.607,0.608-0.607
		c0.406,0,0.607,0.203,0.607,0.607c0,0.405-0.201,0.608-0.607,0.608C407.96,378.687,407.757,378.484,407.757,378.077z
		 M407.757,380.445c0-0.405,0.203-0.607,0.608-0.607c0.406,0,0.607,0.202,0.607,0.607s-0.201,0.608-0.607,0.608
		C407.96,381.053,407.757,380.85,407.757,380.445z M407.757,382.608c0-0.405,0.203-0.607,0.608-0.607
		c0.406,0,0.607,0.202,0.607,0.607s-0.201,0.608-0.607,0.608C407.96,383.216,407.757,383.013,407.757,382.608z M407.757,384.771
		c0-0.405,0.203-0.608,0.608-0.608c0.406,0,0.607,0.203,0.607,0.608c0,0.406-0.201,0.608-0.607,0.608
		C407.96,385.379,407.757,385.177,407.757,384.771z M407.757,386.799c0-0.405,0.203-0.608,0.608-0.608
		c0.406,0,0.607,0.203,0.607,0.608c0,0.404-0.201,0.607-0.607,0.607C407.96,387.406,407.757,387.203,407.757,386.799z
		 M407.757,388.895c0-0.405,0.203-0.608,0.608-0.608c0.406,0,0.607,0.203,0.607,0.608s-0.201,0.608-0.607,0.608
		C407.96,389.503,407.757,389.3,407.757,388.895z M407.757,391.261c0-0.405,0.203-0.608,0.608-0.608
		c0.406,0,0.607,0.203,0.607,0.608c0,0.404-0.201,0.607-0.607,0.607C407.96,391.868,407.757,391.665,407.757,391.261z
		 M407.757,393.627c0-0.406,0.203-0.608,0.608-0.608c0.406,0,0.607,0.202,0.607,0.608c0,0.404-0.201,0.607-0.607,0.607
		C407.96,394.236,407.757,394.031,407.757,393.627z M407.757,395.992c0-0.405,0.203-0.607,0.608-0.607
		c0.406,0,0.607,0.202,0.607,0.607s-0.201,0.608-0.607,0.608C407.96,396.602,407.757,396.399,407.757,395.992z M407.757,398.629
		c0-0.405,0.203-0.608,0.608-0.608c0.406,0,0.607,0.203,0.607,0.608s-0.201,0.607-0.607,0.607
		C407.96,399.238,407.757,399.034,407.757,398.629z M407.757,400.793c0-0.406,0.203-0.608,0.608-0.608
		c0.406,0,0.607,0.202,0.607,0.608c0,0.404-0.201,0.607-0.607,0.607C407.96,401.402,407.757,401.198,407.757,400.793z
		 M407.757,402.821c0-0.404,0.203-0.607,0.608-0.607c0.406,0,0.607,0.203,0.607,0.607c0,0.406-0.201,0.608-0.607,0.608
		C407.96,403.429,407.757,403.227,407.757,402.821z M407.757,404.915c0-0.404,0.203-0.607,0.608-0.607
		c0.406,0,0.607,0.203,0.607,0.607c0,0.406-0.201,0.608-0.607,0.608C407.96,405.525,407.757,405.323,407.757,404.915z
		 M408.703,383.352h5.206v0.811h-5.206V383.352z M415.328,383.352h5.206v0.811h-5.206V383.352z M419.385,367.262
		c0-0.405,0.203-0.608,0.608-0.608s0.608,0.203,0.608,0.608c0,0.404-0.182,0.607-0.541,0.607
		C419.609,367.869,419.385,367.666,419.385,367.262z M420.128,405.795c0.36,0,0.541,0.227,0.541,0.676
		c0.045,0.181,0,0.315-0.135,0.406c-0.136,0.091-0.294,0.135-0.474,0.135c-0.361,0-0.541-0.226-0.541-0.676
		C419.52,405.976,419.723,405.795,420.128,405.795z M421.413,367.803c0-0.405,0.202-0.608,0.608-0.608
		c0.404,0,0.607,0.203,0.607,0.608c0.09,0.404-0.091,0.607-0.541,0.607C421.728,368.41,421.503,368.207,421.413,367.803z
		 M422.224,405.254c0.406,0,0.563,0.227,0.475,0.677c0.09,0.36-0.091,0.54-0.541,0.54c-0.451-0.09-0.676-0.314-0.676-0.676
		C421.57,405.345,421.818,405.163,422.224,405.254z M422.156,383.352h5.205v0.811h-5.205V383.352z M423.373,368.884
		c0-0.405,0.203-0.608,0.608-0.608s0.607,0.181,0.607,0.541c0,0.451-0.202,0.677-0.607,0.677
		C423.576,369.492,423.373,369.289,423.373,368.884z M424.319,404.308c0.18-0.044,0.327,0,0.438,0.136
		c0.112,0.135,0.169,0.293,0.169,0.473c-0.045,0.316-0.293,0.52-0.743,0.608c-0.404-0.09-0.563-0.338-0.474-0.743
		C423.711,404.375,423.914,404.218,424.319,404.308z M424.793,370.169c0-0.406,0.203-0.608,0.608-0.608
		c0.404,0,0.607,0.202,0.607,0.608c0,0.404-0.181,0.607-0.541,0.607C425.018,370.778,424.793,370.573,424.793,370.169z
		 M425.739,402.955c0.404,0.092,0.631,0.293,0.676,0.608c-0.091,0.405-0.338,0.608-0.743,0.608
		c-0.405-0.091-0.563-0.315-0.474-0.677C425.107,403.047,425.288,402.865,425.739,402.955z M426.145,371.993
		c0-0.405,0.203-0.607,0.608-0.607c0.406,0,0.608,0.202,0.608,0.607s-0.202,0.608-0.608,0.608
		C426.348,372.603,426.145,372.4,426.145,371.993z M427.023,401.402c0.405,0,0.563,0.181,0.474,0.54
		c0,0.451-0.228,0.677-0.676,0.677c-0.361-0.09-0.541-0.339-0.541-0.743C426.37,401.469,426.618,401.312,427.023,401.402z
		 M427.564,374.023c-0.092-0.406,0.09-0.608,0.541-0.608c0.359-0.09,0.585,0.092,0.676,0.54c0,0.361-0.202,0.588-0.608,0.678
		C427.768,374.631,427.564,374.428,427.564,374.023z M428.376,399.508c0.45,0.091,0.631,0.315,0.541,0.677
		c0,0.45-0.203,0.631-0.608,0.54c-0.181,0.046-0.327,0-0.438-0.135c-0.113-0.137-0.169-0.293-0.169-0.475
		C427.744,399.802,427.97,399.599,428.376,399.508z M428.511,376.253c0-0.45,0.203-0.677,0.608-0.677
		c0.406,0,0.607,0.202,0.607,0.608c0,0.405-0.181,0.608-0.54,0.608C428.736,376.794,428.511,376.615,428.511,376.253z
		 M428.714,383.352h5.205v0.811h-2.229c0.18,0.182,0.271,0.339,0.271,0.475c0,0.404-0.203,0.607-0.608,0.607
		s-0.607-0.203-0.607-0.607c0-0.181,0.066-0.338,0.202-0.475h-2.23v-0.811H428.714z M429.457,397.548
		c0.36,0.091,0.541,0.314,0.541,0.676c0,0.451-0.227,0.632-0.676,0.541c-0.361,0-0.541-0.18-0.541-0.541
		C428.781,397.774,429.007,397.548,429.457,397.548z M430.539,378.011c0,0.404-0.203,0.607-0.608,0.607
		c-0.404,0-0.607-0.203-0.607-0.607c0-0.406,0.203-0.608,0.607-0.608C430.336,377.403,430.539,377.605,430.539,378.011z
		 M429.457,396.196c0-0.45,0.203-0.676,0.608-0.676s0.607,0.203,0.607,0.608c0,0.404-0.202,0.607-0.607,0.607
		C429.66,396.737,429.457,396.557,429.457,396.196z M431.08,380.107c0,0.405-0.203,0.608-0.608,0.608s-0.607-0.203-0.607-0.608
		c0-0.406,0.202-0.608,0.607-0.608C430.877,379.497,431.08,379.699,431.08,380.107z M431.215,393.965
		c0,0.404-0.202,0.607-0.607,0.607s-0.608-0.203-0.608-0.607c0-0.406,0.203-0.608,0.608-0.608S431.215,393.559,431.215,393.965z
		 M431.688,382.27c0,0.405-0.202,0.608-0.607,0.608c-0.406,0-0.608-0.203-0.608-0.608s0.202-0.608,0.608-0.608
		C431.485,381.66,431.688,381.865,431.688,382.27z M431.215,390.923c0.36,0,0.586,0.181,0.677,0.541
		c0,0.449-0.181,0.676-0.541,0.676c-0.36,0.091-0.587-0.09-0.677-0.541C430.583,391.239,430.764,391.014,431.215,390.923z
		 M432.094,389.3c0,0.405-0.202,0.607-0.607,0.607s-0.608-0.202-0.608-0.607s0.203-0.608,0.608-0.608S432.094,388.895,432.094,389.3
		z M430.944,386.865c0-0.404,0.203-0.607,0.607-0.607c0.406,0,0.608,0.203,0.608,0.607c0,0.406-0.182,0.608-0.54,0.608
		C431.17,387.475,430.944,387.273,430.944,386.865z M435.542,383.352h2.163v0.811h-2.163V383.352z"/>
	<path fill="#333333" d="M466.098,366.924c0-0.226,0.112-0.405,0.339-0.541H442.64c0.227,0.136,0.339,0.315,0.339,0.541
		c0,0.404-0.202,0.607-0.607,0.607c-0.406,0-0.608-0.203-0.608-0.607c0-0.226,0.111-0.405,0.338-0.541h-5.138v-1.689h35.761v1.689
		h-5.746c0.227,0.136,0.339,0.315,0.339,0.541c0,0.404-0.202,0.607-0.608,0.607C466.301,367.531,466.098,367.328,466.098,366.924z
		 M436.962,407.078h4.731v-0.201c0-0.406,0.203-0.608,0.607-0.608c0.406,0,0.608,0.202,0.608,0.608c0,0.091-0.022,0.157-0.067,0.201
		h23.188v-0.201c0-0.406,0.203-0.608,0.607-0.608c0.406,0,0.608,0.202,0.608,0.608c0,0.091-0.023,0.157-0.067,0.201h5.543v1.69
		h-35.761L436.962,407.078L436.962,407.078z M437.029,383.352h5.205v0.811h0.136c0.405,0,0.607,0.203,0.607,0.608
		c0,0.406-0.202,0.608-0.607,0.608c-0.406,0-0.608-0.202-0.608-0.608c0-0.314,0.157-0.518,0.474-0.608h-5.205L437.029,383.352
		L437.029,383.352z M441.762,369.087c0-0.405,0.202-0.608,0.608-0.608c0.405,0,0.607,0.203,0.607,0.608s-0.202,0.607-0.607,0.607
		C441.964,369.696,441.762,369.492,441.762,369.087z M441.762,371.115c0-0.404,0.202-0.607,0.608-0.607
		c0.405,0,0.607,0.203,0.607,0.607c0,0.405-0.202,0.608-0.607,0.608C441.964,371.724,441.762,371.521,441.762,371.115z
		 M441.762,373.211c0-0.405,0.202-0.608,0.608-0.608c0.405,0,0.607,0.203,0.607,0.608c0,0.404-0.202,0.607-0.607,0.607
		C441.964,373.82,441.762,373.615,441.762,373.211z M441.762,375.576c0-0.405,0.202-0.607,0.608-0.607
		c0.405,0,0.607,0.202,0.607,0.607s-0.202,0.608-0.607,0.608C441.964,376.186,441.762,375.983,441.762,375.576z M441.762,378.077
		c0-0.404,0.202-0.607,0.608-0.607c0.405,0,0.607,0.203,0.607,0.607c0,0.405-0.202,0.608-0.607,0.608
		C441.964,378.687,441.762,378.484,441.762,378.077z M441.762,380.445c0-0.405,0.202-0.607,0.608-0.607
		c0.405,0,0.607,0.202,0.607,0.607s-0.202,0.608-0.607,0.608C441.964,381.053,441.762,380.85,441.762,380.445z M441.762,382.608
		c0-0.405,0.202-0.607,0.608-0.607c0.405,0,0.607,0.202,0.607,0.607s-0.202,0.608-0.607,0.608
		C441.964,383.216,441.762,383.013,441.762,382.608z M441.762,386.799c0-0.405,0.202-0.608,0.608-0.608
		c0.405,0,0.607,0.203,0.607,0.608c0,0.404-0.202,0.607-0.607,0.607C441.964,387.406,441.762,387.203,441.762,386.799z
		 M441.762,388.895c0-0.405,0.202-0.608,0.608-0.608c0.405,0,0.607,0.203,0.607,0.608s-0.202,0.608-0.607,0.608
		C441.964,389.503,441.762,389.3,441.762,388.895z M441.762,391.261c0-0.405,0.202-0.608,0.608-0.608
		c0.405,0,0.607,0.203,0.607,0.608c0,0.404-0.202,0.607-0.607,0.607C441.964,391.868,441.762,391.665,441.762,391.261z
		 M441.762,393.627c0-0.406,0.202-0.608,0.608-0.608c0.405,0,0.607,0.202,0.607,0.608c0,0.404-0.202,0.607-0.607,0.607
		C441.964,394.236,441.762,394.031,441.762,393.627z M441.762,395.992c0-0.405,0.202-0.607,0.608-0.607
		c0.405,0,0.607,0.202,0.607,0.607s-0.202,0.608-0.607,0.608C441.964,396.602,441.762,396.399,441.762,395.992z M441.762,398.629
		c0-0.405,0.202-0.608,0.608-0.608c0.405,0,0.607,0.203,0.607,0.608s-0.202,0.607-0.607,0.607
		C441.964,399.238,441.762,399.034,441.762,398.629z M441.762,400.793c0-0.406,0.202-0.608,0.608-0.608
		c0.405,0,0.607,0.202,0.607,0.608c0,0.404-0.202,0.607-0.607,0.607C441.964,401.402,441.762,401.198,441.762,400.793z
		 M441.762,402.821c0-0.404,0.202-0.607,0.608-0.607c0.405,0,0.607,0.203,0.607,0.607c0,0.406-0.202,0.608-0.607,0.608
		C441.964,403.429,441.762,403.227,441.762,402.821z M441.762,404.915c0-0.404,0.202-0.607,0.608-0.607
		c0.405,0,0.607,0.203,0.607,0.607c0,0.406-0.202,0.608-0.607,0.608C441.964,405.525,441.762,405.323,441.762,404.915z
		 M443.384,368.682c-0.181-0.36-0.091-0.653,0.271-0.879c0.09-0.09,0.225-0.112,0.404-0.067c0.181,0.045,0.314,0.158,0.405,0.338
		c0.09,0.136,0.112,0.282,0.068,0.439c-0.046,0.158-0.136,0.282-0.271,0.371c-0.181,0.092-0.35,0.125-0.507,0.102
		C443.597,368.964,443.474,368.863,443.384,368.682z M443.856,383.352h5.205v0.811h-5.205V383.352z M444.465,370.507
		c-0.27-0.36-0.202-0.632,0.203-0.813c0.36-0.18,0.653-0.09,0.879,0.271c0.18,0.36,0.09,0.653-0.271,0.879
		C444.915,371.026,444.645,370.911,444.465,370.507z M445.412,372.331c-0.091-0.135-0.091-0.28,0-0.438
		c0.09-0.157,0.18-0.281,0.271-0.372c0.314-0.135,0.608-0.067,0.878,0.203c0.091,0.361-0.021,0.653-0.338,0.879
		C445.861,372.782,445.592,372.694,445.412,372.331z M446.426,374.225c-0.135-0.405-0.046-0.698,0.271-0.879
		c0.135-0.09,0.28-0.111,0.438-0.067c0.157,0.046,0.281,0.158,0.372,0.338c0.271,0.271,0.202,0.52-0.203,0.744
		c-0.136,0.091-0.294,0.112-0.474,0.067C446.65,374.383,446.516,374.316,446.426,374.225z M447.643,376.186
		c-0.181-0.315-0.091-0.585,0.271-0.813c0.135-0.09,0.281-0.102,0.438-0.033c0.157,0.067,0.26,0.17,0.305,0.305
		c0.18,0.271,0.136,0.541-0.136,0.812C448.206,376.637,447.913,376.547,447.643,376.186z M448.927,378.415
		c-0.181-0.359-0.111-0.631,0.203-0.812c0.36-0.225,0.631-0.179,0.813,0.136c0.18,0.315,0.135,0.608-0.137,0.879
		C449.4,378.754,449.106,378.687,448.927,378.415z M450.009,380.377c-0.091-0.091-0.112-0.215-0.066-0.372
		c0.044-0.157,0.156-0.281,0.338-0.372c0.09-0.09,0.225-0.111,0.404-0.067c0.181,0.046,0.314,0.113,0.406,0.203
		c0.179,0.361,0.111,0.653-0.203,0.879C450.526,380.827,450.233,380.739,450.009,380.377z M450.481,383.352h5.205v0.811h-2.434
		c-0.046,0.092-0.113,0.182-0.203,0.271c-0.271,0.181-0.541,0.136-0.812-0.135c-0.045,0-0.067-0.045-0.067-0.137h-1.689V383.352z
		 M451.091,382.337c-0.227-0.36-0.136-0.632,0.271-0.812c0.359-0.18,0.652-0.112,0.879,0.202c0.09,0.406-0.022,0.676-0.338,0.812
		C451.54,382.721,451.27,382.654,451.091,382.337z M453.118,385.988c-0.181-0.359-0.067-0.651,0.338-0.879
		c0.406-0.179,0.653-0.09,0.744,0.271c0.135,0.405,0.066,0.677-0.203,0.812C453.636,386.415,453.344,386.349,453.118,385.988z
		 M454.268,387.744c-0.135-0.135-0.181-0.271-0.135-0.404c0.044-0.137,0.135-0.227,0.271-0.271c0.358-0.225,0.651-0.18,0.878,0.135
		c0.136,0.406,0.045,0.699-0.271,0.879c-0.091,0.092-0.215,0.113-0.372,0.068C454.481,388.107,454.357,387.972,454.268,387.744z
		 M455.417,389.841c-0.181-0.271-0.136-0.541,0.135-0.813c0.36-0.225,0.653-0.157,0.879,0.203c0.137,0.361,0.067,0.654-0.202,0.879
		C455.822,390.291,455.552,390.201,455.417,389.841z M456.566,391.868c-0.092-0.136-0.113-0.28-0.068-0.438
		c0.045-0.157,0.158-0.281,0.339-0.372c0.359-0.271,0.652-0.18,0.879,0.271c0.089,0.137,0.102,0.282,0.033,0.439
		c-0.067,0.158-0.214,0.282-0.439,0.372c-0.135,0.091-0.281,0.113-0.438,0.066C456.712,392.162,456.61,392.05,456.566,391.868z
		 M457.31,383.352h5.205v0.811h-5.205V383.352z M457.716,393.965c-0.181-0.36-0.113-0.631,0.202-0.813
		c0.36-0.225,0.631-0.135,0.813,0.271c0.271,0.36,0.225,0.632-0.137,0.812C458.188,394.369,457.895,394.281,457.716,393.965z
		 M459.067,396.33c-0.227-0.359-0.182-0.652,0.135-0.879c0.359-0.136,0.653-0.066,0.879,0.202c0.18,0.361,0.112,0.632-0.202,0.813
		C459.518,396.693,459.247,396.647,459.067,396.33z M460.149,398.156c-0.137-0.359-0.068-0.652,0.201-0.879
		c0.36-0.18,0.632-0.066,0.813,0.338c0.225,0.315,0.157,0.564-0.203,0.743C460.555,398.585,460.284,398.518,460.149,398.156z
		 M461.028,399.913c-0.091-0.136-0.113-0.28-0.068-0.438s0.157-0.281,0.338-0.372c0.315-0.18,0.563-0.112,0.744,0.203
		c0.314,0.314,0.271,0.607-0.136,0.879C461.501,400.32,461.207,400.23,461.028,399.913z M462.109,401.74
		c-0.092-0.136-0.103-0.28-0.033-0.438c0.066-0.157,0.146-0.281,0.236-0.372c0.313-0.181,0.607-0.135,0.879,0.135
		c0.135,0.361,0.044,0.654-0.271,0.879C462.56,402.121,462.289,402.055,462.109,401.74z M463.462,403.767
		c-0.181-0.314-0.113-0.585,0.202-0.812c0.136-0.09,0.281-0.102,0.438-0.033c0.157,0.066,0.281,0.169,0.372,0.305
		c0.226,0.361,0.181,0.631-0.135,0.811C463.979,404.173,463.688,404.082,463.462,403.767z M463.867,383.352h5.205v0.811h-2.23
		c0.314,0.092,0.474,0.294,0.474,0.608c0,0.406-0.202,0.608-0.608,0.608c-0.405,0-0.608-0.202-0.608-0.608
		c0-0.314,0.158-0.518,0.475-0.608h-2.704v-0.811H463.867z M464.61,405.187c0-0.405,0.202-0.608,0.607-0.608
		c0.406,0,0.608,0.203,0.608,0.608s-0.202,0.608-0.608,0.608C464.813,405.795,464.61,405.592,464.61,405.187z M466.098,369.087
		c0-0.405,0.203-0.608,0.608-0.608c0.406,0,0.608,0.203,0.608,0.608s-0.202,0.607-0.608,0.607
		C466.301,369.696,466.098,369.492,466.098,369.087z M466.098,371.115c0-0.404,0.203-0.607,0.608-0.607
		c0.406,0,0.608,0.203,0.608,0.607c0,0.405-0.202,0.608-0.608,0.608C466.301,371.724,466.098,371.521,466.098,371.115z
		 M466.098,373.211c0-0.405,0.203-0.608,0.608-0.608c0.406,0,0.608,0.203,0.608,0.608c0,0.404-0.202,0.607-0.608,0.607
		C466.301,373.82,466.098,373.615,466.098,373.211z M466.098,375.576c0-0.405,0.203-0.607,0.608-0.607
		c0.406,0,0.608,0.202,0.608,0.607s-0.202,0.608-0.608,0.608C466.301,376.186,466.098,375.983,466.098,375.576z M466.098,378.077
		c0-0.404,0.203-0.607,0.608-0.607c0.406,0,0.608,0.203,0.608,0.607c0,0.405-0.202,0.608-0.608,0.608
		C466.301,378.687,466.098,378.484,466.098,378.077z M466.098,380.445c0-0.405,0.203-0.607,0.608-0.607
		c0.406,0,0.608,0.202,0.608,0.607s-0.202,0.608-0.608,0.608C466.301,381.053,466.098,380.85,466.098,380.445z M466.098,382.608
		c0-0.405,0.203-0.607,0.608-0.607c0.406,0,0.608,0.202,0.608,0.607s-0.202,0.608-0.608,0.608
		C466.301,383.216,466.098,383.013,466.098,382.608z M466.098,386.799c0-0.405,0.203-0.608,0.608-0.608
		c0.406,0,0.608,0.203,0.608,0.608c0,0.404-0.202,0.607-0.608,0.607C466.301,387.406,466.098,387.203,466.098,386.799z
		 M466.098,388.895c0-0.405,0.203-0.608,0.608-0.608c0.406,0,0.608,0.203,0.608,0.608s-0.202,0.608-0.608,0.608
		C466.301,389.503,466.098,389.3,466.098,388.895z M466.098,391.261c0-0.405,0.203-0.608,0.608-0.608
		c0.406,0,0.608,0.203,0.608,0.608c0,0.404-0.202,0.607-0.608,0.607C466.301,391.868,466.098,391.665,466.098,391.261z
		 M466.098,393.627c0-0.406,0.203-0.608,0.608-0.608c0.406,0,0.608,0.202,0.608,0.608c0,0.404-0.202,0.607-0.608,0.607
		C466.301,394.236,466.098,394.031,466.098,393.627z M466.098,395.992c0-0.405,0.203-0.607,0.608-0.607
		c0.406,0,0.608,0.202,0.608,0.607s-0.202,0.608-0.608,0.608C466.301,396.602,466.098,396.399,466.098,395.992z M466.098,398.629
		c0-0.405,0.203-0.608,0.608-0.608c0.406,0,0.608,0.203,0.608,0.608s-0.202,0.607-0.608,0.607
		C466.301,399.238,466.098,399.034,466.098,398.629z M466.098,400.793c0-0.406,0.203-0.608,0.608-0.608
		c0.406,0,0.608,0.202,0.608,0.608c0,0.404-0.202,0.607-0.608,0.607C466.301,401.402,466.098,401.198,466.098,400.793z
		 M466.098,402.821c0-0.404,0.203-0.607,0.608-0.607c0.406,0,0.608,0.203,0.608,0.607c0,0.406-0.202,0.608-0.608,0.608
		C466.301,403.429,466.098,403.227,466.098,402.821z M466.098,404.915c0-0.404,0.203-0.607,0.608-0.607
		c0.406,0,0.608,0.203,0.608,0.607c0,0.406-0.202,0.608-0.608,0.608C466.301,405.525,466.098,405.323,466.098,404.915z
		 M470.695,383.352h2.026v0.811h-2.026V383.352z"/>
	<path fill="#333333" d="M471.709,364.694h32.989v1.689h-26.771c0.227,0.136,0.338,0.315,0.338,0.541
		c0,0.404-0.201,0.607-0.607,0.607c-0.405,0-0.608-0.203-0.608-0.607c0-0.226,0.112-0.405,0.338-0.541h-5.678V364.694z
		 M471.709,407.078h5.272v-0.201c0-0.406,0.202-0.608,0.607-0.608s0.608,0.202,0.608,0.608c0,0.091-0.023,0.157-0.067,0.201h0.879
		c-0.046-0.044-0.066-0.156-0.066-0.338c0-0.404,0.202-0.607,0.607-0.607s0.608,0.203,0.608,0.607c0,0.137-0.046,0.248-0.136,0.338
		h1.148c-0.046-0.044-0.066-0.156-0.066-0.338c0-0.404,0.201-0.607,0.607-0.607c0.405,0,0.608,0.203,0.608,0.607
		c0,0.137-0.046,0.248-0.137,0.338h1.016c-0.046-0.044-0.067-0.156-0.067-0.338c0-0.404,0.202-0.607,0.608-0.607
		c0.405,0,0.607,0.203,0.607,0.607c0,0.137-0.046,0.248-0.136,0.338h1.082c-0.046-0.044-0.067-0.156-0.067-0.338
		c0-0.404,0.202-0.607,0.608-0.607c0.405,0,0.608,0.203,0.608,0.607c0,0.137-0.046,0.248-0.136,0.338h1.353
		c-0.046-0.044-0.068-0.156-0.068-0.338c0-0.404,0.203-0.607,0.608-0.607c0.406,0,0.608,0.203,0.608,0.607
		c0,0.137-0.046,0.248-0.136,0.338h1.487c-0.046-0.044-0.067-0.156-0.067-0.338c0-0.404,0.202-0.607,0.608-0.607
		c0.405,0,0.608,0.203,0.608,0.607c0,0.137-0.046,0.248-0.137,0.338h1.354c-0.046-0.044-0.067-0.156-0.067-0.338
		c0-0.404,0.202-0.607,0.608-0.607c0.405,0,0.607,0.203,0.607,0.607c0,0.137-0.046,0.248-0.136,0.338h1.149
		c-0.046-0.044-0.067-0.156-0.067-0.338c0-0.404,0.202-0.607,0.608-0.607c0.404,0,0.607,0.203,0.607,0.607
		c0,0.137-0.046,0.248-0.136,0.338h1.149c-0.045-0.044-0.067-0.156-0.067-0.338c0-0.404,0.203-0.607,0.608-0.607
		c0.404,0,0.607,0.203,0.607,0.607c0,0.137-0.046,0.248-0.136,0.338h1.015c-0.046-0.044-0.066-0.156-0.066-0.338
		c0-0.404,0.202-0.607,0.607-0.607s0.608,0.203,0.608,0.607c0,0.137-0.046,0.248-0.136,0.338h4.8v1.69h-32.989v-1.69H471.709z
		 M471.776,383.352h5.205v0.811h-5.205V383.352z M477.049,369.087c0-0.405,0.203-0.608,0.608-0.608c0.406,0,0.607,0.203,0.607,0.608
		s-0.201,0.607-0.607,0.607C477.252,369.696,477.049,369.492,477.049,369.087z M477.049,371.115c0-0.404,0.203-0.607,0.608-0.607
		c0.406,0,0.607,0.203,0.607,0.607c0,0.405-0.201,0.608-0.607,0.608C477.252,371.724,477.049,371.521,477.049,371.115z
		 M477.049,373.211c0-0.405,0.203-0.608,0.608-0.608c0.406,0,0.607,0.203,0.607,0.608c0,0.404-0.201,0.607-0.607,0.607
		C477.252,373.82,477.049,373.615,477.049,373.211z M477.049,375.576c0-0.405,0.203-0.607,0.608-0.607
		c0.406,0,0.607,0.202,0.607,0.607s-0.201,0.608-0.607,0.608C477.252,376.186,477.049,375.983,477.049,375.576z M477.049,378.077
		c0-0.404,0.203-0.607,0.608-0.607c0.406,0,0.607,0.203,0.607,0.607c0,0.405-0.201,0.608-0.607,0.608
		C477.252,378.687,477.049,378.484,477.049,378.077z M477.049,380.445c0-0.405,0.203-0.607,0.608-0.607
		c0.406,0,0.607,0.202,0.607,0.607s-0.201,0.608-0.607,0.608C477.252,381.053,477.049,380.85,477.049,380.445z M477.049,382.608
		c0-0.405,0.203-0.607,0.608-0.607c0.406,0,0.607,0.202,0.607,0.607s-0.201,0.608-0.607,0.608
		C477.252,383.216,477.049,383.013,477.049,382.608z M477.049,384.771c0-0.405,0.203-0.608,0.608-0.608
		c0.406,0,0.607,0.203,0.607,0.608c0,0.406-0.201,0.608-0.607,0.608C477.252,385.379,477.049,385.177,477.049,384.771z
		 M477.049,386.799c0-0.405,0.203-0.608,0.608-0.608c0.406,0,0.607,0.203,0.607,0.608c0,0.404-0.201,0.607-0.607,0.607
		C477.252,387.406,477.049,387.203,477.049,386.799z M477.049,388.895c0-0.405,0.203-0.608,0.608-0.608
		c0.406,0,0.607,0.203,0.607,0.608s-0.201,0.608-0.607,0.608C477.252,389.503,477.049,389.3,477.049,388.895z M477.049,391.261
		c0-0.405,0.203-0.608,0.608-0.608c0.406,0,0.607,0.203,0.607,0.608c0,0.404-0.201,0.607-0.607,0.607
		C477.252,391.868,477.049,391.665,477.049,391.261z M477.049,393.627c0-0.406,0.203-0.608,0.608-0.608
		c0.406,0,0.607,0.202,0.607,0.608c0,0.404-0.201,0.607-0.607,0.607C477.252,394.236,477.049,394.031,477.049,393.627z
		 M477.049,395.992c0-0.405,0.203-0.607,0.608-0.607c0.406,0,0.607,0.202,0.607,0.607s-0.201,0.608-0.607,0.608
		C477.252,396.602,477.049,396.399,477.049,395.992z M477.049,398.629c0-0.405,0.203-0.608,0.608-0.608
		c0.406,0,0.607,0.203,0.607,0.608s-0.201,0.607-0.607,0.607C477.252,399.238,477.049,399.034,477.049,398.629z M477.049,400.793
		c0-0.406,0.203-0.608,0.608-0.608c0.406,0,0.607,0.202,0.607,0.608c0,0.404-0.201,0.607-0.607,0.607
		C477.252,401.402,477.049,401.198,477.049,400.793z M477.049,402.821c0-0.404,0.203-0.607,0.608-0.607
		c0.406,0,0.607,0.203,0.607,0.607c0,0.406-0.201,0.608-0.607,0.608C477.252,403.429,477.049,403.227,477.049,402.821z
		 M477.049,404.915c0-0.404,0.203-0.607,0.608-0.607c0.406,0,0.607,0.203,0.607,0.607c0,0.406-0.201,0.608-0.607,0.608
		C477.252,405.525,477.049,405.323,477.049,404.915z M478.604,383.352h5.206v0.811h-5.206V383.352z M485.229,383.352h5.206v0.811
		h-5.206V383.352z M492.057,383.352h5.205v0.811h-5.205V383.352z M498.614,383.352h5.205v0.811h-5.205V383.352z"/>
</g>
</svg>
