<?xml version="1.0" encoding="utf-8"?>
<!-- Generator: Adobe Illustrator 16.0.0, SVG Export Plug-In . SVG Version: 6.00 Build 0)  -->
<!DOCTYPE svg PUBLIC "-//W3C//DTD SVG 1.1//EN" "http://www.w3.org/Graphics/SVG/1.1/DTD/svg11.dtd">
<svg version="1.1" id="Calque_1" xmlns="http://www.w3.org/2000/svg" xmlns:xlink="http://www.w3.org/1999/xlink" x="0px" y="0px"
	 width="1280px" height="1050px" viewBox="0 0 1280 1050" enable-background="new 0 0 1280 1050" xml:space="preserve">
<g>
	<rect x="3" fill="#FFFFFF" width="1279" height="1050"/>
	<rect x="3" fill="#76CEA8" width="1280" height="90"/>
	<rect x="399.189" y="29" fill="none" width="480.621" height="60.377"/>
	<text transform="matrix(1 0 0 1 463.5698 60.1396)" font-family="'SeasideResortNF'" font-size="36">Trombinoscope</text>
	<g>
		<g>
			<rect x="88" y="177" fill="#BDCCD4" width="200" height="150"/>
			<g>
				<path d="M199.856,290.355c-3.063-0.486-3.134-8.912-3.134-8.912s9.001-8.91,10.963-20.893c5.277,0,8.537-12.739,3.258-17.222
					c0.221-4.717,6.784-37.038-26.444-37.038s-26.665,32.32-26.444,37.038c-5.278,4.482-2.019,17.222,3.258,17.222
					c1.962,11.982,10.964,20.893,10.964,20.893s-0.07,8.426-3.133,8.912c-9.868,1.57-46.715,17.822-46.715,35.645h124.142
					C246.571,308.178,209.723,291.926,199.856,290.355L199.856,290.355z M199.856,290.355"/>
			</g>
		</g>
		<g>
			<rect x="316" y="177" fill="#BDCCD4" width="200" height="150"/>
			<g>
				<path d="M427.856,290.355c-3.063-0.486-3.134-8.912-3.134-8.912s9.001-8.91,10.963-20.893c5.277,0,8.537-12.739,3.258-17.222
					c0.221-4.717,6.784-37.038-26.444-37.038s-26.665,32.32-26.444,37.038c-5.278,4.482-2.019,17.222,3.258,17.222
					c1.962,11.982,10.964,20.893,10.964,20.893s-0.07,8.426-3.133,8.912c-9.868,1.57-46.715,17.822-46.715,35.645h124.142
					C474.571,308.178,437.723,291.926,427.856,290.355L427.856,290.355z M427.856,290.355"/>
			</g>
		</g>
		<g>
			<rect x="544" y="177" fill="#BDCCD4" width="200" height="150"/>
			<g>
				<path d="M655.855,290.355c-3.063-0.486-3.133-8.912-3.133-8.912s9.001-8.91,10.963-20.893c5.277,0,8.537-12.739,3.258-17.222
					c0.221-4.717,6.785-37.038-26.443-37.038c-33.228,0-26.665,32.32-26.444,37.038c-5.278,4.482-2.019,17.222,3.258,17.222
					c1.962,11.982,10.964,20.893,10.964,20.893s-0.07,8.426-3.133,8.912c-9.868,1.57-46.715,17.822-46.715,35.645H702.57
					C702.57,308.178,665.723,291.926,655.855,290.355L655.855,290.355z M655.855,290.355"/>
			</g>
		</g>
		<g>
			<rect x="772" y="177" fill="#BDCCD4" width="200" height="150"/>
			<g>
				<path d="M883.855,290.355c-3.063-0.486-3.133-8.912-3.133-8.912s9.001-8.91,10.963-20.893c5.277,0,8.537-12.739,3.258-17.222
					c0.221-4.717,6.785-37.038-26.443-37.038s-26.664,32.32-26.444,37.038c-5.278,4.482-2.019,17.222,3.259,17.222
					c1.962,11.982,10.963,20.893,10.963,20.893s-0.07,8.426-3.133,8.912c-9.868,1.57-46.715,17.822-46.715,35.645H930.57
					C930.57,308.178,893.723,291.926,883.855,290.355L883.855,290.355z M883.855,290.355"/>
			</g>
		</g>
		<g>
			<rect x="1000" y="177" fill="#BDCCD4" width="200" height="150"/>
			<g>
				<path d="M1111.855,290.355c-3.063-0.486-3.133-8.912-3.133-8.912s9.001-8.91,10.963-20.893c5.277,0,8.537-12.739,3.258-17.222
					c0.221-4.717,6.785-37.038-26.443-37.038s-26.664,32.32-26.444,37.038c-5.278,4.482-2.019,17.222,3.259,17.222
					c1.962,11.982,10.963,20.893,10.963,20.893s-0.07,8.426-3.133,8.912c-9.868,1.57-46.715,17.822-46.715,35.645h124.141
					C1158.57,308.178,1121.723,291.926,1111.855,290.355L1111.855,290.355z M1111.855,290.355"/>
			</g>
		</g>
	</g>
	<g>
		<g>
			<rect x="88" y="475" fill="#BDCCD4" width="200" height="150"/>
			<g>
				<path d="M199.856,588.355c-3.063-0.486-3.134-8.912-3.134-8.912s9.001-8.91,10.963-20.893c5.277,0,8.537-12.739,3.258-17.222
					c0.221-4.718,6.784-37.038-26.444-37.038s-26.665,32.32-26.444,37.038c-5.278,4.482-2.019,17.222,3.258,17.222
					c1.962,11.982,10.964,20.893,10.964,20.893s-0.07,8.426-3.133,8.912c-9.868,1.57-46.715,17.822-46.715,35.645h124.142
					C246.571,606.178,209.723,589.926,199.856,588.355L199.856,588.355z M199.856,588.355"/>
			</g>
		</g>
		<g>
			<rect x="316" y="475" fill="#BDCCD4" width="200" height="150"/>
			<g>
				<path d="M427.856,588.355c-3.063-0.486-3.134-8.912-3.134-8.912s9.001-8.91,10.963-20.893c5.277,0,8.537-12.739,3.258-17.222
					c0.221-4.718,6.784-37.038-26.444-37.038s-26.665,32.32-26.444,37.038c-5.278,4.482-2.019,17.222,3.258,17.222
					c1.962,11.982,10.964,20.893,10.964,20.893s-0.07,8.426-3.133,8.912c-9.868,1.57-46.715,17.822-46.715,35.645h124.142
					C474.571,606.178,437.723,589.926,427.856,588.355L427.856,588.355z M427.856,588.355"/>
			</g>
		</g>
		<g>
			<rect x="544" y="475" fill="#BDCCD4" width="200" height="150"/>
			<g>
				<path d="M655.855,588.355c-3.063-0.486-3.133-8.912-3.133-8.912s9.001-8.91,10.963-20.893c5.277,0,8.537-12.739,3.258-17.222
					c0.221-4.718,6.785-37.038-26.443-37.038c-33.228,0-26.665,32.32-26.444,37.038c-5.278,4.482-2.019,17.222,3.258,17.222
					c1.962,11.982,10.964,20.893,10.964,20.893s-0.07,8.426-3.133,8.912c-9.868,1.57-46.715,17.822-46.715,35.645H702.57
					C702.57,606.178,665.723,589.926,655.855,588.355L655.855,588.355z M655.855,588.355"/>
			</g>
		</g>
		<g>
			<rect x="772" y="475" fill="#BDCCD4" width="200" height="150"/>
			<g>
				<path d="M883.855,588.355c-3.063-0.486-3.133-8.912-3.133-8.912s9.001-8.91,10.963-20.893c5.277,0,8.537-12.739,3.258-17.222
					c0.221-4.718,6.785-37.038-26.443-37.038s-26.664,32.32-26.444,37.038c-5.278,4.482-2.019,17.222,3.259,17.222
					c1.962,11.982,10.963,20.893,10.963,20.893s-0.07,8.426-3.133,8.912c-9.868,1.57-46.715,17.822-46.715,35.645H930.57
					C930.57,606.178,893.723,589.926,883.855,588.355L883.855,588.355z M883.855,588.355"/>
			</g>
		</g>
		<g>
			<rect x="1000" y="475" fill="#BDCCD4" width="200" height="150"/>
			<g>
				<path d="M1111.855,588.355c-3.063-0.486-3.133-8.912-3.133-8.912s9.001-8.91,10.963-20.893c5.277,0,8.537-12.739,3.258-17.222
					c0.221-4.718,6.785-37.038-26.443-37.038s-26.664,32.32-26.444,37.038c-5.278,4.482-2.019,17.222,3.259,17.222
					c1.962,11.982,10.963,20.893,10.963,20.893s-0.07,8.426-3.133,8.912c-9.868,1.57-46.715,17.822-46.715,35.645h124.141
					C1158.57,606.178,1121.723,589.926,1111.855,588.355L1111.855,588.355z M1111.855,588.355"/>
			</g>
		</g>
	</g>
	<g>
		<g>
			<rect x="88" y="774" fill="#BDCCD4" width="200" height="150"/>
			<g>
				<path d="M199.856,887.355c-3.063-0.486-3.134-8.912-3.134-8.912s9.001-8.91,10.963-20.893c5.277,0,8.537-12.739,3.258-17.222
					c0.221-4.718,6.784-37.038-26.444-37.038s-26.665,32.32-26.444,37.038c-5.278,4.482-2.019,17.222,3.258,17.222
					c1.962,11.982,10.964,20.893,10.964,20.893s-0.07,8.426-3.133,8.912c-9.868,1.57-46.715,17.822-46.715,35.645h124.142
					C246.571,905.178,209.723,888.926,199.856,887.355L199.856,887.355z M199.856,887.355"/>
			</g>
		</g>
		<g>
			<rect x="316" y="774" fill="#BDCCD4" width="200" height="150"/>
			<g>
				<path d="M427.856,887.355c-3.063-0.486-3.134-8.912-3.134-8.912s9.001-8.91,10.963-20.893c5.277,0,8.537-12.739,3.258-17.222
					c0.221-4.718,6.784-37.038-26.444-37.038s-26.665,32.32-26.444,37.038c-5.278,4.482-2.019,17.222,3.258,17.222
					c1.962,11.982,10.964,20.893,10.964,20.893s-0.07,8.426-3.133,8.912c-9.868,1.57-46.715,17.822-46.715,35.645h124.142
					C474.571,905.178,437.723,888.926,427.856,887.355L427.856,887.355z M427.856,887.355"/>
			</g>
		</g>
		<g>
			<rect x="544" y="774" fill="#BDCCD4" width="200" height="150"/>
			<g>
				<path d="M655.855,887.355c-3.063-0.486-3.133-8.912-3.133-8.912s9.001-8.91,10.963-20.893c5.277,0,8.537-12.739,3.258-17.222
					c0.221-4.718,6.785-37.038-26.443-37.038c-33.228,0-26.665,32.32-26.444,37.038c-5.278,4.482-2.019,17.222,3.258,17.222
					c1.962,11.982,10.964,20.893,10.964,20.893s-0.07,8.426-3.133,8.912c-9.868,1.57-46.715,17.822-46.715,35.645H702.57
					C702.57,905.178,665.723,888.926,655.855,887.355L655.855,887.355z M655.855,887.355"/>
			</g>
		</g>
		<g>
			<rect x="772" y="774" fill="#BDCCD4" width="200" height="150"/>
			<g>
				<path d="M883.855,887.355c-3.063-0.486-3.133-8.912-3.133-8.912s9.001-8.91,10.963-20.893c5.277,0,8.537-12.739,3.258-17.222
					c0.221-4.718,6.785-37.038-26.443-37.038s-26.664,32.32-26.444,37.038c-5.278,4.482-2.019,17.222,3.259,17.222
					c1.962,11.982,10.963,20.893,10.963,20.893s-0.07,8.426-3.133,8.912c-9.868,1.57-46.715,17.822-46.715,35.645H930.57
					C930.57,905.178,893.723,888.926,883.855,887.355L883.855,887.355z M883.855,887.355"/>
			</g>
		</g>
		<g>
			<rect x="1000" y="774" fill="#BDCCD4" width="200" height="150"/>
			<g>
				<path d="M1111.855,887.355c-3.063-0.486-3.133-8.912-3.133-8.912s9.001-8.91,10.963-20.893c5.277,0,8.537-12.739,3.258-17.222
					c0.221-4.718,6.785-37.038-26.443-37.038s-26.664,32.32-26.444,37.038c-5.278,4.482-2.019,17.222,3.259,17.222
					c1.962,11.982,10.963,20.893,10.963,20.893s-0.07,8.426-3.133,8.912c-9.868,1.57-46.715,17.822-46.715,35.645h124.141
					C1158.57,905.178,1121.723,888.926,1111.855,887.355L1111.855,887.355z M1111.855,887.355"/>
			</g>
		</g>
	</g>
	<polygon fill="#B5F4D7" points="3,0 121,0 3,90 	"/>
	<polygon fill="#89DBB5" points="113,90 231,0 121,0 3,90 	"/>
	<polygon fill="#89DBB5" points="3,90 13.891,101 24.781,90 	"/>
	<polygon fill="#89DBB5" points="25,90 35.891,101 46.781,90 	"/>
	<polygon fill="#89DBB5" points="47,90 57.891,101 68.781,90 	"/>
	<polygon fill="#89DBB5" points="69,90 79.891,101 90.781,90 	"/>
	<polygon fill="#89DBB5" points="91,90 101.891,101 112.781,90 	"/>
	<polygon fill="#76CEA8" points="113,90 123.891,101 134.781,90 	"/>
	<polygon fill="#76CEA8" points="135,90 145.891,101 156.781,90 	"/>
	<polygon fill="#76CEA8" points="157,90 167.891,101 178.781,90 	"/>
	<polygon fill="#76CEA8" points="179,90 189.891,101 200.781,90 	"/>
	<polygon fill="#76CEA8" points="201,90 211.891,101 222.781,90 	"/>
	<polygon fill="#76CEA8" points="223,90 233.891,101 244.781,90 	"/>
	<polygon fill="#76CEA8" points="245,90 255.891,101 266.781,90 	"/>
	<polygon fill="#76CEA8" points="267,90 277.891,101 288.781,90 	"/>
	<polygon fill="#76CEA8" points="289,90 299.891,101 310.781,90 	"/>
	<polygon fill="#76CEA8" points="311,90 321.891,101 332.781,90 	"/>
	<polygon fill="#76CEA8" points="333,90 343.891,101 354.781,90 	"/>
	<polygon fill="#76CEA8" points="355,90 365.891,101 376.781,90 	"/>
	<polygon fill="#76CEA8" points="377,90 387.891,101 398.781,90 	"/>
	<polygon fill="#76CEA8" points="399,90 409.891,101 420.781,90 	"/>
	<polygon fill="#76CEA8" points="421,90 431.891,101 442.781,90 	"/>
	<polygon fill="#76CEA8" points="443,90 453.891,101 464.781,90 	"/>
	<polygon fill="#76CEA8" points="465,90 475.891,101 486.781,90 	"/>
	<polygon fill="#76CEA8" points="487,90 497.891,101 508.781,90 	"/>
	<polygon fill="#76CEA8" points="509,90 519.891,101 530.781,90 	"/>
	<polygon fill="#76CEA8" points="531,90 541.891,101 552.781,90 	"/>
	<polygon fill="#76CEA8" points="553,90 563.891,101 574.781,90 	"/>
	<polygon fill="#76CEA8" points="575,90 585.891,101 596.781,90 	"/>
	<polygon fill="#76CEA8" points="597,90 607.891,101 618.781,90 	"/>
	<polygon fill="#76CEA8" points="619,90 629.891,101 640.781,90 	"/>
	<polygon fill="#76CEA8" points="641,90 651.891,101 662.781,90 	"/>
	<polygon fill="#76CEA8" points="663,90 673.891,101 684.781,90 	"/>
	<polygon fill="#76CEA8" points="685,90 695.891,101 706.781,90 	"/>
	<polygon fill="#76CEA8" points="707,90 717.891,101 728.781,90 	"/>
	<polygon fill="#76CEA8" points="729,90 739.891,101 750.781,90 	"/>
	<polygon fill="#76CEA8" points="751,90 761.891,101 772.781,90 	"/>
	<polygon fill="#76CEA8" points="773,90 783.891,101 794.781,90 	"/>
	<polygon fill="#76CEA8" points="795,90 805.891,101 816.781,90 	"/>
	<polygon fill="#76CEA8" points="817,90 827.891,101 838.781,90 	"/>
	<polygon fill="#76CEA8" points="839,90 849.891,101 860.781,90 	"/>
	<polygon fill="#76CEA8" points="861,90 871.891,101 882.781,90 	"/>
	<polygon fill="#76CEA8" points="883,90 893.891,101 904.781,90 	"/>
	<polygon fill="#76CEA8" points="905,90 915.891,101 926.781,90 	"/>
	<polygon fill="#76CEA8" points="927,90 937.891,101 948.781,90 	"/>
	<polygon fill="#76CEA8" points="949,90 959.891,101 970.781,90 	"/>
	<polygon fill="#76CEA8" points="971,90 981.891,101 992.781,90 	"/>
	<polygon fill="#76CEA8" points="993,90 1003.891,101 1014.781,90 	"/>
	<polygon fill="#76CEA8" points="1015,90 1025.891,101 1036.781,90 	"/>
	<polygon fill="#76CEA8" points="1037,90 1047.891,101 1058.781,90 	"/>
	<polygon fill="#76CEA8" points="1059,90 1069.891,101 1080.781,90 	"/>
	<polygon fill="#76CEA8" points="1081,90 1091.891,101 1102.781,90 	"/>
	<polygon fill="#76CEA8" points="1103,90 1113.891,101 1124.781,90 	"/>
	<polygon fill="#76CEA8" points="1125,90 1135.891,101 1146.781,90 	"/>
	<polygon fill="#76CEA8" points="1147,90 1157.891,101 1168.781,90 	"/>
	<polygon fill="#76CEA8" points="1169,90 1179.891,101 1190.781,90 	"/>
	<polygon fill="#76CEA8" points="1191,90 1201.891,101 1212.781,90 	"/>
	<polygon fill="#76CEA8" points="1213,90 1223.891,101 1234.781,90 	"/>
	<polygon fill="#76CEA8" points="1235,90 1245.891,101 1256.781,90 	"/>
	<polygon fill="#76CEA8" points="1257,90 1267.891,101 1278.781,90 	"/>
	<line fill="#B3B3B3" x1="417" y1="403" x2="870" y2="403"/>
	<line fill="#B3B3B3" x1="417" y1="696" x2="870" y2="696"/>
	<g>
		<rect x="88" y="326" fill="#76CEA8" width="200" height="73"/>
		<polygon fill="#76CEA8" points="177,326 189.26,304.706 201.521,326 		"/>
	</g>
	<rect x="6" y="999" fill="#76CEA8" width="1276" height="51"/>
	<rect x="606.757" y="1020.029" fill="none" width="65.486" height="8.941"/>
	<text transform="matrix(1 0 0 1 606.7568 1028.7295)" font-family="'Arimo'" font-size="12">CDNL 1415</text>
	<g>
	</g>
	<g>
		<rect x="967.095" y="27.796" fill="#36162D" width="4.946" height="9.891"/>
		<path fill="#36162D" d="M966.119,77.016c0,1.217-0.989,2.203-2.205,2.203h-36.23c-1.217,0-2.203-0.986-2.203-2.203V20.114
			c0-1.219,0.986-2.205,2.203-2.205h36.23c1.216,0,2.205,0.985,2.205,2.205V77.016z"/>
		<g>
			<g>
				<circle fill="#76CEA8" cx="945.219" cy="58.999" r="12.245"/>
				<circle fill="#36162D" cx="945.219" cy="58.999" r="7.301"/>
			</g>
			<g>
				<circle fill="#76CEA8" cx="945.219" cy="38.667" r="8.949"/>
				<circle fill="#36162D" cx="945.219" cy="38.667" r="6.67"/>
			</g>
			<g>
				<g>
					<circle fill="#FFFFFF" cx="936.39" cy="50.594" r="3.768"/>
					<circle fill="#36162D" cx="936.39" cy="50.594" r="2.78"/>
					<path fill="#76CEA8" d="M938.035,50.593c0,0.91-0.735,1.646-1.646,1.646c-0.908,0-1.643-0.736-1.643-1.646
						c0-0.908,0.734-1.644,1.643-1.644C937.3,48.949,938.035,49.685,938.035,50.593z"/>
				</g>
				<g>
					<circle fill="#FFFFFF" cx="954.047" cy="50.594" r="3.768"/>
					<circle fill="#36162D" cx="954.047" cy="50.594" r="2.781"/>
					<circle fill="#76CEA8" cx="954.047" cy="50.593" r="1.645"/>
				</g>
			</g>
			<circle fill="#76CEA8" cx="957.711" cy="28.741" r="2.001"/>
			<g>
				<path fill="none" stroke="#FFFFFF" stroke-width="1.0676" d="M928.697,26.507v43.91c0,0.905,0.668,1.945,1.52,2.249
					c12.507,4.452,18.296,4.131,31.168,0c0.859-0.275,1.517-1.344,1.517-2.249v-43.91c0-0.905-0.663-1.957-1.518-2.249
					c-12.871-4.406-18.66-4.567-31.169,0C929.365,24.568,928.697,25.602,928.697,26.507z"/>
			</g>
		</g>
		<path fill="#36162D" d="M962.178,15.233c0,0.668-0.543,1.212-1.212,1.212h-30.333c-0.669,0-1.211-0.544-1.211-1.212v-4.922
			c0-0.67,0.542-1.212,1.211-1.212h30.333c0.669,0,1.212,0.542,1.212,1.212V15.233z"/>
	</g>
</g>
</svg>
