<?xml version="1.0" encoding="utf-8"?>
<!-- Generator: Adobe Illustrator 16.0.0, SVG Export Plug-In . SVG Version: 6.00 Build 0)  -->
<!DOCTYPE svg PUBLIC "-//W3C//DTD SVG 1.1//EN" "http://www.w3.org/Graphics/SVG/1.1/DTD/svg11.dtd">
<svg version="1.1" xmlns="http://www.w3.org/2000/svg" xmlns:xlink="http://www.w3.org/1999/xlink" x="0px" y="0px" width="800px"
	 height="600px" viewBox="0 0 800 600" enable-background="new 0 0 800 600" xml:space="preserve">
<pattern  x="0.5" y="600.5" width="176.991" height="176.991" patternUnits="userSpaceOnUse" id="SVGID_1_" viewBox="0 -176.991 176.991 176.991" overflow="visible">
	<g>
		<polygon fill="none" points="0,0 176.991,0 176.991,-176.99 0,-176.99 		"/>
		<g>
			<polygon fill="none" points="0,-176.99 176.991,-176.99 176.991,-0.001 0,-0.001 			"/>
			<g>
				<polygon fill="none" points="0,-0.001 176.991,-0.001 176.991,-176.99 0,-176.99 				"/>
				<polygon fill="#FDFFC7" points="176.991,-0.001 0,-0.001 0,-176.99 176.991,-176.99 				"/>
				<polygon fill="#E1E4BC" points="2.991,-0.001 0,-0.001 0,-176.99 2.991,-176.99 				"/>
				<polygon fill="#EBF1C0" points="24.43,-0.001 22.561,-0.001 22.561,-176.99 24.43,-176.99 				"/>
				<polygon fill="#EBF1C0" points="69.097,-0.001 67.228,-0.001 67.228,-176.99 69.097,-176.99 				"/>
				<polygon fill="#EBF1C0" points="113.764,-0.001 111.895,-0.001 111.895,-176.99 113.764,-176.99 				"/>
				<polygon fill="#EBF1C0" points="158.431,-0.001 156.562,-0.001 156.562,-176.99 158.431,-176.99 				"/>
				<polygon fill="#EBF1C0" points="176.991,-21.431 176.991,-19.561 0,-19.561 0,-21.431 				"/>
				<polygon fill="#EBF1C0" points="176.991,-66.098 176.991,-64.228 0,-64.228 0,-66.098 				"/>
				<polygon fill="#EBF1C0" points="176.991,-110.765 176.991,-108.895 0,-108.895 0,-110.765 				"/>
				<polygon fill="#EBF1C0" points="176.991,-155.432 176.991,-153.562 0,-153.562 0,-155.432 				"/>
				<polygon fill="#E1E4BC" points="47.657,-0.001 44.667,-0.001 44.667,-176.99 47.657,-176.99 				"/>
				<polygon fill="#E1E4BC" points="92.324,-0.001 89.333,-0.001 89.333,-176.99 92.324,-176.99 				"/>
				<polygon fill="#E1E4BC" points="136.99,-0.001 134,-0.001 134,-176.99 136.99,-176.99 				"/>
				<polygon fill="#E1E4BC" points="0,-174.001 0,-176.99 176.991,-176.99 176.991,-174.001 				"/>
				<polygon fill="#E1E4BC" points="0,-129.335 0,-132.324 176.991,-132.324 176.991,-129.335 				"/>
				<polygon fill="#E1E4BC" points="0,-84.667 0,-87.658 176.991,-87.658 176.991,-84.667 				"/>
				<polygon fill="#E1E4BC" points="0,-40.001 0,-42.99 176.991,-42.99 176.991,-40.001 				"/>
			</g>
		</g>
	</g>
</pattern>
<g id="Background_1_">
	<pattern  id="SVGID_2_" xlink:href="#SVGID_1_" patternTransform="matrix(1 0 0 1 0 17338.9805)">
	</pattern>
	<rect y="0" opacity="0.5" fill="url(#SVGID_2_)" enable-background="new    " width="600.5" height="598.5"/>
	<polygon fill="#111111" points="318.095,566.075 5.11,600 512.085,600 	"/>
	
		<linearGradient id="SVGID_3_" gradientUnits="userSpaceOnUse" x1="577.2861" y1="542.6731" x2="413.1412" y2="583.7088" gradientTransform="matrix(1 0 0 1 -41.9805 5.8008)">
		<stop  offset="0" style="stop-color:#4E4E4E"/>
		<stop  offset="0.0547" style="stop-color:#474747"/>
		<stop  offset="0.2045" style="stop-color:#3C3C3C"/>
		<stop  offset="0.4149" style="stop-color:#353535"/>
		<stop  offset="1" style="stop-color:#333333"/>
	</linearGradient>
	<polygon fill="url(#SVGID_3_)" points="541.584,504.578 318.095,566.075 494.5,601 	"/>
	<polygon fill="#262626" points="563.898,445.59 489.834,600 573.082,527.889 	"/>
	<polygon fill="#141414" points="563.5,522.531 490.5,600.166 574.5,600.166 	"/>
	<rect x="563.674" y="0.984" fill="#141414" width="238.326" height="599.458"/>
</g>
<g id="Graphique">
	<rect x="601.354" y="38.599" fill="#1D2121" width="161.521" height="11.576"/>
	<rect x="601.354" y="74.368" fill="#1D2121" width="161.521" height="11.573"/>
	<rect x="601.354" y="111.238" fill="#1D2121" width="161.521" height="9.925"/>
	<rect x="601.354" y="147.006" fill="#1D2121" width="161.521" height="10.475"/>
	<rect x="601.354" y="182.773" fill="#1D2121" width="161.521" height="11.027"/>
	<rect x="601.354" y="219.094" fill="#1D2121" width="161.521" height="11.024"/>
	<rect x="601.354" y="254.861" fill="#1D2121" width="161.521" height="11.025"/>
	<rect x="601.293" y="291.599" fill="#1D2121" width="161.521" height="11.576"/>
	<rect x="601.293" y="327.366" fill="#1D2121" width="161.521" height="11.575"/>
	<rect x="601.293" y="364.238" fill="#1D2121" width="161.521" height="9.923"/>
	<rect x="601.293" y="400.006" fill="#1D2121" width="161.521" height="10.475"/>
	<rect x="601.293" y="435.773" fill="#1D2121" width="161.521" height="11.027"/>
	<rect x="601.293" y="472.094" fill="#1D2121" width="161.521" height="11.022"/>
	<rect x="601.293" y="507.861" fill="#1D2121" width="161.521" height="11.025"/>
</g>
<g id="Textes">
	<g>
		<path fill="#333333" d="M395.993,411.008h24.806v1.161h-11.475c0.156,0.093,0.233,0.216,0.233,0.371
			c0,0.277-0.14,0.417-0.418,0.417s-0.418-0.14-0.418-0.417c0-0.155,0.077-0.278,0.233-0.371h-12.961L395.993,411.008
			L395.993,411.008z M407.652,439.297c0.279,0,0.418,0.125,0.418,0.372c0,0.31-0.108,0.464-0.325,0.464h0.976
			c-0.03-0.03-0.046-0.123-0.046-0.276c0.03-0.217,0.186-0.357,0.464-0.419c0.309,0.063,0.434,0.218,0.371,0.465
			c-0.03,0.063-0.046,0.109-0.046,0.14s-0.015,0.063-0.046,0.092h0.837c-0.063-0.062-0.093-0.168-0.093-0.324
			c0-0.248,0.139-0.372,0.418-0.372c0.246,0,0.371,0.157,0.371,0.465c0,0.095-0.031,0.17-0.094,0.232h9.941v1.161h-24.806v-1.161
			h11.612c-0.093,0-0.178-0.03-0.255-0.093c-0.078-0.062-0.101-0.154-0.071-0.277C407.281,439.453,407.404,439.297,407.652,439.297z
			 M396.039,423.829h3.576v0.557h-3.576V423.829z M400.22,426.29c0,0.279-0.155,0.419-0.464,0.419c-0.248,0-0.372-0.14-0.372-0.419
			c0-0.278,0.14-0.418,0.417-0.418C400.081,425.871,400.22,426.012,400.22,426.29z M399.43,427.961c0-0.277,0.14-0.416,0.417-0.416
			c0.279,0,0.418,0.139,0.418,0.416c0,0.279-0.139,0.419-0.418,0.419C399.57,428.382,399.43,428.241,399.43,427.961z
			 M399.523,424.756c0-0.277,0.14-0.417,0.418-0.417s0.418,0.14,0.418,0.417c0,0.278-0.14,0.418-0.418,0.418
			C399.663,425.175,399.523,425.036,399.523,424.756z M400.034,429.076c0.31,0.063,0.434,0.217,0.372,0.465
			c-0.063,0.311-0.217,0.437-0.465,0.372c-0.248,0-0.371-0.154-0.371-0.464C399.631,429.201,399.786,429.076,400.034,429.076z
			 M399.709,423.131c0-0.277,0.139-0.417,0.418-0.417c0.278,0,0.418,0.14,0.418,0.417c0,0.278-0.14,0.417-0.418,0.417
			C399.848,423.55,399.709,423.409,399.709,423.131z M400.034,431.166c0-0.276,0.14-0.416,0.418-0.416s0.418,0.14,0.418,0.416
			c0,0.279-0.14,0.419-0.418,0.419C400.174,431.586,400.034,431.447,400.034,431.166z M400.128,421.646
			c0-0.278,0.138-0.418,0.418-0.418c0.278,0,0.417,0.14,0.417,0.418c0,0.277-0.139,0.417-0.417,0.417
			C400.266,422.063,400.128,421.923,400.128,421.646z M401.242,432.7c0,0.247-0.139,0.372-0.418,0.372
			c-0.278,0-0.418-0.139-0.418-0.418c0-0.278,0.14-0.417,0.418-0.417C401.104,432.237,401.242,432.392,401.242,432.7z
			 M400.5,420.204c0-0.278,0.139-0.417,0.417-0.417s0.418,0.139,0.418,0.417c0,0.277-0.14,0.417-0.418,0.417
			C400.639,420.623,400.5,420.484,400.5,420.204z M400.732,423.829h3.576v0.557h-3.576V423.829z M401.242,433.629
			c0.31,0,0.465,0.157,0.465,0.465c0,0.248-0.125,0.372-0.371,0.372c-0.311,0.063-0.465-0.062-0.465-0.372
			C400.871,433.847,400.994,433.691,401.242,433.629z M401.893,418.997c0,0.249-0.156,0.372-0.465,0.372
			c-0.248,0-0.371-0.14-0.371-0.417c0-0.278,0.139-0.418,0.417-0.418C401.754,418.532,401.893,418.687,401.893,418.997z
			 M401.986,434.975c0.277,0.064,0.434,0.203,0.464,0.42c0,0.123-0.039,0.231-0.116,0.324c-0.078,0.095-0.179,0.126-0.301,0.095
			c-0.279,0.063-0.418-0.063-0.418-0.372C401.552,435.195,401.676,435.038,401.986,434.975z M402.543,417.464
			c0,0.277-0.139,0.417-0.418,0.417c-0.278-0.062-0.418-0.215-0.418-0.464c0.062-0.31,0.216-0.434,0.465-0.372
			C402.479,417.047,402.604,417.186,402.543,417.464z M402.914,436.278c0.279-0.062,0.449,0.046,0.512,0.325
			c0,0.279-0.125,0.45-0.372,0.512c-0.31,0-0.465-0.156-0.465-0.465C402.527,436.403,402.636,436.278,402.914,436.278z
			 M403.519,416.071c0,0.279-0.14,0.419-0.419,0.419c-0.277,0-0.417-0.14-0.417-0.419c0-0.278,0.14-0.418,0.417-0.418
			C403.379,415.652,403.519,415.791,403.519,416.071z M403.797,437.346c0.309-0.062,0.434,0.063,0.371,0.372
			c0.063,0.248-0.046,0.403-0.325,0.465c-0.278,0-0.448-0.14-0.511-0.417C403.363,437.548,403.519,437.408,403.797,437.346z
			 M404.448,414.817c0,0.279-0.156,0.419-0.466,0.419c-0.247,0-0.371-0.14-0.371-0.419c0-0.278,0.139-0.416,0.418-0.416
			C404.309,414.399,404.448,414.536,404.448,414.817z M404.771,438.276c0.279-0.063,0.418,0.045,0.418,0.325
			c0.063,0.278-0.046,0.449-0.324,0.511c-0.311-0.062-0.48-0.201-0.512-0.419c0-0.122,0.039-0.231,0.116-0.324
			C404.548,438.276,404.648,438.243,404.771,438.276z M405.423,413.933c0,0.278-0.139,0.418-0.417,0.418
			c-0.279,0-0.419-0.155-0.419-0.465c0-0.247,0.14-0.371,0.419-0.371C405.284,413.516,405.423,413.655,405.423,413.933z
			 M405.284,423.829h3.576v0.557h-3.576V423.829z M406.213,438.926c0.278-0.062,0.447,0.063,0.511,0.371
			c0,0.248-0.155,0.403-0.466,0.465c-0.309,0-0.434-0.123-0.37-0.371C405.826,439.08,405.934,438.926,406.213,438.926z
			 M406.771,413.099c-0.064,0.278-0.218,0.417-0.466,0.417c-0.31,0-0.435-0.139-0.372-0.417c0-0.279,0.141-0.417,0.418-0.417
			C406.63,412.681,406.771,412.818,406.771,413.099z M408.164,412.726c0,0.279-0.156,0.419-0.465,0.419
			c-0.248,0-0.371-0.14-0.371-0.419c0-0.278,0.139-0.416,0.417-0.416C408.024,412.309,408.164,412.448,408.164,412.726z
			 M409.977,423.829h3.576v0.557h-3.576V423.829z M410.115,412.634c0-0.279,0.139-0.419,0.417-0.419s0.418,0.14,0.418,0.419
			c0,0.278-0.124,0.416-0.372,0.416C410.268,413.05,410.115,412.912,410.115,412.634z M411.463,413.145
			c0-0.278,0.138-0.419,0.417-0.419c0.278,0,0.418,0.141,0.418,0.419c0.062,0.276-0.062,0.417-0.372,0.417
			C411.678,413.562,411.524,413.421,411.463,413.145z M412.019,438.972c0.279,0,0.388,0.155,0.326,0.465
			c0.062,0.248-0.063,0.372-0.372,0.372c-0.311-0.063-0.465-0.216-0.465-0.465C411.57,439.034,411.74,438.91,412.019,438.972z
			 M412.809,413.981c0-0.278,0.14-0.418,0.418-0.418c0.279,0,0.418,0.126,0.418,0.371c0,0.311-0.139,0.467-0.418,0.467
			C412.948,414.4,412.809,414.259,412.809,413.981z M413.459,438.323c0.125-0.031,0.225,0,0.301,0.092
			c0.078,0.096,0.117,0.202,0.117,0.327c-0.031,0.215-0.201,0.356-0.51,0.416c-0.28-0.062-0.389-0.231-0.326-0.509
			C413.041,438.368,413.18,438.261,413.459,438.323z M413.785,414.863c0-0.278,0.139-0.417,0.417-0.417
			c0.279,0,0.419,0.139,0.419,0.417c0,0.279-0.125,0.417-0.373,0.417C413.938,415.28,413.785,415.142,413.785,414.863z
			 M414.435,437.393c0.278,0.063,0.435,0.202,0.466,0.417c-0.063,0.278-0.233,0.418-0.512,0.418
			c-0.279-0.063-0.388-0.216-0.326-0.465C414,437.455,414.125,437.331,414.435,437.393z M414.481,423.829h3.576v0.557h-3.576
			V423.829z M414.713,416.117c0-0.278,0.141-0.418,0.418-0.418c0.279,0,0.418,0.14,0.418,0.418s-0.139,0.417-0.418,0.417
			C414.854,416.535,414.713,416.396,414.713,416.117z M415.316,436.323c0.279,0,0.388,0.125,0.326,0.371
			c0,0.311-0.156,0.466-0.465,0.466c-0.247-0.063-0.371-0.233-0.371-0.511C414.868,436.37,415.039,436.263,415.316,436.323z
			 M415.688,417.51c-0.063-0.277,0.063-0.417,0.372-0.417c0.247-0.062,0.402,0.063,0.464,0.371c0,0.248-0.14,0.403-0.417,0.465
			C415.828,417.929,415.688,417.789,415.688,417.51z M416.248,435.024c0.307,0.063,0.431,0.217,0.371,0.464
			c0,0.312-0.14,0.436-0.419,0.373c-0.123,0.03-0.225,0-0.302-0.094c-0.077-0.093-0.115-0.201-0.115-0.325
			C415.813,435.225,415.967,435.086,416.248,435.024z M416.338,419.044c0-0.31,0.141-0.465,0.419-0.465s0.418,0.139,0.418,0.417
			s-0.125,0.417-0.372,0.417C416.493,419.415,416.338,419.29,416.338,419.044z M416.989,433.676
			c0.248,0.063,0.372,0.216,0.372,0.465c0,0.311-0.156,0.435-0.465,0.372c-0.248,0-0.372-0.123-0.372-0.372
			C416.524,433.83,416.679,433.676,416.989,433.676z M416.989,432.746c0-0.308,0.14-0.465,0.418-0.465s0.418,0.14,0.418,0.418
			s-0.14,0.417-0.418,0.417C417.129,433.117,416.989,432.996,416.989,432.746z M419.173,423.829h1.626v0.557h-1.626V423.829z"/>
		<path fill="#333333" d="M426.604,412.494c0,0.279-0.139,0.418-0.417,0.418c-0.277,0-0.417-0.156-0.417-0.465
			c0-0.094,0.045-0.187,0.14-0.278h-0.79c0.156,0.093,0.232,0.216,0.232,0.371c0,0.277-0.138,0.417-0.417,0.417
			s-0.418-0.14-0.418-0.417c0-0.155,0.076-0.278,0.232-0.371h-4.32v-1.161h24.666v1.161h-13.75c0.155,0.093,0.232,0.216,0.232,0.371
			c0,0.277-0.14,0.417-0.418,0.417s-0.417-0.14-0.417-0.417c0-0.155,0.076-0.278,0.232-0.371h-1.161
			c0.063,0.124,0.093,0.216,0.093,0.278c0,0.278-0.155,0.417-0.464,0.417c-0.248,0-0.371-0.139-0.371-0.417
			c0-0.124,0.03-0.216,0.093-0.278h-1.021c0.062,0.124,0.093,0.216,0.093,0.278c-0.063,0.278-0.218,0.417-0.465,0.417
			c-0.31,0-0.434-0.139-0.371-0.417c0-0.124,0.03-0.216,0.093-0.278h-1.068C426.543,412.293,426.604,412.401,426.604,412.494z
			 M420.427,440.132h4.041v-0.138c0-0.279,0.14-0.418,0.418-0.418c0.279,0,0.419,0.139,0.419,0.418c0,0.063-0.017,0.107-0.047,0.138
			h0.326c-0.031-0.03-0.047-0.075-0.047-0.138c0.032-0.217,0.187-0.357,0.466-0.418c0.309-0.062,0.435,0.063,0.371,0.371v0.186
			h0.466v-0.045c0-0.125,0.038-0.231,0.116-0.326c0.075-0.093,0.178-0.123,0.301-0.093c0.277-0.062,0.417,0.046,0.417,0.326v0.138
			h0.65v-0.045c-0.063-0.309,0.046-0.464,0.324-0.464c0.279-0.063,0.45,0.063,0.512,0.371c0,0.063-0.015,0.107-0.045,0.138h0.604
			v-0.093c0-0.309,0.123-0.464,0.371-0.464c0.278,0,0.418,0.124,0.418,0.371c0,0.093-0.015,0.155-0.046,0.186h0.743
			c-0.031-0.03-0.047-0.075-0.047-0.138c-0.063-0.247,0.063-0.402,0.371-0.465c0.28,0.063,0.436,0.201,0.467,0.417
			c0,0.093-0.016,0.155-0.047,0.186h13.146v1.161H420.43v-1.161L420.427,440.132L420.427,440.132z M420.473,423.829h3.578v0.557
			h-3.578V423.829z M424.515,414.028c0-0.279,0.14-0.419,0.418-0.419s0.417,0.14,0.417,0.419c0,0.277-0.139,0.416-0.417,0.416
			C424.654,414.446,424.515,414.305,424.515,414.028z M424.515,415.42c0-0.277,0.14-0.417,0.418-0.417s0.417,0.14,0.417,0.417
			c0,0.278-0.139,0.418-0.417,0.418C424.654,415.839,424.515,415.699,424.515,415.42z M424.515,416.861
			c0-0.278,0.14-0.417,0.418-0.417s0.417,0.139,0.417,0.417c0,0.277-0.139,0.417-0.417,0.417
			C424.654,417.279,424.515,417.138,424.515,416.861z M424.515,418.486c0-0.278,0.14-0.417,0.418-0.417s0.417,0.139,0.417,0.417
			s-0.139,0.418-0.417,0.418C424.654,418.906,424.515,418.766,424.515,418.486z M424.515,420.204c0-0.278,0.14-0.417,0.418-0.417
			s0.417,0.139,0.417,0.417c0,0.277-0.139,0.417-0.417,0.417C424.654,420.623,424.515,420.484,424.515,420.204z M424.515,421.831
			c0-0.278,0.14-0.417,0.418-0.417s0.417,0.139,0.417,0.417s-0.139,0.418-0.417,0.418S424.515,422.11,424.515,421.831z
			 M424.515,423.318c0-0.278,0.14-0.416,0.418-0.416s0.417,0.138,0.417,0.416s-0.139,0.418-0.417,0.418
			S424.515,423.596,424.515,423.318z M424.515,424.804c0-0.278,0.14-0.418,0.418-0.418s0.417,0.14,0.417,0.418
			c0,0.279-0.139,0.418-0.417,0.418S424.515,425.083,424.515,424.804z M424.515,426.198c0-0.278,0.14-0.418,0.418-0.418
			s0.417,0.14,0.417,0.418c0,0.277-0.139,0.417-0.417,0.417S424.515,426.475,424.515,426.198z M424.515,427.638
			c0-0.278,0.14-0.418,0.418-0.418s0.417,0.14,0.417,0.418s-0.139,0.418-0.417,0.418S424.515,427.916,424.515,427.638z
			 M424.515,429.264c0-0.278,0.14-0.418,0.418-0.418s0.417,0.14,0.417,0.418c0,0.277-0.139,0.417-0.417,0.417
			S424.515,429.541,424.515,429.264z M424.515,430.89c0-0.279,0.14-0.419,0.418-0.419s0.417,0.14,0.417,0.419
			c0,0.276-0.139,0.416-0.417,0.416C424.654,431.308,424.515,431.166,424.515,430.89z M424.515,432.514
			c0-0.277,0.14-0.416,0.418-0.416s0.417,0.139,0.417,0.416c0,0.279-0.139,0.419-0.417,0.419
			C424.654,432.934,424.515,432.794,424.515,432.514z M424.515,434.327c0-0.279,0.14-0.419,0.418-0.419s0.417,0.14,0.417,0.419
			c0,0.277-0.139,0.416-0.417,0.416C424.654,434.744,424.515,434.605,424.515,434.327z M424.515,435.814
			c0-0.278,0.14-0.418,0.418-0.418s0.417,0.14,0.417,0.418c0,0.277-0.139,0.416-0.417,0.416
			C424.654,436.232,424.515,436.091,424.515,435.814z M424.515,437.207c0-0.278,0.14-0.417,0.418-0.417s0.417,0.139,0.417,0.417
			s-0.139,0.417-0.417,0.417S424.515,437.486,424.515,437.207z M424.515,438.646c0-0.277,0.14-0.417,0.418-0.417
			s0.417,0.14,0.417,0.417c0,0.279-0.139,0.418-0.417,0.418C424.654,439.066,424.515,438.926,424.515,438.646z M425.165,423.829
			h3.576v0.557h-3.576V423.829z M429.717,423.829h3.577v0.557h-3.577V423.829z M432.505,412.774c0-0.279,0.14-0.419,0.418-0.419
			s0.418,0.14,0.418,0.419c0,0.276-0.125,0.416-0.372,0.416C432.659,413.19,432.505,413.05,432.505,412.774z M433.015,439.251
			c0.248,0,0.372,0.155,0.372,0.464c0.03,0.124,0,0.216-0.093,0.279c-0.093,0.063-0.202,0.092-0.325,0.092
			c-0.248,0-0.371-0.155-0.371-0.464C432.598,439.375,432.737,439.251,433.015,439.251z M433.898,413.145
			c0-0.278,0.139-0.419,0.418-0.419c0.277,0,0.417,0.141,0.417,0.419c0.062,0.276-0.063,0.417-0.372,0.417
			C434.114,413.562,433.96,413.421,433.898,413.145z M434.455,438.879c0.279,0,0.388,0.155,0.327,0.465
			c0.062,0.247-0.063,0.371-0.372,0.371c-0.31-0.062-0.465-0.216-0.465-0.464C434.007,438.942,434.177,438.817,434.455,438.879z
			 M434.409,423.829h3.576v0.557h-3.576V423.829z M435.245,413.888c0-0.279,0.14-0.419,0.418-0.419s0.417,0.124,0.417,0.372
			c0,0.311-0.139,0.466-0.417,0.466C435.385,414.305,435.245,414.165,435.245,413.888z M435.895,438.229
			c0.124-0.03,0.226,0,0.302,0.094c0.076,0.092,0.115,0.201,0.115,0.324c-0.03,0.218-0.201,0.357-0.51,0.419
			c-0.277-0.063-0.387-0.233-0.326-0.512C435.478,438.276,435.616,438.167,435.895,438.229z M436.221,414.771
			c0-0.279,0.14-0.418,0.418-0.418c0.277,0,0.417,0.139,0.417,0.418c0,0.277-0.124,0.417-0.372,0.417
			C436.375,415.189,436.221,415.048,436.221,414.771z M436.871,437.298c0.277,0.064,0.434,0.201,0.465,0.419
			c-0.063,0.278-0.233,0.418-0.512,0.418c-0.278-0.063-0.386-0.217-0.325-0.466C436.437,437.363,436.561,437.237,436.871,437.298z
			 M437.149,416.024c0-0.278,0.14-0.417,0.418-0.417c0.279,0,0.418,0.139,0.418,0.417s-0.139,0.418-0.418,0.418
			C437.289,416.444,437.149,416.304,437.149,416.024z M437.753,436.232c0.278,0,0.387,0.124,0.326,0.371
			c0,0.311-0.157,0.466-0.465,0.466c-0.248-0.063-0.372-0.233-0.372-0.511C437.305,436.278,437.476,436.17,437.753,436.232z
			 M438.125,417.418c-0.063-0.279,0.062-0.418,0.372-0.418c0.246-0.062,0.401,0.064,0.464,0.371c0,0.249-0.139,0.404-0.417,0.466
			C438.265,417.837,438.125,417.698,438.125,417.418z M438.683,434.931c0.31,0.063,0.434,0.216,0.372,0.465
			c0,0.31-0.14,0.434-0.418,0.371c-0.124,0.032-0.225,0-0.301-0.093c-0.078-0.095-0.116-0.201-0.116-0.326
			C438.248,435.133,438.404,434.993,438.683,434.931z M438.775,418.951c0-0.31,0.14-0.466,0.418-0.466
			c0.279,0,0.417,0.139,0.417,0.418c0,0.278-0.124,0.417-0.372,0.417C438.931,419.323,438.775,419.199,438.775,418.951z
			 M438.915,423.829h3.576v0.557h-1.531c0.123,0.125,0.186,0.233,0.186,0.326c0,0.278-0.14,0.417-0.417,0.417
			c-0.278,0-0.417-0.139-0.417-0.417c0-0.124,0.045-0.231,0.139-0.326h-1.533v-0.557H438.915z M439.425,433.584
			c0.249,0.063,0.373,0.215,0.373,0.464c0,0.31-0.156,0.434-0.465,0.372c-0.248,0-0.372-0.124-0.372-0.372
			C438.961,433.739,439.116,433.584,439.425,433.584z M440.169,420.159c0,0.276-0.14,0.416-0.418,0.416
			c-0.277,0-0.417-0.14-0.417-0.416c0-0.279,0.14-0.419,0.417-0.419C440.029,419.74,440.169,419.88,440.169,420.159z
			 M439.425,432.655c0-0.31,0.14-0.464,0.419-0.464c0.277,0,0.416,0.14,0.416,0.417c0,0.278-0.139,0.417-0.416,0.417
			C439.564,433.026,439.425,432.903,439.425,432.655z M440.541,421.599c0,0.278-0.14,0.418-0.418,0.418s-0.417-0.14-0.417-0.418
			s0.139-0.417,0.417-0.417C440.401,421.18,440.541,421.319,440.541,421.599z M440.633,431.122c0,0.276-0.139,0.417-0.416,0.417
			c-0.279,0-0.418-0.141-0.418-0.417c0-0.279,0.139-0.419,0.418-0.419C440.494,430.703,440.633,430.843,440.633,431.122z
			 M440.958,423.085c0,0.278-0.139,0.418-0.417,0.418s-0.417-0.14-0.417-0.418s0.139-0.418,0.417-0.418
			C440.819,422.666,440.958,422.807,440.958,423.085z M440.633,429.031c0.249,0,0.403,0.124,0.466,0.371
			c0,0.309-0.124,0.465-0.372,0.465c-0.247,0.063-0.403-0.062-0.465-0.371C440.199,429.248,440.323,429.094,440.633,429.031z
			 M441.237,427.916c0,0.278-0.139,0.417-0.417,0.417s-0.418-0.139-0.418-0.417s0.14-0.418,0.418-0.418
			S441.237,427.638,441.237,427.916z M440.447,426.242c0-0.276,0.14-0.417,0.417-0.417c0.279,0,0.418,0.141,0.418,0.417
			c0,0.279-0.125,0.419-0.371,0.419C440.603,426.662,440.447,426.524,440.447,426.242z M443.607,423.829h1.485v0.557h-1.485V423.829
			z"/>
		<path fill="#333333" d="M464.603,412.54c0-0.155,0.078-0.278,0.233-0.371h-16.352c0.156,0.093,0.232,0.216,0.232,0.371
			c0,0.277-0.138,0.417-0.417,0.417s-0.418-0.14-0.418-0.417c0-0.155,0.076-0.278,0.232-0.371h-3.53v-1.161h24.573v1.161h-3.948
			c0.155,0.093,0.232,0.216,0.232,0.371c0,0.277-0.139,0.417-0.418,0.417C464.742,412.957,464.603,412.818,464.603,412.54z
			 M444.583,440.132h3.25v-0.138c0-0.279,0.14-0.418,0.417-0.418c0.279,0,0.418,0.139,0.418,0.418c0,0.063-0.016,0.107-0.046,0.138
			h15.934v-0.138c0-0.279,0.141-0.418,0.417-0.418c0.279,0,0.419,0.139,0.419,0.418c0,0.063-0.017,0.107-0.048,0.138h3.81v1.161
			H444.58L444.583,440.132L444.583,440.132z M444.629,423.829h3.577v0.557h0.093c0.278,0,0.416,0.14,0.416,0.418
			c0,0.279-0.138,0.418-0.416,0.418c-0.279,0-0.418-0.139-0.418-0.418c0-0.216,0.107-0.355,0.326-0.418h-3.577L444.629,423.829
			L444.629,423.829z M447.881,414.028c0-0.279,0.139-0.419,0.418-0.419c0.278,0,0.416,0.14,0.416,0.419
			c0,0.277-0.138,0.416-0.416,0.416C448.02,414.446,447.881,414.305,447.881,414.028z M447.881,415.42
			c0-0.277,0.139-0.417,0.418-0.417c0.278,0,0.416,0.14,0.416,0.417c0,0.278-0.138,0.418-0.416,0.418
			C448.02,415.839,447.881,415.699,447.881,415.42z M447.881,416.861c0-0.278,0.139-0.417,0.418-0.417
			c0.278,0,0.416,0.139,0.416,0.417c0,0.277-0.138,0.417-0.416,0.417C448.02,417.279,447.881,417.138,447.881,416.861z
			 M447.881,418.486c0-0.278,0.139-0.417,0.418-0.417c0.278,0,0.416,0.139,0.416,0.417s-0.138,0.418-0.416,0.418
			C448.02,418.906,447.881,418.766,447.881,418.486z M447.881,420.204c0-0.278,0.139-0.417,0.418-0.417
			c0.278,0,0.416,0.139,0.416,0.417c0,0.277-0.138,0.417-0.416,0.417C448.02,420.623,447.881,420.484,447.881,420.204z
			 M447.881,421.831c0-0.278,0.139-0.417,0.418-0.417c0.278,0,0.416,0.139,0.416,0.417s-0.138,0.418-0.416,0.418
			C448.02,422.249,447.881,422.11,447.881,421.831z M447.881,423.318c0-0.278,0.139-0.416,0.418-0.416
			c0.278,0,0.416,0.138,0.416,0.416s-0.138,0.418-0.416,0.418C448.02,423.736,447.881,423.596,447.881,423.318z M447.881,426.198
			c0-0.278,0.139-0.418,0.418-0.418c0.278,0,0.416,0.14,0.416,0.418c0,0.277-0.138,0.417-0.416,0.417
			C448.02,426.615,447.881,426.475,447.881,426.198z M447.881,427.638c0-0.278,0.139-0.418,0.418-0.418
			c0.278,0,0.416,0.14,0.416,0.418s-0.138,0.418-0.416,0.418C448.02,428.056,447.881,427.916,447.881,427.638z M447.881,429.264
			c0-0.278,0.139-0.418,0.418-0.418c0.278,0,0.416,0.14,0.416,0.418c0,0.277-0.138,0.417-0.416,0.417
			C448.02,429.681,447.881,429.541,447.881,429.264z M447.881,430.89c0-0.279,0.139-0.419,0.418-0.419
			c0.278,0,0.416,0.14,0.416,0.419c0,0.276-0.138,0.416-0.416,0.416C448.02,431.308,447.881,431.166,447.881,430.89z
			 M447.881,432.514c0-0.277,0.139-0.416,0.418-0.416c0.278,0,0.416,0.139,0.416,0.416c0,0.279-0.138,0.419-0.416,0.419
			C448.02,432.934,447.881,432.794,447.881,432.514z M447.881,434.327c0-0.279,0.139-0.419,0.418-0.419
			c0.278,0,0.416,0.14,0.416,0.419c0,0.277-0.138,0.416-0.416,0.416C448.02,434.744,447.881,434.605,447.881,434.327z
			 M447.881,435.814c0-0.278,0.139-0.418,0.418-0.418c0.278,0,0.416,0.14,0.416,0.418c0,0.277-0.138,0.416-0.416,0.416
			C448.02,436.232,447.881,436.091,447.881,435.814z M447.881,437.207c0-0.278,0.139-0.417,0.418-0.417
			c0.278,0,0.416,0.139,0.416,0.417s-0.138,0.417-0.416,0.417C448.02,437.624,447.881,437.486,447.881,437.207z M447.881,438.646
			c0-0.277,0.139-0.417,0.418-0.417c0.278,0,0.416,0.14,0.416,0.417c0,0.279-0.138,0.418-0.416,0.418
			C448.02,439.066,447.881,438.926,447.881,438.646z M448.995,413.748c-0.124-0.247-0.063-0.448,0.187-0.604
			c0.062-0.062,0.154-0.077,0.277-0.046c0.125,0.03,0.216,0.108,0.278,0.231c0.062,0.095,0.077,0.194,0.047,0.302
			c-0.031,0.109-0.093,0.194-0.187,0.256c-0.124,0.063-0.24,0.085-0.348,0.069C449.142,413.943,449.057,413.872,448.995,413.748z
			 M449.32,423.829h3.576v0.557h-3.576V423.829z M449.738,415.002c-0.186-0.247-0.139-0.434,0.14-0.559
			c0.247-0.123,0.448-0.062,0.604,0.187c0.123,0.247,0.062,0.448-0.187,0.604C450.047,415.36,449.861,415.28,449.738,415.002z
			 M450.389,416.256c-0.063-0.093-0.063-0.192,0-0.302c0.062-0.107,0.124-0.192,0.187-0.255c0.216-0.093,0.418-0.047,0.603,0.14
			c0.063,0.248-0.014,0.449-0.231,0.604C450.698,416.566,450.513,416.506,450.389,416.256z M451.086,417.558
			c-0.093-0.279-0.032-0.48,0.187-0.604c0.092-0.062,0.192-0.076,0.301-0.046c0.107,0.031,0.193,0.108,0.256,0.231
			c0.187,0.187,0.139,0.358-0.14,0.512c-0.094,0.063-0.202,0.077-0.325,0.047C451.239,417.666,451.147,417.62,451.086,417.558z
			 M451.922,418.906c-0.124-0.218-0.063-0.402,0.187-0.56c0.093-0.063,0.193-0.069,0.3-0.022c0.108,0.046,0.18,0.117,0.211,0.209
			c0.123,0.187,0.093,0.373-0.094,0.56C452.309,419.215,452.107,419.154,451.922,418.906z M452.805,420.436
			c-0.125-0.246-0.076-0.433,0.14-0.558c0.247-0.153,0.433-0.122,0.559,0.094c0.123,0.217,0.093,0.418-0.095,0.604
			C453.13,420.669,452.928,420.623,452.805,420.436z M453.548,421.785c-0.063-0.063-0.076-0.148-0.045-0.256
			c0.03-0.108,0.106-0.193,0.232-0.256c0.062-0.062,0.153-0.077,0.276-0.046c0.125,0.03,0.217,0.078,0.279,0.14
			c0.123,0.248,0.077,0.448-0.139,0.604C453.903,422.094,453.702,422.033,453.548,421.785z M453.872,423.829h3.576v0.557h-1.672
			c-0.032,0.063-0.078,0.125-0.14,0.187c-0.186,0.124-0.372,0.093-0.558-0.093c-0.03,0-0.046-0.031-0.046-0.095h-1.161V423.829z
			 M454.291,423.131c-0.155-0.247-0.093-0.435,0.188-0.558c0.245-0.123,0.446-0.077,0.604,0.139
			c0.062,0.279-0.016,0.465-0.232,0.559C454.6,423.395,454.414,423.349,454.291,423.131z M455.685,425.64
			c-0.124-0.246-0.047-0.447,0.231-0.604c0.279-0.123,0.449-0.062,0.512,0.187c0.093,0.277,0.045,0.465-0.14,0.558
			C456.04,425.934,455.839,425.888,455.685,425.64z M456.475,426.847c-0.094-0.093-0.125-0.186-0.094-0.277
			c0.031-0.095,0.094-0.156,0.187-0.187c0.246-0.154,0.447-0.123,0.604,0.093c0.094,0.278,0.031,0.479-0.187,0.604
			c-0.063,0.063-0.147,0.078-0.255,0.048C456.621,427.096,456.536,427.003,456.475,426.847z M457.264,428.288
			c-0.124-0.187-0.093-0.372,0.093-0.56c0.248-0.154,0.449-0.108,0.604,0.141c0.094,0.248,0.046,0.449-0.139,0.604
			C457.542,428.597,457.356,428.535,457.264,428.288z M458.054,429.681c-0.063-0.094-0.078-0.192-0.047-0.302
			c0.031-0.107,0.108-0.192,0.232-0.255c0.247-0.187,0.448-0.124,0.604,0.186c0.063,0.095,0.071,0.193,0.024,0.303
			c-0.048,0.108-0.148,0.193-0.303,0.255c-0.093,0.063-0.192,0.078-0.301,0.045C458.153,429.882,458.084,429.806,458.054,429.681z
			 M458.564,423.829h3.576v0.557h-3.576V423.829z M458.843,431.122c-0.124-0.248-0.077-0.435,0.14-0.56
			c0.248-0.154,0.434-0.092,0.56,0.187c0.186,0.247,0.153,0.435-0.096,0.558C459.168,431.399,458.967,431.338,458.843,431.122z
			 M459.772,432.746c-0.156-0.246-0.125-0.447,0.092-0.604c0.247-0.094,0.449-0.045,0.604,0.139
			c0.123,0.248,0.077,0.434-0.139,0.559C460.082,432.996,459.896,432.964,459.772,432.746z M460.516,434.001
			c-0.095-0.246-0.047-0.447,0.138-0.604c0.248-0.124,0.435-0.046,0.559,0.231c0.155,0.217,0.108,0.388-0.14,0.512
			C460.794,434.296,460.608,434.25,460.516,434.001z M461.119,435.209c-0.063-0.094-0.077-0.192-0.047-0.302
			c0.031-0.108,0.108-0.192,0.232-0.255c0.217-0.124,0.388-0.077,0.512,0.14c0.216,0.215,0.187,0.417-0.094,0.604
			C461.444,435.488,461.243,435.426,461.119,435.209z M461.862,436.464c-0.063-0.094-0.071-0.191-0.022-0.301
			c0.045-0.108,0.1-0.193,0.162-0.255c0.215-0.125,0.417-0.094,0.604,0.092c0.093,0.249,0.03,0.45-0.187,0.604
			C462.172,436.726,461.985,436.68,461.862,436.464z M462.792,437.858c-0.124-0.217-0.078-0.402,0.139-0.56
			c0.094-0.062,0.193-0.069,0.301-0.021c0.108,0.045,0.193,0.116,0.256,0.209c0.155,0.248,0.125,0.434-0.093,0.558
			C463.146,438.137,462.947,438.073,462.792,437.858z M463.07,423.829h3.576v0.557h-1.532c0.216,0.063,0.326,0.202,0.326,0.418
			c0,0.279-0.139,0.418-0.418,0.418c-0.278,0-0.418-0.139-0.418-0.418c0-0.216,0.108-0.355,0.327-0.418h-1.858v-0.557H463.07z
			 M463.581,438.832c0-0.278,0.139-0.418,0.417-0.418s0.418,0.14,0.418,0.418c0,0.279-0.14,0.419-0.418,0.419
			S463.581,439.112,463.581,438.832z M464.603,414.028c0-0.279,0.14-0.419,0.419-0.419s0.418,0.14,0.418,0.419
			c0,0.277-0.139,0.416-0.418,0.416C464.742,414.446,464.603,414.305,464.603,414.028z M464.603,415.42
			c0-0.277,0.14-0.417,0.419-0.417s0.418,0.14,0.418,0.417c0,0.278-0.139,0.418-0.418,0.418
			C464.742,415.839,464.603,415.699,464.603,415.42z M464.603,416.861c0-0.278,0.14-0.417,0.419-0.417s0.418,0.139,0.418,0.417
			c0,0.277-0.139,0.417-0.418,0.417C464.742,417.279,464.603,417.138,464.603,416.861z M464.603,418.486
			c0-0.278,0.14-0.417,0.419-0.417s0.418,0.139,0.418,0.417s-0.139,0.418-0.418,0.418
			C464.742,418.906,464.603,418.766,464.603,418.486z M464.603,420.204c0-0.278,0.14-0.417,0.419-0.417s0.418,0.139,0.418,0.417
			c0,0.277-0.139,0.417-0.418,0.417C464.742,420.623,464.603,420.484,464.603,420.204z M464.603,421.831
			c0-0.278,0.14-0.417,0.419-0.417s0.418,0.139,0.418,0.417s-0.139,0.418-0.418,0.418S464.603,422.11,464.603,421.831z
			 M464.603,423.318c0-0.278,0.14-0.416,0.419-0.416s0.418,0.138,0.418,0.416s-0.139,0.418-0.418,0.418
			S464.603,423.596,464.603,423.318z M464.603,426.198c0-0.278,0.14-0.418,0.419-0.418s0.418,0.14,0.418,0.418
			c0,0.277-0.139,0.417-0.418,0.417S464.603,426.475,464.603,426.198z M464.603,427.638c0-0.278,0.14-0.418,0.419-0.418
			s0.418,0.14,0.418,0.418s-0.139,0.418-0.418,0.418S464.603,427.916,464.603,427.638z M464.603,429.264
			c0-0.278,0.14-0.418,0.419-0.418s0.418,0.14,0.418,0.418c0,0.277-0.139,0.417-0.418,0.417S464.603,429.541,464.603,429.264z
			 M464.603,430.89c0-0.279,0.14-0.419,0.419-0.419s0.418,0.14,0.418,0.419c0,0.276-0.139,0.416-0.418,0.416
			C464.742,431.308,464.603,431.166,464.603,430.89z M464.603,432.514c0-0.277,0.14-0.416,0.419-0.416s0.418,0.139,0.418,0.416
			c0,0.279-0.139,0.419-0.418,0.419C464.742,432.934,464.603,432.794,464.603,432.514z M464.603,434.327
			c0-0.279,0.14-0.419,0.419-0.419s0.418,0.14,0.418,0.419c0,0.277-0.139,0.416-0.418,0.416
			C464.742,434.744,464.603,434.605,464.603,434.327z M464.603,435.814c0-0.278,0.14-0.418,0.419-0.418s0.418,0.14,0.418,0.418
			c0,0.277-0.139,0.416-0.418,0.416C464.742,436.232,464.603,436.091,464.603,435.814z M464.603,437.207
			c0-0.278,0.14-0.417,0.419-0.417s0.418,0.139,0.418,0.417s-0.139,0.417-0.418,0.417S464.603,437.486,464.603,437.207z
			 M464.603,438.646c0-0.277,0.14-0.417,0.419-0.417s0.418,0.14,0.418,0.417c0,0.279-0.139,0.418-0.418,0.418
			C464.742,439.066,464.603,438.926,464.603,438.646z M467.763,423.829h1.391v0.557h-1.391V423.829z"/>
		<path fill="#333333" d="M468.459,411.008h22.669v1.161h-18.396c0.156,0.093,0.232,0.216,0.232,0.371
			c0,0.277-0.138,0.417-0.417,0.417c-0.278,0-0.418-0.14-0.418-0.417c0-0.155,0.077-0.278,0.232-0.371h-3.902V411.008
			L468.459,411.008z M468.459,440.132h3.623v-0.138c0-0.279,0.138-0.418,0.416-0.418c0.279,0,0.419,0.139,0.419,0.418
			c0,0.063-0.017,0.107-0.047,0.138h0.604c-0.032-0.03-0.045-0.107-0.045-0.232c0-0.277,0.138-0.417,0.416-0.417
			c0.279,0,0.419,0.14,0.419,0.417c0,0.095-0.032,0.171-0.094,0.232h0.788c-0.031-0.03-0.045-0.107-0.045-0.232
			c0-0.277,0.138-0.417,0.417-0.417c0.278,0,0.418,0.14,0.418,0.417c0,0.095-0.032,0.171-0.095,0.232h0.699
			c-0.032-0.03-0.047-0.107-0.047-0.232c0-0.277,0.139-0.417,0.418-0.417c0.278,0,0.417,0.14,0.417,0.417
			c0,0.095-0.031,0.171-0.094,0.232h0.743c-0.03-0.03-0.046-0.107-0.046-0.232c0-0.277,0.14-0.417,0.419-0.417
			c0.278,0,0.417,0.14,0.417,0.417c0,0.095-0.031,0.171-0.094,0.232h0.931c-0.032-0.03-0.047-0.107-0.047-0.232
			c0-0.277,0.14-0.417,0.418-0.417s0.417,0.14,0.417,0.417c0,0.095-0.031,0.171-0.093,0.232h1.021
			c-0.031-0.03-0.047-0.107-0.047-0.232c0-0.277,0.14-0.417,0.419-0.417c0.278,0,0.417,0.14,0.417,0.417
			c0,0.095-0.032,0.171-0.094,0.232h0.931c-0.031-0.03-0.046-0.107-0.046-0.232c0-0.277,0.139-0.417,0.418-0.417
			c0.277,0,0.416,0.14,0.416,0.417c0,0.095-0.031,0.171-0.093,0.232h0.789c-0.031-0.03-0.046-0.107-0.046-0.232
			c0-0.277,0.14-0.417,0.418-0.417c0.277,0,0.417,0.14,0.417,0.417c0,0.095-0.031,0.171-0.094,0.232h0.789
			c-0.03-0.03-0.045-0.107-0.045-0.232c0-0.277,0.14-0.417,0.418-0.417c0.277,0,0.417,0.14,0.417,0.417
			c0,0.095-0.032,0.171-0.094,0.232h0.697c-0.031-0.03-0.046-0.107-0.046-0.232c0-0.277,0.14-0.417,0.418-0.417
			s0.418,0.14,0.418,0.417c0,0.095-0.032,0.171-0.095,0.232h3.3v1.161h-22.669v-1.161H468.459z M468.506,423.829h3.576v0.557h-3.576
			V423.829z M472.128,414.028c0-0.279,0.14-0.419,0.418-0.419c0.279,0,0.417,0.14,0.417,0.419c0,0.277-0.138,0.416-0.417,0.416
			C472.268,414.446,472.128,414.305,472.128,414.028z M472.128,415.42c0-0.277,0.14-0.417,0.418-0.417
			c0.279,0,0.417,0.14,0.417,0.417c0,0.278-0.138,0.418-0.417,0.418C472.268,415.839,472.128,415.699,472.128,415.42z
			 M472.128,416.861c0-0.278,0.14-0.417,0.418-0.417c0.279,0,0.417,0.139,0.417,0.417c0,0.277-0.138,0.417-0.417,0.417
			C472.268,417.279,472.128,417.138,472.128,416.861z M472.128,418.486c0-0.278,0.14-0.417,0.418-0.417
			c0.279,0,0.417,0.139,0.417,0.417s-0.138,0.418-0.417,0.418C472.268,418.906,472.128,418.766,472.128,418.486z M472.128,420.204
			c0-0.278,0.14-0.417,0.418-0.417c0.279,0,0.417,0.139,0.417,0.417c0,0.277-0.138,0.417-0.417,0.417
			C472.268,420.623,472.128,420.484,472.128,420.204z M472.128,421.831c0-0.278,0.14-0.417,0.418-0.417
			c0.279,0,0.417,0.139,0.417,0.417s-0.138,0.418-0.417,0.418C472.268,422.249,472.128,422.11,472.128,421.831z M472.128,423.318
			c0-0.278,0.14-0.416,0.418-0.416c0.279,0,0.417,0.138,0.417,0.416s-0.138,0.418-0.417,0.418
			C472.268,423.736,472.128,423.596,472.128,423.318z M472.128,424.804c0-0.278,0.14-0.418,0.418-0.418
			c0.279,0,0.417,0.14,0.417,0.418c0,0.279-0.138,0.418-0.417,0.418C472.268,425.222,472.128,425.083,472.128,424.804z
			 M472.128,426.198c0-0.278,0.14-0.418,0.418-0.418c0.279,0,0.417,0.14,0.417,0.418c0,0.277-0.138,0.417-0.417,0.417
			C472.268,426.615,472.128,426.475,472.128,426.198z M472.128,427.638c0-0.278,0.14-0.418,0.418-0.418
			c0.279,0,0.417,0.14,0.417,0.418s-0.138,0.418-0.417,0.418C472.268,428.056,472.128,427.916,472.128,427.638z M472.128,429.264
			c0-0.278,0.14-0.418,0.418-0.418c0.279,0,0.417,0.14,0.417,0.418c0,0.277-0.138,0.417-0.417,0.417
			C472.268,429.681,472.128,429.541,472.128,429.264z M472.128,430.89c0-0.279,0.14-0.419,0.418-0.419
			c0.279,0,0.417,0.14,0.417,0.419c0,0.276-0.138,0.416-0.417,0.416C472.268,431.308,472.128,431.166,472.128,430.89z
			 M472.128,432.514c0-0.277,0.14-0.416,0.418-0.416c0.279,0,0.417,0.139,0.417,0.416c0,0.279-0.138,0.419-0.417,0.419
			C472.268,432.934,472.128,432.794,472.128,432.514z M472.128,434.327c0-0.279,0.14-0.419,0.418-0.419
			c0.279,0,0.417,0.14,0.417,0.419c0,0.277-0.138,0.416-0.417,0.416C472.268,434.744,472.128,434.605,472.128,434.327z
			 M472.128,435.814c0-0.278,0.14-0.418,0.418-0.418c0.279,0,0.417,0.14,0.417,0.418c0,0.277-0.138,0.416-0.417,0.416
			C472.268,436.232,472.128,436.091,472.128,435.814z M472.128,437.207c0-0.278,0.14-0.417,0.418-0.417
			c0.279,0,0.417,0.139,0.417,0.417s-0.138,0.417-0.417,0.417C472.268,437.624,472.128,437.486,472.128,437.207z M472.128,438.646
			c0-0.277,0.14-0.417,0.418-0.417c0.279,0,0.417,0.14,0.417,0.417c0,0.279-0.138,0.418-0.417,0.418
			C472.268,439.066,472.128,438.926,472.128,438.646z M473.196,423.829h3.578v0.557h-3.578V423.829z M477.748,423.829h3.578v0.557
			h-3.578V423.829z M482.44,423.829h3.576v0.557h-3.576V423.829z M486.946,423.829h3.577v0.557h-3.577V423.829z"/>
	</g>
	<g>
		<g enable-background="new    ">
			<path fill="#475656" d="M606.47,33.65c-0.314,0.148-0.945,0.296-1.754,0.296c-1.873,0-3.283-1.111-3.283-3.158
				c0-1.954,1.41-3.279,3.471-3.279c0.827,0,1.351,0.167,1.576,0.278l-0.206,0.657c-0.325-0.147-0.788-0.259-1.341-0.259
				c-1.558,0-2.593,0.937-2.593,2.575c0,1.528,0.938,2.51,2.553,2.51c0.522,0,1.056-0.102,1.4-0.259L606.47,33.65z"/>
			<path fill="#475656" d="M613.013,30.668c0,2.148-1.39,3.288-3.085,3.288c-1.755,0-2.986-1.278-2.986-3.168
				c0-1.982,1.312-3.279,3.086-3.279C611.84,27.509,613.013,28.815,613.013,30.668z M607.857,30.769
				c0,1.334,0.769,2.529,2.118,2.529c1.36,0,2.13-1.176,2.13-2.593c0-1.241-0.689-2.538-2.119-2.538
				C608.567,28.167,607.857,29.399,607.857,30.769z"/>
			<path fill="#475656" d="M614.123,27.695c0.521-0.073,1.144-0.13,1.823-0.13c1.231,0,2.109,0.27,2.69,0.778
				c0.592,0.509,0.938,1.23,0.938,2.241c0,1.019-0.335,1.853-0.956,2.427c-0.621,0.583-1.646,0.898-2.938,0.898
				c-0.61,0-1.124-0.028-1.558-0.074L614.123,27.695L614.123,27.695z M614.98,33.215c0.217,0.037,0.531,0.046,0.867,0.046
				c1.833,0,2.828-0.963,2.828-2.649c0.011-1.473-0.877-2.407-2.689-2.407c-0.443,0-0.779,0.037-1.006,0.083V33.215z"/>
			<path fill="#475656" d="M624.125,30.927h-2.583v2.25h2.879v0.676h-3.736V27.61h3.589v0.677h-2.73v1.973h2.583L624.125,30.927
				L624.125,30.927z"/>
		</g>
	</g>
	<g>
		<g enable-background="new    ">
			<path fill="#475656" d="M602.685,63.674v2.612h3.215v-2.612h0.866v6.243h-0.866V66.99h-3.215v2.928h-0.856v-6.243H602.685z"/>
			<path fill="#475656" d="M609.513,64.359h-2.021v-0.686h4.919v0.686h-2.031v5.558h-0.867V64.359z"/>
			<path fill="#475656" d="M618.746,67.175c-0.049-0.871-0.108-1.917-0.1-2.695h-0.028c-0.228,0.732-0.503,1.51-0.838,2.371
				l-1.173,3.029h-0.65l-1.074-2.974c-0.314-0.88-0.582-1.686-0.77-2.427h-0.021c-0.02,0.778-0.068,1.825-0.128,2.76l-0.178,2.678
				h-0.818l0.464-6.243h1.095l1.134,3.02c0.275,0.77,0.503,1.454,0.67,2.104h0.03c0.167-0.63,0.403-1.315,0.698-2.104l1.185-3.02
				h1.094l0.414,6.243h-0.838L618.746,67.175z"/>
			<path fill="#475656" d="M621.069,63.674h0.856v5.565h2.839v0.677h-3.695V63.674z"/>
		</g>
	</g>
	<g>
		<g enable-background="new    ">
			<path fill="#475656" d="M606.47,105.775c-0.314,0.148-0.945,0.296-1.754,0.296c-1.873,0-3.283-1.111-3.283-3.158
				c0-1.954,1.41-3.279,3.471-3.279c0.827,0,1.351,0.167,1.576,0.278l-0.206,0.657c-0.325-0.147-0.788-0.259-1.341-0.259
				c-1.558,0-2.593,0.937-2.593,2.575c0,1.528,0.938,2.51,2.553,2.51c0.522,0,1.056-0.102,1.4-0.259L606.47,105.775z"/>
			<path fill="#475656" d="M607.424,104.997c0.385,0.223,0.946,0.407,1.538,0.407c0.877,0,1.39-0.436,1.39-1.064
				c0-0.583-0.354-0.917-1.252-1.241c-1.084-0.361-1.755-0.889-1.755-1.769c0-0.974,0.857-1.695,2.149-1.695
				c0.68,0,1.173,0.148,1.469,0.306l-0.237,0.658c-0.217-0.111-0.659-0.296-1.262-0.296c-0.906,0-1.251,0.509-1.251,0.936
				c0,0.583,0.403,0.871,1.32,1.204c1.124,0.408,1.695,0.917,1.695,1.834c0,0.963-0.76,1.798-2.326,1.798
				c-0.642,0-1.342-0.177-1.695-0.398L607.424,104.997z"/>
			<path fill="#475656" d="M612.28,104.997c0.385,0.223,0.945,0.407,1.538,0.407c0.877,0,1.39-0.436,1.39-1.064
				c0-0.583-0.354-0.917-1.252-1.241c-1.084-0.361-1.755-0.889-1.755-1.769c0-0.974,0.856-1.695,2.148-1.695
				c0.681,0,1.174,0.148,1.47,0.306l-0.237,0.658c-0.217-0.111-0.66-0.296-1.262-0.296c-0.906,0-1.252,0.509-1.252,0.936
				c0,0.583,0.403,0.871,1.32,1.204c1.124,0.408,1.695,0.917,1.695,1.834c0,0.963-0.759,1.798-2.326,1.798
				c-0.641,0-1.341-0.177-1.695-0.398L612.28,104.997z"/>
		</g>
	</g>
	<g>
		<g enable-background="new    ">
			<path fill="#475656" d="M601.827,135.875c0.414-0.065,0.956-0.121,1.646-0.121c0.849,0,1.47,0.186,1.862,0.519
				c0.365,0.296,0.582,0.75,0.582,1.307c0,0.564-0.178,1.01-0.513,1.334c-0.453,0.454-1.192,0.685-2.03,0.685
				c-0.257,0-0.493-0.009-0.69-0.056v2.501h-0.856V135.875L601.827,135.875z M602.685,138.885c0.188,0.046,0.425,0.063,0.71,0.063
				c1.035,0,1.666-0.472,1.666-1.332c0-0.824-0.62-1.224-1.566-1.224c-0.375,0-0.66,0.028-0.81,0.065V138.885z"/>
			<path fill="#475656" d="M607.926,135.801v2.612h3.214v-2.612h0.867v6.243h-0.867v-2.927h-3.214v2.927h-0.856v-6.243H607.926z"/>
			<path fill="#475656" d="M613.492,135.875c0.414-0.065,0.956-0.121,1.646-0.121c0.849,0,1.47,0.186,1.863,0.519
				c0.364,0.296,0.581,0.75,0.581,1.307c0,0.564-0.178,1.01-0.513,1.334c-0.453,0.454-1.192,0.685-2.03,0.685
				c-0.257,0-0.493-0.009-0.69-0.056v2.501h-0.856V135.875L613.492,135.875z M614.35,138.885c0.188,0.046,0.425,0.063,0.71,0.063
				c1.035,0,1.666-0.472,1.666-1.332c0-0.824-0.62-1.224-1.566-1.224c-0.375,0-0.66,0.028-0.81,0.065V138.885z"/>
		</g>
	</g>
	<g>
		<g enable-background="new    ">
			<path fill="#475656" d="M603.188,171.86h0.857v4.178c0,1.657-0.867,2.167-2.011,2.167c-0.315,0-0.7-0.065-0.917-0.148
				l0.129-0.658c0.177,0.065,0.434,0.121,0.719,0.121c0.771,0,1.224-0.324,1.224-1.547L603.188,171.86L603.188,171.86z"/>
			<path fill="#475656" d="M606.547,176.139l-0.688,1.963h-0.889l2.258-6.243h1.035l2.268,6.243h-0.916l-0.71-1.963H606.547z
				 M608.726,175.51l-0.649-1.797c-0.148-0.408-0.246-0.778-0.345-1.14h-0.021c-0.099,0.37-0.207,0.75-0.335,1.131l-0.65,1.806
				H608.726z"/>
			<path fill="#475656" d="M612.439,178.103l-2.17-6.243h0.928l1.035,3.075c0.285,0.843,0.531,1.603,0.71,2.334h0.02
				c0.188-0.723,0.463-1.51,0.759-2.325l1.124-3.084h0.917l-2.376,6.243H612.439z"/>
			<path fill="#475656" d="M616.991,176.139l-0.689,1.963h-0.888l2.258-6.243h1.035l2.267,6.243h-0.917l-0.709-1.963H616.991z
				 M619.17,175.51l-0.65-1.797c-0.147-0.408-0.245-0.778-0.345-1.14h-0.021c-0.1,0.37-0.207,0.75-0.335,1.131l-0.65,1.806H619.17z"
				/>
		</g>
	</g>
	<g>
		<g enable-background="new    ">
			<path fill="#475656" d="M603.188,207.926h0.857v4.177c0,1.658-0.867,2.167-2.011,2.167c-0.315,0-0.7-0.064-0.917-0.147
				l0.129-0.658c0.177,0.064,0.434,0.121,0.719,0.121c0.771,0,1.224-0.324,1.224-1.547L603.188,207.926L603.188,207.926z"/>
			<path fill="#475656" d="M606.547,212.205l-0.688,1.963h-0.889l2.258-6.243h1.035l2.268,6.243h-0.916l-0.71-1.963H606.547z
				 M608.726,211.575l-0.649-1.798c-0.148-0.407-0.246-0.777-0.345-1.139h-0.021c-0.099,0.37-0.207,0.75-0.335,1.13l-0.65,1.807
				H608.726z"/>
			<path fill="#475656" d="M612.439,214.168l-2.17-6.243h0.928l1.035,3.075c0.285,0.843,0.531,1.602,0.71,2.334h0.02
				c0.188-0.724,0.463-1.51,0.759-2.325l1.124-3.084h0.917l-2.376,6.243H612.439z"/>
			<path fill="#475656" d="M616.991,212.205l-0.689,1.963h-0.888l2.258-6.243h1.035l2.267,6.243h-0.917l-0.709-1.963H616.991z
				 M619.17,211.575l-0.65-1.798c-0.147-0.407-0.245-0.777-0.345-1.139h-0.021c-0.1,0.37-0.207,0.75-0.335,1.13l-0.65,1.807H619.17z
				"/>
			<path fill="#475656" d="M621.828,213.186c0.385,0.224,0.946,0.408,1.538,0.408c0.877,0,1.39-0.436,1.39-1.065
				c0-0.583-0.354-0.917-1.252-1.24c-1.084-0.361-1.755-0.89-1.755-1.77c0-0.973,0.857-1.694,2.149-1.694
				c0.68,0,1.173,0.147,1.469,0.306l-0.237,0.658c-0.217-0.111-0.66-0.296-1.262-0.296c-0.906,0-1.251,0.509-1.251,0.936
				c0,0.583,0.402,0.871,1.32,1.204c1.123,0.408,1.694,0.917,1.694,1.834c0,0.963-0.759,1.797-2.326,1.797
				c-0.641,0-1.341-0.176-1.694-0.398L621.828,213.186z"/>
			<path fill="#475656" d="M631.446,213.965c-0.315,0.147-0.946,0.296-1.754,0.296c-1.873,0-3.283-1.112-3.283-3.159
				c0-1.954,1.41-3.279,3.47-3.279c0.828,0,1.351,0.167,1.577,0.278l-0.207,0.658c-0.325-0.148-0.788-0.259-1.34-0.259
				c-1.559,0-2.593,0.936-2.593,2.575c0,1.527,0.937,2.51,2.553,2.51c0.521,0,1.055-0.103,1.399-0.259L631.446,213.965z"/>
			<path fill="#475656" d="M632.519,208.009c0.435-0.083,1.056-0.13,1.646-0.13c0.917,0,1.508,0.158,1.922,0.51
				c0.335,0.278,0.522,0.704,0.522,1.187c0,0.823-0.553,1.37-1.252,1.593v0.027c0.513,0.167,0.817,0.611,0.976,1.261
				c0.217,0.871,0.375,1.473,0.513,1.713h-0.887c-0.108-0.176-0.257-0.713-0.443-1.491c-0.196-0.861-0.553-1.186-1.331-1.213h-0.809
				v2.705h-0.857V208.009L632.519,208.009z M633.376,210.852h0.878c0.916,0,1.498-0.472,1.498-1.186
				c0-0.807-0.621-1.158-1.528-1.167c-0.414,0-0.709,0.037-0.848,0.073V210.852L633.376,210.852z"/>
			<path fill="#475656" d="M638.677,207.926v6.243h-0.856v-6.243H638.677z"/>
			<path fill="#475656" d="M640.174,208c0.414-0.065,0.956-0.121,1.646-0.121c0.848,0,1.469,0.186,1.862,0.519
				c0.364,0.296,0.581,0.75,0.581,1.307c0,0.564-0.178,1.01-0.513,1.334c-0.453,0.454-1.192,0.685-2.03,0.685
				c-0.257,0-0.493-0.009-0.689-0.056v2.501h-0.857V208L640.174,208z M641.031,211.01c0.188,0.046,0.424,0.063,0.71,0.063
				c1.035,0,1.666-0.472,1.666-1.332c0-0.824-0.621-1.224-1.567-1.224c-0.375,0-0.66,0.028-0.809,0.065V211.01z"/>
			<path fill="#475656" d="M646.677,208.611h-2.021v-0.686h4.919v0.686h-2.031v5.558h-0.867V208.611z"/>
		</g>
	</g>
	<g>
		<g enable-background="new    ">
			<path fill="#475656" d="M607.426,244.489c-0.049-0.87-0.107-1.917-0.099-2.694h-0.029c-0.227,0.731-0.503,1.51-0.838,2.371
				l-1.173,3.028h-0.65l-1.073-2.973c-0.315-0.88-0.582-1.686-0.771-2.427h-0.02c-0.021,0.777-0.069,1.825-0.129,2.76l-0.178,2.677
				h-0.817l0.464-6.243h1.094l1.134,3.021c0.276,0.769,0.503,1.454,0.67,2.103h0.03c0.167-0.63,0.404-1.314,0.699-2.103l1.184-3.021
				h1.094l0.414,6.243h-0.838L607.426,244.489z"/>
			<path fill="#475656" d="M611.229,247.231v-2.648l-2.101-3.595h0.977l0.937,1.724c0.257,0.473,0.454,0.852,0.661,1.288h0.02
				c0.188-0.408,0.414-0.815,0.671-1.288l0.955-1.724h0.978l-2.229,3.584v2.658L611.229,247.231L611.229,247.231z"/>
			<path fill="#475656" d="M614.833,246.249c0.385,0.223,0.946,0.407,1.538,0.407c0.877,0,1.39-0.436,1.39-1.064
				c0-0.583-0.354-0.917-1.252-1.241c-1.084-0.361-1.755-0.889-1.755-1.769c0-0.974,0.857-1.695,2.149-1.695
				c0.68,0,1.173,0.148,1.469,0.306l-0.237,0.658c-0.217-0.111-0.66-0.296-1.262-0.296c-0.906,0-1.252,0.509-1.252,0.937
				c0,0.582,0.404,0.87,1.321,1.203c1.124,0.408,1.694,0.917,1.694,1.834c0,0.964-0.759,1.798-2.326,1.798
				c-0.641,0-1.341-0.177-1.694-0.398L614.833,246.249z"/>
			<path fill="#475656" d="M625.289,248.148c-0.896-0.222-1.774-0.473-2.543-0.723c-0.138-0.046-0.276-0.092-0.404-0.092
				c-1.577-0.057-2.928-1.148-2.928-3.159c0-2,1.302-3.288,3.096-3.288c1.805,0,2.978,1.315,2.978,3.159
				c0,1.602-0.788,2.63-1.894,2.992v0.037c0.66,0.156,1.38,0.306,1.942,0.397L625.289,248.148z M624.58,244.082
				c0-1.25-0.69-2.538-2.1-2.538c-1.449,0-2.159,1.26-2.149,2.611c-0.01,1.325,0.769,2.521,2.109,2.521
				C623.811,246.675,624.58,245.508,624.58,244.082z"/>
			<path fill="#475656" d="M626.597,240.988h0.857v5.566h2.839v0.676h-3.696V240.988z"/>
		</g>
	</g>
	<g>
		<g enable-background="new    ">
			<path fill="#475656" d="M606.822,286.576c-0.384,0.129-1.145,0.343-2.04,0.343c-1.006,0-1.834-0.241-2.484-0.824
				c-0.571-0.519-0.927-1.353-0.927-2.325c0.01-1.86,1.37-3.223,3.599-3.223c0.77,0,1.37,0.158,1.655,0.287l-0.207,0.657
				c-0.354-0.147-0.798-0.269-1.469-0.269c-1.616,0-2.671,0.945-2.671,2.51c0,1.583,1.016,2.52,2.563,2.52
				c0.563,0,0.946-0.074,1.145-0.167v-1.862h-1.352v-0.648h2.188V286.576z"/>
			<path fill="#475656" d="M608.131,280.695c0.435-0.083,1.055-0.13,1.646-0.13c0.916,0,1.508,0.158,1.922,0.511
				c0.335,0.277,0.521,0.703,0.521,1.186c0,0.824-0.552,1.371-1.252,1.593v0.028c0.514,0.167,0.818,0.611,0.977,1.26
				c0.217,0.871,0.375,1.474,0.513,1.713h-0.887c-0.108-0.176-0.258-0.713-0.443-1.49c-0.197-0.861-0.553-1.187-1.331-1.214h-0.809
				v2.705h-0.857V280.695L608.131,280.695z M608.988,283.538h0.878c0.916,0,1.498-0.473,1.498-1.187
				c0-0.806-0.621-1.158-1.528-1.167c-0.414,0-0.709,0.037-0.848,0.074V283.538L608.988,283.538z"/>
			<path fill="#475656" d="M614.555,284.89l-0.688,1.963h-0.889l2.259-6.243h1.034l2.268,6.243h-0.916l-0.71-1.963H614.555z
				 M616.733,284.26l-0.65-1.797c-0.148-0.408-0.246-0.778-0.345-1.139h-0.021c-0.099,0.369-0.207,0.75-0.335,1.13l-0.649,1.806
				H616.733z"/>
			<path fill="#475656" d="M619.51,280.685c0.414-0.064,0.956-0.121,1.646-0.121c0.848,0,1.469,0.187,1.862,0.52
				c0.364,0.296,0.581,0.75,0.581,1.306c0,0.565-0.178,1.01-0.513,1.334c-0.453,0.454-1.192,0.686-2.03,0.686
				c-0.257,0-0.492-0.01-0.689-0.057v2.501h-0.857V280.685L619.51,280.685z M620.367,283.696c0.188,0.047,0.424,0.064,0.71,0.064
				c1.035,0,1.666-0.472,1.666-1.333c0-0.824-0.621-1.223-1.567-1.223c-0.375,0-0.66,0.027-0.809,0.064V283.696z"/>
			<path fill="#475656" d="M625.609,280.611v2.612h3.214v-2.612h0.867v6.243h-0.867v-2.927h-3.214v2.927h-0.857v-6.243H625.609z"/>
			<path fill="#475656" d="M632.033,280.611v6.243h-0.857v-6.243H632.033z"/>
			<path fill="#475656" d="M633.412,285.872c0.385,0.223,0.946,0.407,1.538,0.407c0.877,0,1.39-0.436,1.39-1.064
				c0-0.583-0.354-0.917-1.252-1.241c-1.084-0.361-1.755-0.889-1.755-1.769c0-0.974,0.857-1.695,2.149-1.695
				c0.68,0,1.173,0.148,1.469,0.306l-0.237,0.658c-0.217-0.111-0.66-0.296-1.262-0.296c-0.906,0-1.251,0.509-1.251,0.936
				c0,0.583,0.402,0.871,1.32,1.204c1.123,0.408,1.694,0.917,1.694,1.834c0,0.964-0.759,1.798-2.326,1.798
				c-0.641,0-1.341-0.177-1.694-0.398L633.412,285.872z"/>
			<path fill="#475656" d="M643.986,284.112c-0.049-0.87-0.108-1.917-0.1-2.694h-0.028c-0.228,0.731-0.503,1.51-0.839,2.371
				l-1.173,3.028h-0.649l-1.074-2.973c-0.315-0.88-0.582-1.686-0.77-2.427h-0.021c-0.021,0.777-0.069,1.825-0.128,2.76l-0.178,2.677
				h-0.818l0.464-6.243h1.094l1.135,3.021c0.275,0.769,0.503,1.454,0.67,2.103h0.029c0.167-0.63,0.404-1.314,0.699-2.103
				l1.185-3.021h1.094l0.414,6.243h-0.838L643.986,284.112z"/>
			<path fill="#475656" d="M649.75,283.927h-2.583v2.25h2.879v0.676h-3.736v-6.243h3.589v0.677h-2.73v1.973h2.583L649.75,283.927
				L649.75,283.927z"/>
		</g>
	</g>
	<g>
		<g enable-background="new    ">
			<path fill="#475656" d="M601.766,316.746c0.414-0.063,0.956-0.119,1.646-0.119c0.848,0,1.469,0.186,1.863,0.519
				c0.363,0.297,0.58,0.75,0.58,1.307c0,0.564-0.178,1.01-0.513,1.333c-0.453,0.454-1.191,0.687-2.03,0.687
				c-0.257,0-0.492-0.009-0.689-0.056v2.501h-0.857V316.746L601.766,316.746z M602.623,319.758c0.188,0.046,0.424,0.063,0.71,0.063
				c1.035,0,1.666-0.472,1.666-1.334c0-0.824-0.621-1.222-1.567-1.222c-0.375,0-0.659,0.027-0.809,0.063V319.758z"/>
			<path fill="#475656" d="M607.864,316.674v2.61h3.214v-2.61h0.867v6.242h-0.867v-2.928h-3.214v2.928h-0.857v-6.242H607.864z"/>
			<path fill="#475656" d="M619.108,319.73c0,2.149-1.391,3.288-3.085,3.288c-1.756,0-2.987-1.278-2.987-3.167
				c0-1.982,1.312-3.279,3.086-3.279C617.936,316.572,619.108,317.877,619.108,319.73z M613.953,319.831
				c0,1.333,0.769,2.528,2.119,2.528c1.359,0,2.129-1.177,2.129-2.594c0-1.241-0.689-2.537-2.119-2.537
				C614.663,317.23,613.953,318.461,613.953,319.831z"/>
			<path fill="#475656" d="M621.235,317.359h-2.021v-0.685h4.919v0.685h-2.031v5.559h-0.866V317.359z"/>
			<path fill="#475656" d="M630.282,319.73c0,2.149-1.391,3.288-3.085,3.288c-1.755,0-2.987-1.278-2.987-3.167
				c0-1.982,1.312-3.279,3.086-3.279C629.109,316.572,630.282,317.877,630.282,319.73z M625.127,319.831
				c0,1.333,0.77,2.528,2.119,2.528c1.36,0,2.129-1.177,2.129-2.594c0-1.241-0.689-2.537-2.119-2.537
				C625.837,317.23,625.127,318.461,625.127,319.831z"/>
			<path fill="#475656" d="M631.274,321.935c0.385,0.222,0.945,0.407,1.538,0.407c0.877,0,1.39-0.437,1.39-1.065
				c0-0.583-0.355-0.917-1.252-1.241c-1.084-0.36-1.755-0.889-1.755-1.769c0-0.973,0.856-1.695,2.148-1.695
				c0.681,0,1.173,0.148,1.469,0.307l-0.236,0.657c-0.217-0.11-0.66-0.297-1.262-0.297c-0.906,0-1.253,0.51-1.253,0.937
				c0,0.584,0.404,0.871,1.321,1.204c1.124,0.406,1.695,0.917,1.695,1.834c0,0.963-0.759,1.797-2.326,1.797
				c-0.641,0-1.341-0.176-1.695-0.398L631.274,321.935z"/>
			<path fill="#475656" d="M637.107,316.674v2.61h3.214v-2.61h0.866v6.242h-0.866v-2.928h-3.214v2.928h-0.857v-6.242H637.107z"/>
			<path fill="#475656" d="M648.352,319.73c0,2.149-1.39,3.288-3.085,3.288c-1.755,0-2.986-1.278-2.986-3.167
				c0-1.982,1.312-3.279,3.086-3.279C647.179,316.572,648.352,317.877,648.352,319.73z M643.196,319.831
				c0,1.333,0.769,2.528,2.119,2.528c1.359,0,2.13-1.177,2.13-2.594c0-1.241-0.69-2.537-2.12-2.537
				C643.906,317.23,643.196,318.461,643.196,319.831z"/>
			<path fill="#475656" d="M649.462,316.746c0.414-0.063,0.956-0.119,1.646-0.119c0.848,0,1.469,0.186,1.861,0.519
				c0.365,0.297,0.582,0.75,0.582,1.307c0,0.564-0.178,1.01-0.513,1.333c-0.453,0.454-1.192,0.687-2.03,0.687
				c-0.257,0-0.493-0.009-0.689-0.056v2.501h-0.857V316.746L649.462,316.746z M650.319,319.758c0.188,0.046,0.424,0.063,0.71,0.063
				c1.035,0,1.666-0.472,1.666-1.334c0-0.824-0.621-1.222-1.567-1.222c-0.375,0-0.66,0.027-0.809,0.063V319.758z"/>
		</g>
	</g>
	<g>
		<g enable-background="new    ">
			<path fill="#475656" d="M602.623,352.737v6.242h-0.857v-6.242H602.623z"/>
			<path fill="#475656" d="M604.12,352.737h0.856v5.566h2.84v0.676h-3.696V352.737z"/>
			<path fill="#475656" d="M608.771,352.737h0.856v5.566h2.839v0.676h-3.695V352.737z"/>
			<path fill="#475656" d="M613.924,352.737v3.695c0,1.397,0.661,1.991,1.548,1.991c0.985,0,1.616-0.611,1.616-1.991v-3.695h0.868
				v3.641c0,1.917-1.075,2.703-2.514,2.703c-1.36,0-2.387-0.73-2.387-2.667v-3.677H613.924L613.924,352.737z"/>
			<path fill="#475656" d="M619.323,357.996c0.385,0.223,0.945,0.407,1.538,0.407c0.877,0,1.39-0.436,1.39-1.064
				c0-0.583-0.354-0.917-1.252-1.241c-1.084-0.361-1.755-0.889-1.755-1.77c0-0.973,0.856-1.694,2.148-1.694
				c0.681,0,1.174,0.147,1.47,0.306l-0.237,0.658c-0.217-0.111-0.66-0.297-1.262-0.297c-0.906,0-1.252,0.51-1.252,0.936
				c0,0.584,0.403,0.871,1.32,1.204c1.124,0.407,1.695,0.917,1.695,1.834c0,0.963-0.759,1.797-2.326,1.797
				c-0.641,0-1.341-0.176-1.695-0.397L619.323,357.996z"/>
			<path fill="#475656" d="M625.56,353.421h-2.021v-0.686h4.919v0.686h-2.031v5.558h-0.867V353.421z"/>
			<path fill="#475656" d="M629.195,352.82c0.434-0.083,1.055-0.13,1.646-0.13c0.916,0,1.508,0.157,1.922,0.51
				c0.335,0.277,0.522,0.704,0.522,1.187c0,0.824-0.552,1.37-1.252,1.593v0.028c0.513,0.166,0.817,0.609,0.976,1.259
				c0.217,0.871,0.375,1.473,0.513,1.714h-0.887c-0.107-0.176-0.257-0.713-0.442-1.491c-0.197-0.86-0.554-1.186-1.331-1.213h-0.81
				v2.704h-0.856V352.82L629.195,352.82z M630.053,355.662h0.878c0.916,0,1.498-0.473,1.498-1.186c0-0.807-0.621-1.158-1.527-1.167
				c-0.414,0-0.709,0.037-0.849,0.073V355.662L630.053,355.662z"/>
			<path fill="#475656" d="M635.619,357.015l-0.689,1.964h-0.888l2.258-6.242h1.035l2.267,6.242h-0.916l-0.71-1.964H635.619z
				 M637.798,356.385l-0.649-1.797c-0.148-0.407-0.246-0.777-0.346-1.14h-0.021c-0.1,0.37-0.207,0.75-0.335,1.13l-0.65,1.807
				H637.798z"/>
			<path fill="#475656" d="M641.078,353.421h-2.021v-0.686h4.919v0.686h-2.03v5.558h-0.867V353.421z"/>
			<path fill="#475656" d="M650.125,355.791c0,2.149-1.39,3.288-3.085,3.288c-1.755,0-2.987-1.277-2.987-3.167
				c0-1.981,1.313-3.278,3.086-3.278C648.952,352.634,650.125,353.94,650.125,355.791z M644.97,355.895
				c0,1.333,0.77,2.528,2.119,2.528c1.36,0,2.13-1.178,2.13-2.595c0-1.24-0.689-2.536-2.12-2.536
				C645.68,353.291,644.97,354.524,644.97,355.895z"/>
			<path fill="#475656" d="M651.235,352.82c0.434-0.083,1.055-0.13,1.646-0.13c0.917,0,1.508,0.157,1.922,0.51
				c0.335,0.277,0.522,0.704,0.522,1.187c0,0.824-0.552,1.37-1.252,1.593v0.028c0.513,0.166,0.817,0.609,0.976,1.259
				c0.217,0.871,0.375,1.473,0.513,1.714h-0.887c-0.107-0.176-0.257-0.713-0.442-1.491c-0.197-0.86-0.554-1.186-1.331-1.213h-0.81
				v2.704h-0.856V352.82L651.235,352.82z M652.093,355.662h0.878c0.916,0,1.498-0.473,1.498-1.186c0-0.807-0.621-1.158-1.527-1.167
				c-0.414,0-0.709,0.037-0.849,0.073V355.662L652.093,355.662z"/>
		</g>
	</g>
	<g>
		<g enable-background="new    ">
			<path fill="#475656" d="M602.623,388.801v6.242h-0.857v-6.242H602.623z"/>
			<path fill="#475656" d="M604.12,395.043v-6.242h0.937l2.129,3.158c0.493,0.73,0.879,1.389,1.193,2.027l0.021-0.01
				c-0.079-0.833-0.1-1.593-0.1-2.565v-2.61h0.81v6.242h-0.868l-2.109-3.168c-0.463-0.694-0.905-1.407-1.242-2.085l-0.028,0.011
				c0.05,0.787,0.068,1.537,0.068,2.574v2.668H604.12z"/>
			<path fill="#475656" d="M610.604,388.884c0.522-0.074,1.145-0.13,1.823-0.13c1.232,0,2.11,0.269,2.691,0.777
				c0.592,0.51,0.937,1.231,0.937,2.241c0,1.02-0.335,1.854-0.956,2.427c-0.62,0.583-1.646,0.898-2.938,0.898
				c-0.611,0-1.124-0.028-1.558-0.074V388.884L610.604,388.884z M611.461,394.405c0.217,0.037,0.532,0.046,0.868,0.046
				c1.833,0,2.828-0.963,2.828-2.648c0.011-1.474-0.877-2.407-2.69-2.407c-0.442,0-0.779,0.036-1.006,0.083V394.405z"/>
			<path fill="#475656" d="M620.605,392.115h-2.584v2.251h2.88v0.677h-3.736v-6.242h3.588v0.676h-2.729v1.973h2.583L620.605,392.115
				L620.605,392.115z"/>
			<path fill="#475656" d="M621.895,394.062c0.386,0.222,0.946,0.407,1.538,0.407c0.878,0,1.391-0.437,1.391-1.065
				c0-0.583-0.355-0.917-1.252-1.241c-1.084-0.36-1.755-0.889-1.755-1.769c0-0.973,0.856-1.695,2.148-1.695
				c0.68,0,1.173,0.148,1.469,0.307l-0.236,0.657c-0.217-0.11-0.66-0.297-1.263-0.297c-0.905,0-1.251,0.511-1.251,0.937
				c0,0.584,0.403,0.871,1.32,1.204c1.124,0.406,1.695,0.917,1.695,1.834c0,0.963-0.759,1.797-2.326,1.797
				c-0.641,0-1.341-0.176-1.695-0.398L621.895,394.062z"/>
			<path fill="#475656" d="M627.729,388.801v6.242h-0.857v-6.242H627.729z"/>
			<path fill="#475656" d="M634.281,394.765c-0.384,0.13-1.145,0.343-2.04,0.343c-1.006,0-1.834-0.24-2.484-0.824
				c-0.571-0.519-0.927-1.352-0.927-2.323c0.01-1.862,1.37-3.225,3.599-3.225c0.77,0,1.37,0.157,1.655,0.287l-0.207,0.658
				c-0.354-0.148-0.798-0.27-1.469-0.27c-1.616,0-2.671,0.944-2.671,2.511c0,1.584,1.016,2.52,2.563,2.52
				c0.563,0,0.946-0.074,1.145-0.167v-1.862h-1.352v-0.646h2.188V394.765z"/>
			<path fill="#475656" d="M635.59,395.043v-6.242h0.938l2.129,3.158c0.493,0.73,0.878,1.389,1.192,2.027l0.021-0.01
				c-0.079-0.833-0.099-1.593-0.099-2.565v-2.61h0.809v6.242h-0.868l-2.108-3.168c-0.464-0.694-0.906-1.407-1.242-2.085
				l-0.029,0.011c0.05,0.787,0.069,1.537,0.069,2.574v2.668H635.59z"/>
			<path fill="#475656" d="M645.513,392.115h-2.583v2.251h2.879v0.677h-3.735v-6.242h3.588v0.676h-2.73v1.973h2.583L645.513,392.115
				L645.513,392.115z"/>
		</g>
	</g>
	<g>
		<g enable-background="new    ">
			<path fill="#475656" d="M601.766,424.934c0.414-0.064,0.956-0.12,1.646-0.12c0.848,0,1.469,0.187,1.863,0.519
				c0.363,0.298,0.58,0.75,0.58,1.308c0,0.563-0.178,1.009-0.513,1.333c-0.453,0.454-1.191,0.686-2.03,0.686
				c-0.257,0-0.492-0.009-0.689-0.056v2.501h-0.857V424.934L601.766,424.934z M602.623,427.945c0.188,0.046,0.424,0.064,0.71,0.064
				c1.035,0,1.666-0.473,1.666-1.334c0-0.824-0.621-1.223-1.567-1.223c-0.375,0-0.659,0.027-0.809,0.064V427.945z"/>
			<path fill="#475656" d="M607.007,424.944c0.435-0.083,1.056-0.13,1.646-0.13c0.917,0,1.508,0.157,1.922,0.51
				c0.335,0.277,0.521,0.704,0.521,1.187c0,0.824-0.552,1.37-1.252,1.593v0.028c0.514,0.166,0.818,0.609,0.977,1.259
				c0.217,0.871,0.375,1.473,0.513,1.714h-0.887c-0.108-0.176-0.258-0.713-0.443-1.491c-0.197-0.86-0.553-1.186-1.331-1.213h-0.809
				v2.704h-0.857V424.944L607.007,424.944z M607.864,427.786h0.878c0.916,0,1.498-0.473,1.498-1.186
				c0-0.807-0.621-1.158-1.528-1.167c-0.414,0-0.709,0.036-0.848,0.073V427.786L607.864,427.786z"/>
			<path fill="#475656" d="M615.748,428.176h-2.583v2.251h2.879v0.676h-3.736v-6.242h3.589v0.676h-2.73v1.974h2.583L615.748,428.176
				L615.748,428.176z"/>
			<path fill="#475656" d="M622.754,428.362c-0.049-0.871-0.107-1.918-0.099-2.695h-0.029c-0.227,0.731-0.503,1.511-0.838,2.371
				l-1.173,3.028h-0.65l-1.074-2.973c-0.314-0.88-0.582-1.688-0.77-2.427h-0.021c-0.02,0.776-0.068,1.823-0.128,2.76l-0.178,2.677
				h-0.818l0.465-6.242h1.094l1.134,3.02c0.276,0.77,0.503,1.454,0.67,2.103h0.03c0.167-0.63,0.404-1.313,0.699-2.103l1.184-3.02
				h1.094l0.414,6.242h-0.838L622.754,428.362z"/>
			<path fill="#475656" d="M625.935,424.861v6.242h-0.856v-6.242H625.935z"/>
			<path fill="#475656" d="M630.872,428.176h-2.583v2.251h2.879v0.676h-3.736v-6.242h3.588v0.676h-2.729v1.974h2.583
				L630.872,428.176L630.872,428.176z"/>
			<path fill="#475656" d="M632.279,424.944c0.434-0.083,1.055-0.13,1.646-0.13c0.916,0,1.508,0.157,1.922,0.51
				c0.335,0.277,0.522,0.704,0.522,1.187c0,0.824-0.552,1.37-1.252,1.593v0.028c0.513,0.166,0.817,0.609,0.976,1.259
				c0.217,0.871,0.375,1.473,0.513,1.714h-0.887c-0.107-0.176-0.257-0.713-0.442-1.491c-0.197-0.86-0.554-1.186-1.331-1.213h-0.81
				v2.704h-0.856V424.944L632.279,424.944z M633.137,427.786h0.878c0.916,0,1.498-0.473,1.498-1.186
				c0-0.807-0.621-1.158-1.527-1.167c-0.414,0-0.709,0.036-0.849,0.073V427.786L633.137,427.786z"/>
			<path fill="#475656" d="M639.668,424.934c0.414-0.064,0.956-0.12,1.646-0.12c0.848,0,1.469,0.187,1.862,0.519
				c0.364,0.298,0.581,0.75,0.581,1.308c0,0.563-0.178,1.009-0.513,1.333c-0.453,0.454-1.192,0.686-2.03,0.686
				c-0.257,0-0.493-0.009-0.689-0.056v2.501h-0.857V424.934L639.668,424.934z M640.525,427.945c0.188,0.046,0.424,0.064,0.71,0.064
				c1.034,0,1.666-0.473,1.666-1.334c0-0.824-0.621-1.223-1.567-1.223c-0.375,0-0.66,0.027-0.809,0.064V427.945z"/>
			<path fill="#475656" d="M644.91,424.944c0.434-0.083,1.055-0.13,1.646-0.13c0.916,0,1.509,0.157,1.922,0.51
				c0.335,0.277,0.522,0.704,0.522,1.187c0,0.824-0.552,1.37-1.252,1.593v0.028c0.513,0.166,0.818,0.609,0.976,1.259
				c0.218,0.871,0.375,1.473,0.514,1.714h-0.888c-0.107-0.176-0.257-0.713-0.442-1.491c-0.197-0.86-0.554-1.186-1.331-1.213h-0.81
				v2.704h-0.856V424.944L644.91,424.944z M645.768,427.786h0.879c0.916,0,1.497-0.473,1.497-1.186c0-0.807-0.62-1.158-1.527-1.167
				c-0.414,0-0.709,0.036-0.849,0.073V427.786L645.768,427.786z"/>
			<path fill="#475656" d="M655.918,427.915c0,2.149-1.39,3.288-3.085,3.288c-1.755,0-2.987-1.277-2.987-3.167
				c0-1.981,1.313-3.278,3.086-3.278C654.745,424.758,655.918,426.065,655.918,427.915z M650.763,428.019
				c0,1.333,0.77,2.528,2.119,2.528c1.36,0,2.13-1.178,2.13-2.595c0-1.24-0.689-2.536-2.12-2.536
				C651.473,425.415,650.763,426.648,650.763,428.019z"/>
		</g>
	</g>
	<g>
		<g enable-background="new    ">
			<path fill="#475656" d="M602.84,465.203l-0.688,1.965h-0.889l2.259-6.242h1.034l2.268,6.242h-0.916l-0.71-1.965H602.84z
				 M605.019,464.573l-0.649-1.797c-0.148-0.407-0.246-0.776-0.345-1.139h-0.021c-0.099,0.37-0.207,0.75-0.335,1.13l-0.65,1.806
				H605.019z"/>
			<path fill="#475656" d="M607.796,460.926h3.578v0.676h-2.721v2.074h2.514v0.667h-2.514v2.825h-0.857V460.926z"/>
			<path fill="#475656" d="M613.855,461.611h-2.021v-0.685h4.919v0.685h-2.031v5.559h-0.866V461.611z"/>
			<path fill="#475656" d="M620.931,464.24h-2.583v2.251h2.879v0.677h-3.735v-6.242h3.588v0.676h-2.73v1.973h2.583L620.931,464.24
				L620.931,464.24z"/>
			<path fill="#475656" d="M622.338,461.009c0.435-0.083,1.055-0.13,1.646-0.13c0.916,0,1.508,0.156,1.922,0.51
				c0.335,0.277,0.521,0.704,0.521,1.186c0,0.824-0.552,1.37-1.252,1.594v0.027c0.514,0.166,0.818,0.61,0.977,1.259
				c0.217,0.871,0.375,1.474,0.513,1.715h-0.887c-0.108-0.177-0.258-0.714-0.443-1.491c-0.197-0.861-0.553-1.187-1.331-1.213h-0.809
				v2.704h-0.857V461.009L622.338,461.009z M623.195,463.853h0.878c0.916,0,1.498-0.473,1.498-1.187
				c0-0.807-0.621-1.157-1.528-1.166c-0.414,0-0.709,0.036-0.848,0.072V463.853L623.195,463.853z"/>
			<path fill="#475656" d="M633.168,464.24h-2.583v2.251h2.879v0.677h-3.735v-6.242h3.588v0.676h-2.73v1.973h2.583L633.168,464.24
				L633.168,464.24z"/>
			<path fill="#475656" d="M634.574,460.926h3.578v0.676h-2.722v2.074h2.515v0.667h-2.515v2.825h-0.856V460.926z"/>
			<path fill="#475656" d="M639.373,460.926h3.578v0.676h-2.721v2.074h2.514v0.667h-2.514v2.825h-0.857V460.926z"/>
			<path fill="#475656" d="M647.611,464.24h-2.583v2.251h2.879v0.677h-3.736v-6.242h3.588v0.676h-2.729v1.973h2.583L647.611,464.24
				L647.611,464.24z"/>
			<path fill="#475656" d="M653.661,466.964c-0.315,0.147-0.946,0.297-1.754,0.297c-1.873,0-3.283-1.111-3.283-3.158
				c0-1.955,1.41-3.279,3.47-3.279c0.828,0,1.352,0.167,1.577,0.278l-0.207,0.657c-0.325-0.148-0.788-0.259-1.34-0.259
				c-1.558,0-2.593,0.935-2.593,2.573c0,1.528,0.937,2.511,2.553,2.511c0.521,0,1.055-0.103,1.4-0.26L653.661,466.964z"/>
			<path fill="#475656" d="M656.271,461.611h-2.021v-0.685h4.919v0.685h-2.031v5.559h-0.866V461.611z"/>
		</g>
	</g>
	<g>
		<g enable-background="new    ">
			<path fill="#475656" d="M601.766,496.989h3.578v0.676h-2.721v2.074h2.514v0.667h-2.514v2.825h-0.857V496.989z"/>
			<path fill="#475656" d="M606.563,496.989h0.857v5.566h2.839v0.676h-3.696V496.989z"/>
			<path fill="#475656" d="M612.288,501.267l-0.689,1.964h-0.888l2.258-6.242h1.035l2.268,6.242h-0.918l-0.709-1.964H612.288z
				 M614.467,500.637l-0.649-1.797c-0.148-0.407-0.246-0.777-0.346-1.14h-0.021c-0.1,0.37-0.207,0.75-0.335,1.13l-0.65,1.807
				H614.467z"/>
			<path fill="#475656" d="M617.126,502.248c0.385,0.223,0.946,0.407,1.538,0.407c0.877,0,1.39-0.436,1.39-1.064
				c0-0.583-0.354-0.917-1.252-1.241c-1.084-0.361-1.755-0.889-1.755-1.77c0-0.973,0.857-1.694,2.149-1.694
				c0.68,0,1.173,0.147,1.469,0.306l-0.237,0.658c-0.217-0.111-0.66-0.297-1.262-0.297c-0.906,0-1.252,0.51-1.252,0.936
				c0,0.584,0.404,0.871,1.321,1.204c1.124,0.407,1.694,0.917,1.694,1.834c0,0.963-0.759,1.797-2.326,1.797
				c-0.641,0-1.341-0.176-1.694-0.397L617.126,502.248z"/>
			<path fill="#475656" d="M622.959,496.989v2.611h3.214v-2.611h0.867v6.242h-0.867v-2.927h-3.214v2.927h-0.857v-6.242H622.959z"/>
			<path fill="#475656" d="M630.614,497.072c0.375-0.074,0.966-0.13,1.566-0.13c0.857,0,1.409,0.139,1.823,0.454
				c0.346,0.24,0.553,0.611,0.553,1.102c0,0.604-0.424,1.132-1.124,1.371v0.02c0.632,0.147,1.37,0.64,1.37,1.564
				c0,0.537-0.227,0.944-0.562,1.25c-0.464,0.398-1.213,0.584-2.297,0.584c-0.593,0-1.045-0.036-1.331-0.073L630.614,497.072
				L630.614,497.072z M631.472,499.628h0.779c0.906,0,1.438-0.445,1.438-1.048c0-0.73-0.592-1.019-1.459-1.019
				c-0.395,0-0.62,0.027-0.76,0.055L631.472,499.628L631.472,499.628z M631.472,502.618c0.168,0.027,0.414,0.037,0.721,0.037
				c0.888,0,1.704-0.306,1.704-1.213c0-0.853-0.777-1.204-1.715-1.204h-0.71V502.618L631.472,502.618z"/>
			<path fill="#475656" d="M636.813,496.989v3.695c0,1.398,0.66,1.991,1.548,1.991c0.984,0,1.615-0.611,1.615-1.991v-3.695h0.868
				v3.641c0,1.917-1.075,2.704-2.514,2.704c-1.36,0-2.386-0.731-2.386-2.667v-3.678H636.813L636.813,496.989z"/>
			<path fill="#475656" d="M643.186,496.989v6.242h-0.856v-6.242H643.186z"/>
			<path fill="#475656" d="M644.684,496.989h0.857v5.566h2.839v0.676h-3.696V496.989z"/>
			<path fill="#475656" d="M649.334,497.072c0.521-0.074,1.144-0.13,1.823-0.13c1.231,0,2.109,0.27,2.69,0.778
				c0.592,0.509,0.938,1.23,0.938,2.241c0,1.019-0.335,1.853-0.956,2.427c-0.621,0.583-1.646,0.897-2.938,0.897
				c-0.61,0-1.124-0.027-1.558-0.073L649.334,497.072L649.334,497.072z M650.191,502.592c0.217,0.037,0.531,0.046,0.867,0.046
				c1.833,0,2.828-0.963,2.828-2.649c0.012-1.473-0.877-2.407-2.689-2.407c-0.443,0-0.779,0.036-1.006,0.083V502.592z"/>
			<path fill="#475656" d="M659.336,500.304h-2.583v2.251h2.879v0.676h-3.735v-6.242h3.588v0.676h-2.73v1.974h2.583L659.336,500.304
				L659.336,500.304z"/>
			<path fill="#475656" d="M660.743,497.072c0.434-0.083,1.055-0.13,1.646-0.13c0.917,0,1.508,0.157,1.922,0.51
				c0.336,0.277,0.522,0.704,0.522,1.187c0,0.824-0.552,1.37-1.252,1.593v0.028c0.513,0.166,0.817,0.609,0.976,1.259
				c0.217,0.871,0.375,1.473,0.514,1.714h-0.888c-0.107-0.176-0.257-0.713-0.442-1.491c-0.197-0.86-0.554-1.186-1.331-1.213h-0.81
				v2.704h-0.856V497.072L660.743,497.072z M661.601,499.914h0.878c0.916,0,1.498-0.473,1.498-1.186c0-0.807-0.62-1.158-1.527-1.167
				c-0.414,0-0.709,0.037-0.849,0.073V499.914L661.601,499.914z"/>
		</g>
	</g>
</g>
<g id="Photos">
	<g id="Marc">
		<defs>
			<rect id="SVGID_4_" x="282.28" y="379.809" width="99.024" height="99.78"/>
		</defs>
		<clipPath id="SVGID_5_">
			<use xlink:href="#SVGID_4_"  overflow="visible"/>
		</clipPath>
		<g clip-path="url(#SVGID_5_)">
			
				<image overflow="visible" width="2048" height="1536" xlink:href="../trombinoscope/GuillaumeBriand/img/CAM00042.jpg"  transform="matrix(0.1203 0 0 0.1203 211.9551 349.9377)">
			</image>
		</g>
	</g>
	<g id="Louis">
		<defs>
			<rect id="SVGID_6_" x="394.034" y="265.545" width="99.777" height="99.779"/>
		</defs>
		<clipPath id="SVGID_7_">
			<use xlink:href="#SVGID_6_"  overflow="visible"/>
		</clipPath>
		<g clip-path="url(#SVGID_7_)">
			
				<image overflow="visible" width="2048" height="1536" xlink:href="../trombinoscope/GuillaumeBriand/img/CAM00040.jpg"  transform="matrix(0.1311 0 0 0.1311 319.2627 225.5647)">
			</image>
		</g>
	</g>
	<g id="Guillaume">
		<defs>
			<rect id="SVGID_8_" x="281.933" y="265.708" width="99.025" height="99.778"/>
		</defs>
		<clipPath id="SVGID_9_">
			<use xlink:href="#SVGID_8_"  overflow="visible"/>
		</clipPath>
		<g clip-path="url(#SVGID_9_)">
			
				<image overflow="visible" width="2048" height="1536" xlink:href="../trombinoscope/GuillaumeBriand/img/CAM00039.jpg"  transform="matrix(0.1463 0 0 0.1463 189.417 205.6995)">
			</image>
		</g>
	</g>
	<g id="Helene">
		<defs>
			<rect id="SVGID_10_" x="169.304" y="265.708" width="99.777" height="99.778"/>
		</defs>
		<clipPath id="SVGID_11_">
			<use xlink:href="#SVGID_10_"  overflow="visible"/>
		</clipPath>
		<g transform="matrix(1 0 0 1 -3.814697e-006 0)" clip-path="url(#SVGID_11_)">
			
				<image overflow="visible" width="2048" height="1536" xlink:href="../trombinoscope/GuillaumeBriand/img/CAM00038.jpg"  transform="matrix(0.1502 0 0 0.1502 45.4185 200.5081)">
			</image>
		</g>
	</g>
	<g id="Alexia">
		<defs>
			<rect id="SVGID_12_" x="56.675" y="265.708" width="99.778" height="99.778"/>
		</defs>
		<clipPath id="SVGID_13_">
			<use xlink:href="#SVGID_12_"  overflow="visible"/>
		</clipPath>
		<g transform="matrix(1 0 0 1 0 -1.525879e-005)" clip-path="url(#SVGID_13_)">
			
				<image overflow="visible" width="2048" height="1536" xlink:href="../trombinoscope/GuillaumeBriand/img/CAM00037.jpg"  transform="matrix(0.1591 0 0 0.1591 -77.3799 201.9011)">
			</image>
		</g>
	</g>
	<g id="Hugo">
		<defs>
			<rect id="SVGID_14_" x="56.109" y="39.457" width="99.779" height="99.778"/>
		</defs>
		<clipPath id="SVGID_15_">
			<use xlink:href="#SVGID_14_"  overflow="visible"/>
		</clipPath>
		<g clip-path="url(#SVGID_15_)">
			
				<image overflow="visible" width="2048" height="1536" xlink:href="../trombinoscope/GuillaumeBriand/img/CAM00027.jpg"  transform="matrix(0.1098 0 0 0.1098 7.0093 21.5793)">
			</image>
		</g>
	</g>
	<g id="Antoine">
		<defs>
			<rect id="SVGID_16_" x="168.738" y="39.457" width="99.78" height="99.778"/>
		</defs>
		<clipPath id="SVGID_17_">
			<use xlink:href="#SVGID_16_"  overflow="visible"/>
		</clipPath>
		<g transform="matrix(1 0 0 1 -7.629395e-006 -9.536743e-007)" clip-path="url(#SVGID_17_)">
			
				<image overflow="visible" width="2048" height="1536" xlink:href="../trombinoscope/GuillaumeBriand/img/CAM00028.jpg"  transform="matrix(0.1246 0 0 0.1246 99.0088 8.5618)">
			</image>
		</g>
	</g>
	<g id="Gabi">
		<defs>
			<rect id="SVGID_18_" x="282.121" y="39.457" width="99.023" height="99.778"/>
		</defs>
		<clipPath id="SVGID_19_">
			<use xlink:href="#SVGID_18_"  overflow="visible"/>
		</clipPath>
		<g clip-path="url(#SVGID_19_)">
			
				<image overflow="visible" width="2048" height="1536" xlink:href="../trombinoscope/GuillaumeBriand/img/CAM00029.jpg"  transform="matrix(0.1026 0 0 0.1026 229.2427 11.9797)">
			</image>
		</g>
	</g>
	<g id="Macaire">
		<defs>
			<rect id="SVGID_20_" x="393.997" y="40.401" width="99.778" height="99.778"/>
		</defs>
		<clipPath id="SVGID_21_">
			<use xlink:href="#SVGID_20_"  overflow="visible"/>
		</clipPath>
		<g clip-path="url(#SVGID_21_)">
			
				<image overflow="visible" width="2048" height="1536" xlink:href="../trombinoscope/GuillaumeBriand/img/CAM00030.jpg"  transform="matrix(0.118 0 0 0.118 325.5859 2.0002)">
			</image>
		</g>
	</g>
	<g id="Alex">
		<defs>
			<rect id="SVGID_22_" x="56.513" y="379.388" width="99.775" height="99.78"/>
		</defs>
		<clipPath id="SVGID_23_">
			<use xlink:href="#SVGID_22_"  overflow="visible"/>
		</clipPath>
		<g clip-path="url(#SVGID_23_)">
			
				<image overflow="visible" width="2048" height="1536" xlink:href="../trombinoscope/GuillaumeBriand/img/CAM00031.jpg"  transform="matrix(0.1228 0 0 0.1228 -21.0938 341.0295)">
			</image>
		</g>
	</g>
	<g id="Clem">
		<defs>
			<rect id="SVGID_24_" x="56.109" y="152.842" width="99.779" height="99.777"/>
		</defs>
		<clipPath id="SVGID_25_">
			<use xlink:href="#SVGID_24_"  overflow="visible"/>
		</clipPath>
		<g transform="matrix(1 0 0 1 -3.814697e-006 7.629395e-006)" clip-path="url(#SVGID_25_)">
			
				<image overflow="visible" width="2048" height="1536" xlink:href="../trombinoscope/GuillaumeBriand/img/CAM00032.jpg"  transform="matrix(0.1463 0 0 0.1463 -46.2705 94.0071)">
			</image>
		</g>
	</g>
	<g id="Yo">
		<defs>
			<rect id="SVGID_26_" x="168.738" y="152.842" width="99.78" height="99.777"/>
		</defs>
		<clipPath id="SVGID_27_">
			<use xlink:href="#SVGID_26_"  overflow="visible"/>
		</clipPath>
		<g clip-path="url(#SVGID_27_)">
			
				<image overflow="visible" width="2048" height="1536" xlink:href="../trombinoscope/GuillaumeBriand/img/CAM00033.jpg"  transform="matrix(0.1445 0 0 0.1445 72.0313 87.8547)">
			</image>
		</g>
	</g>
	<g id="Amin">
		<defs>
			<rect id="SVGID_28_" x="282.121" y="152.842" width="99.023" height="99.777"/>
		</defs>
		<clipPath id="SVGID_29_">
			<use xlink:href="#SVGID_28_"  overflow="visible"/>
		</clipPath>
		<g clip-path="url(#SVGID_29_)">
			
				<image overflow="visible" width="2048" height="1536" xlink:href="../trombinoscope/GuillaumeBriand/img/CAM00034.jpg"  transform="matrix(0.1218 0 0 0.1218 201.4521 119.573)">
			</image>
		</g>
	</g>
	<g id="Quentin">
		<defs>
			<rect id="SVGID_30_" x="393.997" y="151.897" width="99.778" height="99.781"/>
		</defs>
		<clipPath id="SVGID_31_">
			<use xlink:href="#SVGID_30_"  overflow="visible"/>
		</clipPath>
		<g transform="matrix(1 0 0 1 3.051758e-005 0)" clip-path="url(#SVGID_31_)">
			
				<image overflow="visible" width="2048" height="1536" xlink:href="../trombinoscope/GuillaumeBriand/img/CAM00035.jpg"  transform="matrix(0.1326 0 0 0.1326 297.5635 118.925)">
			</image>
		</g>
	</g>
	<g>
		<defs>
			<rect id="SVGID_32_" x="170.072" y="379.899" width="99.777" height="99.779"/>
		</defs>
		<clipPath id="SVGID_33_">
			<use xlink:href="#SVGID_32_"  overflow="visible"/>
		</clipPath>
		<g transform="matrix(1 0 0 1 0 3.051758e-005)" clip-path="url(#SVGID_33_)">
			
				<image overflow="visible" width="2048" height="1536" xlink:href="../trombinoscope/GuillaumeBriand/img/CAM00036.jpg"  transform="matrix(0.117 0 0 0.117 93.1924 350.1946)">
			</image>
		</g>
	</g>
</g>
</svg>
